<svg width="1408" height="427" viewBox="0 0 1408 427" fill="none" xmlns="http://www.w3.org/2000/svg">
<path d="M492.8 303.16L508.16 299.32V135.48L492.8 131.64V127.8H629.76V173.88H622.08C618.837 171.32 616.021 168.077 613.632 164.152C608.171 154.936 605.44 144.952 605.44 134.2H550.4V214.84H579.84C581.035 208.355 583.253 202.296 586.496 196.664C587.861 194.104 589.483 191.629 591.36 189.24H599.04V246.84H591.36C589.483 244.451 587.861 241.976 586.496 239.416C583.253 233.784 581.035 227.725 579.84 221.24H550.4V300.6H610.56C610.56 289.848 613.291 279.864 618.752 270.648C621.141 266.723 623.957 263.48 627.2 260.92H634.88V307H492.8V303.16ZM652.68 300.6L747.656 134.2H680.84C680.84 144.611 678.024 154.595 672.392 164.152C670.003 168.077 667.272 171.32 664.2 173.88H656.52V127.8H794.76V134.2L700.04 300.6H769.16C769.16 289.848 771.891 279.864 777.352 270.648C779.741 266.723 782.557 263.48 785.8 260.92H793.48V307H652.68V300.6ZM811.34 134.2L797.26 131.64V127.8H827.98C837.025 127.8 844.449 129.848 850.252 133.944C856.055 138.04 860.151 143.245 862.54 149.56L901.196 248.12L923.724 182.072L904.78 134.2L890.7 131.64V127.8H921.42C930.465 127.8 937.804 129.848 943.436 133.944C949.068 137.869 953.249 143.075 955.98 149.56L994.636 248.12L1031.5 139.32L1012.3 131.64V127.8H1059.66V131.64L1039.18 139.32L981.58 309.56H973.9L927.82 192.568L888.14 309.56H880.46L811.34 134.2ZM1064.87 307V303.16L1080.23 299.32V135.48L1064.87 131.64V127.8H1137.83V131.64L1122.47 135.48V299.32L1137.83 303.16V307H1064.87ZM1181.35 171.32V295.48L1201.83 303.16V307H1153.19V303.16L1173.67 295.48V136.76L1155.75 131.64V127.8H1182.63C1191.68 127.8 1198.76 129.421 1203.88 132.664C1209 135.907 1213.86 140.259 1218.47 145.72L1300.39 241.72V139.32L1279.91 131.64V127.8H1328.55V131.64L1308.07 139.32V310.84H1300.39L1181.35 171.32Z" fill="#FCF6F3"/>
<circle cx="213.038" cy="213.038" r="212.038" stroke="#FCF6F3" stroke-width="2"/>
<circle cx="213.037" cy="213.038" r="165.67" stroke="#FCF6F3"/>
<circle cx="236.097" cy="213.178" r="29.3253" stroke="#FCF6F3"/>
<path d="M293.631 213.849C289.995 242.94 266.079 266.889 236.83 266.889C207.571 266.889 183.852 243.17 183.852 213.911C183.852 184.652 207.571 160.933 236.83 160.933C251.477 160.933 266.641 166.619 277.661 176.092C288.675 185.559 295.516 198.773 293.631 213.849Z" stroke="#FCF6F3"/>
<circle cx="233.01" cy="248.29" r="87.3563" stroke="#FCF6F3"/>
<path d="M297.447 187.172C297.447 239.677 258.298 282.168 210.091 282.168C161.884 282.168 122.735 239.677 122.735 187.172C122.735 134.667 161.884 92.1761 210.091 92.1761C258.298 92.1761 297.447 134.667 297.447 187.172Z" stroke="#FCF6F3"/>
<circle cx="217.731" cy="217.731" r="125.555" stroke="#FCF6F3"/>
</svg>
