<svg width="547" height="547" viewBox="0 0 547 547" fill="none" xmlns="http://www.w3.org/2000/svg">
<circle cx="273.499" cy="273.499" r="267.999" stroke="#FCF6F3" stroke-width="11"/>
<circle cx="273.498" cy="273.499" r="207.829" stroke="#FCF6F3" stroke-width="11"/>
<circle cx="303.102" cy="273.679" r="32.79" stroke="#FCF6F3" stroke-width="11"/>
<path d="M372.145 273.938C367.739 309.193 338.818 337.775 304.044 337.775C269.164 337.775 240.889 309.5 240.889 274.62C240.889 239.741 269.164 211.465 304.044 211.465C321.676 211.465 340.023 218.342 353.296 229.752C366.51 241.109 374.317 256.565 372.145 273.938Z" stroke="#FCF6F3" stroke-width="11"/>
<circle cx="299.14" cy="318.756" r="107.291" stroke="#FCF6F3" stroke-width="11"/>
<path d="M377.007 240.293C377.007 305.405 328.549 357.392 269.717 357.392C210.884 357.392 162.426 305.405 162.426 240.293C162.426 175.18 210.884 123.194 269.717 123.194C328.549 123.194 377.007 175.18 377.007 240.293Z" stroke="#FCF6F3" stroke-width="11"/>
<circle cx="279.524" cy="279.524" r="156.33" stroke="#FCF6F3" stroke-width="11"/>
</svg>
