<svg width="583" height="583" viewBox="0 0 583 583" fill="none" xmlns="http://www.w3.org/2000/svg">
<path d="M206.295 437.541C211.154 435.82 216.132 434.456 221.19 433.46L221.802 435.705C221.871 435.969 222.032 436.2 222.257 436.356C222.482 436.511 222.755 436.58 223.027 436.55L243.053 434.218C248.562 421.655 258.677 402.62 258.823 402.328C258.677 397.577 258.823 393.583 258.823 389.036C247.367 393.292 226.175 401.366 215.098 406.526C214.847 406.687 214.654 406.923 214.544 407.2C214.434 407.477 214.414 407.781 214.486 408.071C214.486 408.071 214.69 408.799 214.952 409.849C209.53 409.849 193.294 409.062 189.388 412.764C188.78 413.61 188.482 414.639 188.542 415.679C188.309 419.701 190.32 450.95 193.527 460.132C195.188 464.942 198.686 464.418 201.077 459.812C203.843 452.876 205.619 445.585 206.353 438.153C206.353 437.774 206.265 437.804 206.295 437.541ZM202.942 411.452C206.499 411.16 207.606 411.219 215.244 410.986C216.614 416.174 219.441 426.843 220.899 432.294C215.756 433.091 210.679 434.27 205.712 435.821C204.164 427.782 203.238 419.634 202.942 411.452Z" fill="url(#paint0_linear_380_3795)"/>
<path d="M474.591 156.331C475.32 155.311 474.387 153.999 473.6 152.979C475.829 150.686 478.302 148.643 480.975 146.887C485.485 144.639 489.608 141.687 493.189 138.142C494.675 136.597 497.474 133.419 496.425 131.554C495.375 129.688 493.509 129.572 490.973 130.65C492.072 129.497 492.969 128.166 493.626 126.715C494.442 124.441 492.518 122.605 488.35 124.296C489.866 121.876 490.216 119.34 487.65 118.116C485.581 117.125 482.549 119.486 480.8 121.031C477.366 124.032 474.142 127.265 471.151 130.709C469.315 126.861 466.4 122.43 462.756 123.829C459.112 125.228 461.94 131.496 463.806 134.906L457.189 139.483C456.189 138.943 455.058 138.691 453.924 138.754C446.403 140.037 411.86 166.33 408.362 166.33C405.681 166.33 367.377 147.965 334.263 142.66C334.199 142.461 334.08 142.285 333.92 142.151C333.761 142.017 333.566 141.931 333.359 141.902C327.584 140.917 321.728 140.477 315.869 140.59C315.692 140.602 315.519 140.653 315.363 140.738C315.207 140.824 315.071 140.943 314.966 141.086H312.517C311.934 138.725 309.777 133.274 309.019 131.175C311.001 129.455 313.741 128.581 315.17 125.811C317.793 120.681 317.677 111.761 316.948 106.048C320.242 103.541 320.329 99.5181 319.571 95.4079C319.28 93.7463 318.376 89.986 316.977 89.0532C316.19 88.5285 314.528 89.0532 313.1 89.5779C311.672 86.2548 311.672 87.7706 312.255 86.4297C312.526 85.8117 312.683 85.1503 312.721 84.4767C314.266 84.9431 317.473 81.8532 316.365 77.7722C315.785 76.3112 315.072 74.9062 314.237 73.5746C314.645 72.5835 315.52 71.3883 312.779 67.7446C311.599 66.4716 310.067 65.5786 308.378 65.1793H307.037C306.07 63.7751 304.65 62.7459 303.014 62.2644C300.545 61.6348 297.928 62.0013 295.727 63.2846C295.144 63.7219 294.677 64.3049 294.094 64.713C292.776 63.9126 291.264 63.4894 289.722 63.4894C288.18 63.4894 286.667 63.9126 285.349 64.713C284.578 65.0157 283.875 65.4713 283.284 66.0524C282.693 66.6335 282.226 67.328 281.91 68.0944C280.481 67.6016 278.966 67.4118 277.46 67.5373C275.955 67.6628 274.492 68.1007 273.165 68.8231C268.129 71.5537 264.362 76.147 262.671 81.6199C262.624 82.4452 262.624 83.2725 262.671 84.0977H262.35C257.977 83.4564 252.41 93.8338 256.87 101.908C257.394 102.87 258.065 103.774 258.706 104.823C260.572 107.738 259.843 108.613 264.012 112.169C265.236 113.219 265.44 113.131 266.198 113.772C266.956 114.414 266.664 114.093 267.101 115.725C267.34 116.687 267.767 117.592 268.357 118.387C268.947 119.183 269.69 119.854 270.541 120.36C270.851 123.212 272.067 125.888 274.01 127.998C274.625 128.686 275.343 129.276 276.138 129.747C276.352 129.867 276.592 129.937 276.838 129.951C277.712 135.373 278.791 142.427 279.257 145.429L276.663 146.829C273.268 148.194 269.967 149.782 266.781 151.58C266.531 151.753 266.354 152.013 266.285 152.309C263.195 153.941 260.28 155.486 258.619 156.477C235.474 170.207 169.74 260.718 169.07 264.857C168.996 265.094 168.996 265.348 169.07 265.586C170.012 267.089 171.16 268.453 172.481 269.637C172.074 270.38 171.585 271.074 171.023 271.707C165.193 275.526 156.448 281.21 151.755 286.282C151.426 286.576 151.179 286.95 151.038 287.368C150.898 287.786 150.869 288.233 150.954 288.666C151.04 289.099 151.236 289.501 151.525 289.835C151.814 290.168 152.184 290.421 152.6 290.567C153.475 290.859 153.62 290.771 159.305 287.652C157.743 289.022 156.465 290.686 155.544 292.549C155.165 294.153 156.623 295.085 158.459 294.794C159.493 294.523 160.477 294.09 161.374 293.511C160.849 294.323 160.569 295.27 160.569 296.237C160.569 297.204 160.849 298.151 161.374 298.962C164.289 302.635 171.927 291.063 175.949 288.206C177.582 290.276 179.797 295.115 183.324 293.832C186.385 292.695 183.033 285.961 183.324 284.008C184.51 282.87 185.777 281.817 187.114 280.86C189.362 282.528 191.934 283.709 194.664 284.329C199.473 284.329 249.67 233.666 253.488 229.615C252.118 242.499 245.21 297.796 246.667 308.553C247.338 313.421 259.027 314.12 263.953 314.383C262.467 349.363 261.475 402.357 261.213 402.911C253.488 419.556 251.39 424.103 248.795 429.146C244.073 438.183 224.193 471.53 221.948 479.109C221.627 480.305 221.598 480.771 222.852 482.986C219.095 486.935 215.609 491.133 212.416 495.55C210.813 498.465 217.692 525.633 222.56 535.252C223.668 537.409 225.475 540.732 227.895 540.645C235.182 540.383 235.153 514.206 234.949 506.889C234.948 506.664 234.865 506.446 234.716 506.277C236.037 504.306 237.478 502.417 239.03 500.622C239.957 501.26 240.931 501.825 241.945 502.313C242.936 502.75 244.044 501.992 244.86 501.322C254.567 493.684 306.92 428.447 318.143 397.664C323.244 383.614 330.036 364.2 331.96 350.441C333.136 341.742 333.244 332.932 332.281 324.206C332.281 324.083 332.33 323.964 332.417 323.876C332.505 323.789 332.624 323.74 332.747 323.74C332.871 323.74 332.99 323.789 333.077 323.876C333.165 323.964 333.214 324.083 333.214 324.206C334.673 332.981 334.958 341.912 334.059 350.762C331.902 369.855 316.831 409.645 308.786 424.278C315.724 422.996 329.832 420.197 336.653 418.157C359.39 411.248 380.378 390.639 382.215 367.494C382.809 356.59 382.809 345.662 382.215 334.759C382.018 319.706 380.061 304.728 376.385 290.13C382.565 286.778 388.22 282.842 390.056 279.228C393.991 271.503 383.585 227.049 381.311 214.573C393.758 215.943 414.95 218.421 424.832 210.696C436.142 201.601 460.57 176.008 474.591 156.331ZM233.375 505.286C228.128 502.109 220.782 494.559 219.674 488.641C220.87 487.126 222.123 485.726 223.289 484.152C227.239 490.181 232.165 495.51 237.864 499.922C236.263 501.62 234.764 503.411 233.375 505.286ZM465.117 135.722C465.268 135.626 465.376 135.476 465.42 135.302C465.463 135.129 465.438 134.945 465.351 134.79C464.33 132.895 461.27 126.219 463.398 125.462C464.622 124.995 465.7 125.753 466.604 126.773C467.984 128.524 469.058 130.495 469.781 132.603C469.835 132.775 469.935 132.928 470.069 133.047C470.204 133.167 470.368 133.247 470.545 133.28C470.722 133.313 470.904 133.297 471.072 133.234C471.241 133.172 471.389 133.064 471.501 132.924C474.416 129.688 481.237 122.313 485.085 120.331C488 118.815 488.7 121.614 481.558 128.143C479.918 129.394 478.342 130.727 476.836 132.137C476.753 132.251 476.708 132.389 476.708 132.53C476.708 132.672 476.753 132.81 476.836 132.924C476.836 133.682 477.448 134.527 478.497 133.74C481.031 131.516 483.709 129.461 486.514 127.59C487.945 126.573 489.609 125.931 491.352 125.724C490.478 128.406 482.345 135.693 481.645 136.509C481.424 136.708 481.289 136.986 481.27 137.284C481.251 137.581 481.349 137.874 481.544 138.099C481.739 138.325 482.015 138.465 482.312 138.489C482.609 138.513 482.903 138.42 483.132 138.229C486.368 136.13 492.023 131.233 493.976 131.962C495.929 132.691 490.128 138.113 488.671 139.395C480.305 146.654 482.462 141.99 472.784 151.842C468.571 147.228 463.734 143.224 458.413 139.949L465.117 135.722ZM338.461 275.147C337.965 271.124 337.353 266.781 336.595 262.263L337.848 260.601C343.678 253.109 345.427 241.187 344.874 231.83C347.993 245.501 350.47 258.939 352.365 272.29L338.461 275.147ZM295.115 175.337C287.448 169.507 275.118 159.45 267.947 152.571L279.607 146.741C290.314 156.742 299.479 168.275 306.804 180.963C318.004 201.538 326.312 223.56 331.494 246.405L289.926 187.609L295.348 176.357C295.42 176.184 295.436 175.993 295.394 175.81C295.352 175.627 295.255 175.462 295.115 175.337ZM314.82 142.281C314.995 142.602 317.006 146.887 320.067 154.378C320.067 154.699 319.513 161.987 319.251 164.552C315.53 163.077 312.021 161.117 308.815 158.722C309.456 156.186 312.342 144.671 312.546 142.077L314.82 142.281ZM304.472 173.588C304.676 173.064 304.88 172.364 305.113 171.548L307.066 172.568C308.174 173.297 307.737 171.081 308.728 177.494C308.728 178.573 309.019 179.768 309.077 181.08C307.737 178.66 306.075 176.066 304.501 173.588H304.472ZM302.839 171.14C297.332 163.328 291.063 156.083 284.125 149.51L306.075 159.042C305.23 161.054 304.005 167.204 302.868 171.14H302.839ZM325.256 188.222C322.341 180.264 320.096 171.373 318.988 169.041C319.054 168.314 319.054 167.582 318.988 166.855C319.41 167.012 319.852 167.11 320.3 167.146C320.581 167.149 320.854 167.051 321.069 166.869C321.283 166.686 321.424 166.433 321.466 166.155C321.699 165.193 322.078 160.325 322.137 159.246C330.616 180.656 337.695 202.594 343.329 224.921C326.859 189.883 329.395 200.027 325.285 188.222H325.256ZM349.363 243.869C342.717 212.008 331.027 172.276 317.735 142.835C322.617 142.838 327.49 143.228 332.31 144.001C334.788 166.155 332.718 165.397 334.38 166.272C336.041 167.146 346.04 171.169 347.526 171.781C347.381 174.025 349.479 238.214 349.392 243.869H349.363ZM315.811 90.9188C317.331 94.235 317.867 97.9176 317.356 101.529C317.119 102.449 316.631 103.284 315.947 103.943C315.263 104.601 314.41 105.057 313.482 105.259C312.555 105.462 311.589 105.403 310.693 105.089C309.797 104.775 309.006 104.219 308.407 103.482C307.016 100.552 305.969 97.4712 305.288 94.3002C306.075 93.28 314.47 91.2395 315.811 90.9188ZM275.701 120.069C274.636 119.584 273.546 119.156 272.436 118.786C271.691 118.48 271.026 118.007 270.492 117.404C269.958 116.801 269.569 116.084 269.355 115.307C269.141 114.53 269.108 113.715 269.258 112.923C269.408 112.132 269.737 111.385 270.22 110.741C272.057 109.196 273.718 109.283 275.234 111.586C276.196 113.364 276.167 113.51 276.604 113.685C276.73 113.74 276.866 113.768 277.003 113.767C277.14 113.765 277.275 113.734 277.399 113.676C277.523 113.618 277.634 113.535 277.723 113.43C277.812 113.326 277.878 113.204 277.916 113.073C278.348 111.248 278.417 109.356 278.12 107.505C277.77 105.494 277.712 96.5739 277.77 96.2824C278.622 96.7312 279.578 96.9427 280.54 96.8946C285.816 96.6905 286.865 93.9796 288.964 91.7642C291.383 91.9974 291.879 93.1634 294.619 91.7642C295.902 91.0343 297.079 90.132 298.117 89.0824C298.955 89.4254 299.764 89.8348 300.536 90.3067C302.284 91.1468 304.254 91.4048 306.158 91.0428C308.063 90.6808 309.801 89.7178 311.118 88.2953C311.439 88.9075 311.73 89.5196 311.992 90.1609C309.314 90.9921 306.792 92.2629 304.53 93.9213C304.034 94.5334 304.763 97.8565 304.938 98.6436C302.496 98.9508 300.133 99.712 297.971 100.888C297.534 99.3723 296.572 96.5447 295.056 95.7577C294.6 95.6181 294.113 95.6181 293.657 95.7577C291.034 96.1658 281.618 98.9934 280.481 100.538C279.49 101.617 282.318 109.954 283.192 111.324C286.544 116.513 296.368 114.997 298.204 108.933C298.659 106.899 298.659 104.789 298.204 102.754C299.05 102.754 301.586 101.85 301.877 101.763C303.889 106.281 304.472 106.543 306.804 111.411C306.483 111.674 305.958 112.111 305.521 112.402C303.451 113.772 303.014 113.539 303.131 114.122C303.165 114.238 303.24 114.337 303.342 114.402C303.444 114.466 303.566 114.491 303.685 114.472C304.908 114.297 306.104 113.964 307.241 113.481C307.922 113.227 308.483 112.728 308.815 112.082C309.631 110.245 305.113 103.337 303.335 101.267C303.685 101.267 304.501 100.684 305.113 100.363C305.929 103.628 306.483 106.193 309.631 107.476C310.541 107.82 311.511 107.976 312.483 107.936C313.454 107.896 314.408 107.66 315.286 107.243C315.753 112.373 315.665 120.71 313.217 125.258C311.963 127.619 308.873 128.522 306.891 130.475C306.308 131.029 306.687 131.816 306.891 132.662C310.127 141.669 310.185 141.64 310.01 142.806C309.152 147.645 307.954 152.418 306.425 157.089C305.696 156.769 297.505 152.425 281.472 146.187C280.977 142.893 278.324 125.316 277.479 122.08C277.537 120.943 277.391 120.681 275.701 119.923V120.069ZM296.106 108.176C295.173 111.353 290.771 112.723 287.623 111.849C284.475 110.974 284.271 109.371 282.784 105.581C282.087 104.134 281.606 102.592 281.356 101.005C282.318 99.9553 292.841 97.7982 294.153 97.5942C295.992 100.742 296.683 104.43 296.106 108.03V108.176ZM182.042 283.192C180.934 284.271 182.421 287.798 182.654 290.859C182.654 291.121 182.654 292.258 182.479 292.345C180.876 292.87 179.389 290.451 178.485 288.993C177.582 287.536 176.678 285.553 175.25 286.078C172.335 287.448 165.572 296.426 162.919 297.359C161.578 294.794 169.245 287.477 169.507 287.069C169.62 286.882 169.679 286.667 169.678 286.449C169.677 286.23 169.616 286.016 169.501 285.83C169.387 285.643 169.224 285.492 169.03 285.392C168.836 285.292 168.618 285.247 168.4 285.262C167.875 285.262 167.525 285.728 166.709 286.457C164.226 288.88 161.385 290.905 158.284 292.462C161.095 289.237 164.104 286.19 167.292 283.338C167.449 283.176 167.56 282.975 167.612 282.755C167.612 282.755 167 281.21 165.805 281.822C164.114 282.755 155.894 287.506 153.3 288.731C152.95 288.498 153.154 288.148 153.3 287.798C157.41 282.755 166.446 276.633 171.985 272.757C172.635 272.087 173.176 271.32 173.588 270.483C177.424 274.052 181.516 277.335 185.831 280.306C184.502 281.178 183.235 282.142 182.042 283.192ZM249.874 309.69C249.232 309.281 248.766 308.903 248.679 308.378C247.075 296.485 255.995 229.09 255.85 226.437C255.85 226.282 255.818 226.128 255.758 225.984C255.698 225.841 255.609 225.711 255.498 225.602C255.386 225.494 255.254 225.408 255.11 225.351C254.965 225.295 254.81 225.267 254.654 225.271C253.168 225.271 255.791 225.271 218.654 260.834C216.206 263.137 197.491 281.035 194.372 282.23C190.087 281.91 173.967 269.054 171.344 265.003C176.416 254.742 237.922 170.323 259.202 157.41C260.834 156.419 263.633 154.874 266.693 153.242C267.752 154.24 268.893 155.147 270.104 155.952C276.867 162.365 286.282 170.353 293.424 176.357L287.856 187.405C287.772 187.552 287.727 187.717 287.727 187.886C287.727 188.055 287.772 188.221 287.856 188.367C333.068 253.226 332.397 252.497 332.689 252.497C335.587 267.485 337.39 282.664 338.082 297.913C338.082 302.023 338.082 301.673 338.257 301.382C338.431 301.09 338.257 301.586 338.257 301.586C331.202 309.281 261.388 316.452 249.874 309.69ZM411.015 213.116C397.81 214.952 382.885 212.212 379.999 212.095C378.396 204.324 375.2 196.97 370.613 190.495C370.543 190.401 370.44 190.336 370.324 190.315C370.209 190.293 370.09 190.316 369.99 190.379C369.891 190.441 369.819 190.539 369.788 190.652C369.758 190.766 369.771 190.887 369.826 190.991C371.517 194.43 377.172 209.268 378.571 212.882C378.134 214.282 391.747 270.57 387.899 278.149C384.459 285 364.433 293.628 357.204 296.106C355.775 279.878 353.439 263.742 350.208 247.775C351.199 239.38 349.917 189.475 349.538 171.023C349.527 170.809 349.455 170.602 349.331 170.426C349.207 170.251 349.036 170.114 348.838 170.032L335.75 164.523C335.69 157.595 335.252 150.676 334.438 143.797C367.115 149.452 405.185 168.137 408.362 168.166C412.968 168.166 447.19 141.931 454.274 140.882C457.422 140.386 470.947 152.192 472.522 155.457C458.704 174.754 434.422 200.115 423.171 208.889C419.546 211.312 415.361 212.768 411.015 213.116Z" fill="url(#paint1_linear_380_3795)"/>
<path d="M293.103 102.345C293.07 102.152 292.997 101.967 292.891 101.801C292.785 101.635 292.647 101.492 292.486 101.381C292.324 101.269 292.142 101.19 291.949 101.149C291.757 101.109 291.558 101.107 291.365 101.143C291.172 101.18 290.988 101.255 290.824 101.363C290.659 101.472 290.519 101.612 290.409 101.775C290.3 101.938 290.224 102.122 290.186 102.315C290.148 102.508 290.149 102.707 290.188 102.899C290.771 105.814 290.888 106.485 292.171 106.485C292.413 106.486 292.652 106.426 292.865 106.311C293.079 106.196 293.261 106.03 293.394 105.828C293.527 105.625 293.607 105.392 293.628 105.151C293.648 104.909 293.608 104.666 293.511 104.444C293.424 103.978 293.162 102.608 293.103 102.345ZM302.023 121.643C303.918 122.197 305.725 121.293 305.667 120.827C305.609 120.36 305.667 120.593 303.102 119.631C301.382 118.99 299.487 116.716 298.817 117.066C298.146 117.416 299.167 119.282 299.4 119.631C300.023 120.578 300.948 121.286 302.023 121.643ZM355.339 93.9502C351.52 109.954 348.722 123.537 348.255 126.248C347.945 127.428 347.886 128.659 348.08 129.863C349.625 133.157 369.593 139.657 372.129 138.375C374.665 137.092 381.253 122.255 388.919 106.951C393.616 107.101 398.315 106.759 402.941 105.931C407.811 105.037 412.55 103.539 417.049 101.471C426.902 96.9235 437.687 77.4513 439.145 67.6569C440.238 57.0231 437.986 46.3133 432.703 37.0203C408.246 -5.39298 336.508 17.4315 342.338 64.5379C344.003 75.3167 348.488 85.4637 355.339 93.9502ZM373.12 128.668C373.12 129.134 372.595 129.076 370.205 128.668C365.316 128.053 360.582 126.541 356.242 124.208C354.202 123.1 353.648 122.867 353.852 122.371C354.056 121.876 354.493 122.051 357.641 122.925C357.933 122.925 366.969 125.84 369.564 126.744C372.916 128.26 373.12 128.26 373.12 128.668ZM372.595 81.2408C375.708 81.4023 378.81 80.7598 381.603 79.3752C384.198 80.6327 387.006 81.3939 389.881 81.6198C384.984 90.7437 375.044 109.341 371.838 119.252L359.478 115.842C362.393 108.671 368.835 91.8806 372.537 81.2408H372.595ZM371.575 78.8214C369.399 78.4926 367.391 77.4592 365.859 75.8796C364.327 74.3 363.355 72.2613 363.093 70.0764C362.276 64.2464 366.008 57.7168 371.633 59.2617C375.161 60.2237 375.598 63.0221 374.986 66.5492C374.461 69.1144 372.566 75.5566 371.517 78.7048L371.575 78.8214ZM379.504 71.8254C379.815 69.9179 380.531 68.0991 381.603 66.4909C382.113 65.6143 382.858 64.8982 383.755 64.4242C384.652 63.9501 385.663 63.737 386.675 63.8091C388.832 64.4504 389.765 68.5314 387.987 71.0966C386.278 73.3645 384.15 75.2841 381.719 76.7517C380.883 76.2608 380.217 75.5256 379.81 74.645C379.404 73.7644 379.277 72.7804 379.446 71.8254H379.504ZM352.715 34.7757C365.774 19.0639 390.348 12.8258 408.1 19.2971C417.744 22.6075 425.856 29.3103 430.925 38.1571C435.95 46.9999 438.1 57.1876 437.075 67.3071C435.734 76.3728 425.415 95.2037 416.35 99.3721C408.061 103.153 399.017 104.988 389.911 104.736C388.919 104.736 387.87 104.736 387.491 105.435C385.771 108.933 382.623 115.696 379.533 122.051C377.399 121.021 375.187 120.163 372.916 119.486C376.297 109.808 386.966 90.802 392.038 81.5906C396.433 81.9671 400.851 81.2041 404.864 79.3752C405.949 78.8044 406.848 77.9361 407.456 76.8722C408.065 75.8084 408.357 74.5931 408.299 73.3689C408.241 72.1448 407.834 70.9627 407.128 69.9613C406.422 68.9599 405.444 68.1807 404.311 67.7152C399.792 65.4998 395.741 70.8051 393.379 75.2651C392.738 76.4311 392.009 77.8011 391.193 79.3461C388.835 79.1911 386.51 78.7105 384.285 77.9177C386.501 76.3598 388.467 74.4724 390.115 72.3209C391.038 70.9272 391.505 69.2814 391.453 67.6105C391.401 65.9397 390.831 64.3263 389.823 62.9929C389.031 62.0733 387.931 61.474 386.729 61.3077C385.527 61.1413 384.305 61.4192 383.293 62.0893C381.252 63.3437 379.616 65.1606 378.582 67.322C377.548 69.4834 377.159 71.8973 377.463 74.274C377.78 75.6155 378.503 76.8268 379.533 77.7428C377.621 78.5347 375.568 78.9314 373.499 78.9088C374.665 75.4691 376.56 69.2602 377.055 66.7241C377.366 65.2783 377.435 63.7909 377.259 62.3225C377.034 61.0619 376.449 59.8933 375.575 58.9573C374.701 58.0213 373.575 57.3577 372.333 57.0463C365.25 55.035 360.032 62.8763 361.052 70.193C361.34 72.815 362.466 75.2744 364.261 77.2066C366.057 79.1388 368.427 80.441 371.021 80.9202C367.29 91.4142 361.46 108.35 358.545 115.58L352.132 113.918C356.242 93.2798 356.738 93.7753 356.155 93.513C349.531 85.0683 345.294 75.0021 343.883 64.363C343.196 59.0876 343.627 53.7266 345.149 48.629C346.67 43.5313 349.249 38.8112 352.715 34.7757ZM393.175 79.521C395.216 75.8189 399.297 67.7152 403.261 69.6974C404.054 70.0169 404.745 70.5469 405.258 71.2301C405.772 71.9134 406.09 72.7239 406.176 73.5744C406.118 78.7048 398.131 79.6084 393.059 79.521H393.175ZM504.762 92.3761C508.274 90.3102 512.423 89.6049 516.421 90.3939C520.813 90.4725 525.009 92.2285 528.147 95.3018C531.285 98.3751 533.129 102.533 533.299 106.922C530.658 105.39 527.57 104.813 524.554 105.29C517.238 105.931 507.677 109.895 508.959 116.95C510.009 122.78 517.704 121.993 523.534 120.418C529.364 118.844 533.999 115.988 535.194 110.362C542.278 115.521 543.939 124.558 544.231 133.39C544.231 133.514 544.28 133.633 544.367 133.72C544.455 133.807 544.573 133.857 544.697 133.857C544.821 133.857 544.939 133.807 545.027 133.72C545.114 133.633 545.163 133.514 545.163 133.39C545.367 123.508 543.589 113.831 535.515 108.205C535.598 105.674 535.166 103.152 534.247 100.793C533.327 98.4337 531.938 96.2857 530.164 94.4788C528.39 92.672 526.267 91.244 523.925 90.2813C521.583 89.3186 519.07 88.8413 516.538 88.8781C512.492 88.2872 508.366 89.133 504.878 91.2684C503.8 91.7931 504.295 92.5802 504.762 92.3761ZM531.346 113.277C528.052 117.591 518.724 119.835 514.41 119.107C512.807 118.844 511.495 118.174 511.145 116.512C510.096 110.682 520.153 107.505 526.158 107.301C528.603 107.113 531.042 107.739 533.095 109.079C532.875 110.603 532.273 112.047 531.346 113.277ZM491.411 58.2998C494.53 54.452 492.431 47.7475 483.715 47.7183C480.334 47.7183 478.701 51.158 478.935 54.452C479.459 62.2933 488.292 62.0601 491.411 58.2998ZM480.975 54.3062C480.975 52.3823 481.879 49.8754 483.89 49.9046C488.583 49.9046 490.74 52.0908 490.74 54.5103C490.624 60.0196 480.596 62.8763 480.975 54.3062ZM479.78 384.78C454.157 374.548 442.264 424.074 421.334 466.633C421.202 468.422 421.261 470.22 421.509 471.997C421.509 476.457 422.005 505.985 424.599 509.338C425.299 510.679 428.243 509.338 429.613 508.492C441.249 501.289 452.214 493.055 462.377 483.89C462.464 483.791 462.529 483.675 462.57 483.55C462.61 483.424 462.624 483.292 462.611 483.161C468.033 475.436 488.35 435.209 493.276 415.037C496.716 400.754 493.306 390.114 479.78 384.78ZM488.933 421.8C475.216 420.043 461.953 415.711 449.843 409.033C456.664 396.119 465.088 381.398 478.993 386.937C494.472 393.088 494.151 405.826 488.933 421.713V421.8ZM440.427 497.59C439.532 496.84 438.554 496.194 437.512 495.666C433.573 493.664 429.022 493.226 424.774 494.442C424.482 490.973 422.821 468.411 422.821 468.207C444.654 476.194 437.921 472.725 459.55 483.482C457.276 485.639 448.735 491.614 440.427 497.532V497.59ZM455.469 413.23C458.312 414.783 461.231 416.194 464.214 417.457C457.532 427.952 451.628 438.922 446.549 450.28C441.652 460.511 441.827 460.453 436.842 471.618C433.927 470.685 431.012 469.81 428.097 468.936C431.245 462.669 453.632 416.845 455.469 413.172V413.23ZM437.979 471.909C447.453 454.915 457.101 433.781 465.38 417.836C468.295 419.06 471.21 420.051 474.125 420.926C472.58 423.841 468.062 431.595 466.867 433.839C465.671 436.084 453.691 459.695 452.845 461.503C451.504 464.418 447.832 472.55 446.695 475.145C443.721 473.833 440.865 472.842 437.862 471.851L437.979 471.909ZM447.744 475.524C449.522 472.288 456.839 458.704 457.743 456.955C459.113 454.244 474.387 423.025 475.233 421.217C477.914 421.975 480.742 422.616 482.549 422.966C477.215 437.541 461.853 465.613 456.314 479.459C451.271 477.098 450.134 476.515 447.628 475.465L447.744 475.524ZM449.522 409.878L454.74 412.793C444.225 430.7 435.066 449.369 427.339 468.644L422.967 467.303C439.903 431.216 440.69 426.493 449.406 409.82L449.522 409.878ZM461.532 481.995L457.13 479.896C461.882 470.568 476.748 446.636 483.54 423.17C485.173 423.462 486.776 423.724 488.321 423.928C480.83 443.916 471.836 463.308 461.415 481.937L461.532 481.995ZM370.205 500.913C371.367 499.951 372.197 498.649 372.579 497.19C372.961 495.73 372.875 494.188 372.333 492.78C372.086 490.749 371.154 488.863 369.692 487.432C368.23 486.001 366.324 485.11 364.288 484.907C362.252 484.703 360.208 485.199 358.491 486.312C356.774 487.425 355.488 489.09 354.843 491.032C351.112 488.612 347.06 486.047 343.183 483.598C346.098 479.721 354.668 481.441 355.543 484.619C355.565 484.74 355.634 484.847 355.734 484.918C355.834 484.989 355.958 485.019 356.08 485C356.202 484.981 356.311 484.915 356.385 484.817C356.459 484.718 356.491 484.595 356.475 484.473C356.038 479.401 345.486 476.427 341.23 482.403C337.47 480.1 332.806 477.302 328.9 475.174C332.252 472.259 339.743 473.891 340.56 476.923C340.598 477.027 340.672 477.113 340.768 477.168C340.865 477.222 340.977 477.24 341.086 477.219C341.194 477.198 341.292 477.139 341.361 477.053C341.43 476.967 341.466 476.859 341.463 476.748C341.084 472.026 331.319 468.848 326.888 474.037C325.032 472.997 323.079 472.138 321.058 471.472C320.689 471.319 320.283 471.276 319.89 471.348C319.497 471.421 319.133 471.605 318.843 471.88C311.468 481.062 286.603 504.907 275.118 507.676C274.829 507.72 274.557 507.838 274.329 508.021C274.1 508.203 273.924 508.442 273.818 508.714C273.712 508.986 273.679 509.281 273.723 509.569C273.767 509.858 273.886 510.13 274.068 510.358C276.59 512.918 279.479 515.089 282.639 516.8C279.724 519.715 277.45 522.339 275.759 524.233C274.885 525.166 274.418 543.006 275.176 546.941C275.289 547.326 275.537 547.658 275.876 547.874C279.549 550.381 326.859 570.844 331.698 568.104C334.934 566.268 373.557 526.07 374.17 524.846C375.102 522.922 374.782 510.096 374.723 504.965C374.49 503.42 371.604 501.759 370.205 500.913ZM276.925 539.42V532.92C289.022 538.75 316.715 550.643 327.209 553.966C329.891 554.841 330.124 554.724 331.523 553.966C339.539 548.836 367.844 516.946 373.033 512.078V518.228C357.292 533.999 330.561 561.633 330.066 560.059C327.18 559.884 279.432 540.586 276.925 539.42ZM369.476 491.09C370.524 492.855 371.087 494.867 371.109 496.92C371.099 497.573 370.938 498.215 370.64 498.797C370.342 499.378 369.914 499.883 369.389 500.272C366.94 498.64 362.305 495.608 356.825 492.052C359.828 486.134 366.503 486.047 369.36 491.09H369.476ZM276.196 509.746C288.614 506.073 312.197 483.336 320.125 473.483C322.034 474.014 323.873 474.768 325.606 475.728C322.691 481.15 325.81 487.096 326.917 486.251C327.53 485.785 326.422 485.61 326.247 482.753C326.172 480.666 326.645 478.596 327.617 476.748C331.64 478.847 336.362 481.587 340.356 483.89C337.907 489.341 340.851 494.734 341.871 493.946C342.892 493.159 341.405 493.334 341.23 490.478C341.159 488.604 341.518 486.74 342.279 485.027C346.39 487.446 350.587 489.953 354.435 492.314C353.842 493.767 353.607 495.34 353.749 496.903C353.891 498.465 354.406 499.971 355.251 501.292C355.328 501.393 355.443 501.458 355.568 501.475C355.694 501.491 355.821 501.457 355.922 501.38C356.022 501.302 356.088 501.188 356.104 501.063C356.121 500.937 356.086 500.81 356.009 500.709C355.485 499.551 355.226 498.291 355.252 497.02C355.277 495.749 355.585 494.5 356.155 493.363C362.947 497.503 368.427 500.972 370.118 502.108C369.797 502.4 339.394 529.451 329.045 537.497C322.253 535.718 286.603 518.024 276.196 509.746ZM277.304 525.982C290.509 531.812 320.504 545.338 327.413 546.65C328.608 546.883 329.074 546.97 331.348 545.163C341.055 537.38 372.625 504.353 372.916 504.703C372.93 504.79 372.93 504.878 372.916 504.965V510.795C366.416 516.013 330.27 553.966 329.687 552.159C326.772 552.159 279.403 532.833 276.983 531.754C276.925 530.53 277.187 527.265 277.304 525.982ZM330.386 566.151C327.471 567.813 283.076 549.769 277.129 546.096C276.906 544.239 276.799 542.37 276.809 540.499C289.576 546.795 326.713 562.478 330.124 562.332C335.109 562.07 370.351 522.397 372.858 519.628C372.887 521.117 372.74 522.604 372.421 524.058C371.925 525.02 332.31 565.072 330.386 566.151ZM88.8785 401.833C89.0825 404.952 89.2283 407.662 89.2283 410.199C89.2283 410.585 89.3818 410.956 89.6552 411.229C89.9285 411.503 90.2992 411.656 90.6858 411.656C91.0723 411.656 91.443 411.503 91.7164 411.229C91.9897 410.956 92.1433 410.585 92.1433 410.199C92.1433 407.488 91.9975 404.806 91.7935 401.628C91.7664 401.242 91.5869 400.882 91.2944 400.628C91.002 400.374 90.6205 400.246 90.234 400.273C89.8474 400.3 89.4874 400.48 89.2332 400.772C88.979 401.064 88.8514 401.446 88.8785 401.833ZM533.037 343.387C532.847 343.398 532.66 343.447 532.489 343.531C532.318 343.615 532.166 343.733 532.041 343.876C531.916 344.02 531.821 344.188 531.762 344.369C531.703 344.55 531.68 344.742 531.696 344.932C531.871 347.614 532.046 350.499 532.046 353.298C532.046 353.684 532.199 354.055 532.473 354.328C532.746 354.602 533.117 354.755 533.503 354.755C533.89 354.755 534.261 354.602 534.534 354.328C534.807 354.055 534.961 353.684 534.961 353.298C534.961 350.383 534.786 347.468 534.582 344.728C534.571 344.537 534.522 344.351 534.438 344.18C534.354 344.009 534.236 343.856 534.092 343.731C533.948 343.606 533.781 343.512 533.599 343.452C533.418 343.393 533.227 343.371 533.037 343.387ZM81.3286 394.574C81.7152 394.574 82.0859 394.421 82.3592 394.147C82.6326 393.874 82.7861 393.503 82.7861 393.117C82.7861 392.73 82.6326 392.359 82.3592 392.086C82.0859 391.813 81.7152 391.659 81.3286 391.659C77.8015 391.659 74.8573 391.922 71.9423 391.863C71.553 391.863 71.1793 392.016 70.9013 392.288C70.6233 392.561 70.4633 392.932 70.4557 393.321C70.4557 393.707 70.6092 394.078 70.8826 394.351C71.1559 394.625 71.5266 394.778 71.9132 394.778C74.9156 394.837 78.2096 394.72 81.3286 394.574ZM524 334.758C520.502 334.758 517.558 334.962 514.614 334.992C514.228 334.992 513.857 335.145 513.584 335.418C513.31 335.692 513.157 336.063 513.157 336.449C513.157 336.836 513.31 337.206 513.584 337.48C513.857 337.753 514.228 337.907 514.614 337.907C517.762 337.907 521.027 337.907 524.175 337.673C524.556 337.643 524.91 337.464 525.161 337.176C525.412 336.887 525.539 336.512 525.517 336.13C525.494 335.749 525.322 335.391 525.039 335.135C524.755 334.878 524.382 334.743 524 334.758ZM88.0914 376.559C88.2663 379.241 88.4412 382.127 88.4412 384.926C88.4487 385.31 88.6046 385.676 88.8764 385.948C89.1481 386.22 89.5145 386.376 89.8987 386.383C90.2853 386.383 90.656 386.229 90.9293 385.956C91.2027 385.683 91.3562 385.312 91.3562 384.926C91.3562 382.011 91.1813 379.096 91.0064 376.355C90.9794 375.969 90.7999 375.609 90.5074 375.355C90.2149 375.1 89.8335 374.973 89.4469 375C89.0603 375.027 88.7004 375.207 88.4462 375.499C88.192 375.791 88.0644 376.173 88.0914 376.559ZM534.174 328.025C534.174 325.11 533.999 322.195 533.795 319.455C533.768 319.068 533.588 318.708 533.296 318.454C533.003 318.2 532.622 318.072 532.235 318.099C531.849 318.126 531.489 318.306 531.235 318.598C530.98 318.891 530.853 319.272 530.88 319.659C531.055 322.34 531.23 325.226 531.23 328.025C531.23 328.411 531.383 328.782 531.657 329.055C531.93 329.329 532.301 329.482 532.687 329.482C533.077 329.482 533.45 329.33 533.728 329.057C534.006 328.785 534.166 328.414 534.174 328.025ZM109.604 394.195C109.796 394.188 109.984 394.143 110.158 394.062C110.332 393.982 110.488 393.868 110.618 393.727C110.748 393.587 110.849 393.422 110.915 393.242C110.981 393.062 111.011 392.871 111.003 392.679C110.974 392.298 110.801 391.942 110.52 391.682C110.239 391.423 109.87 391.279 109.488 391.28C105.96 391.426 103.016 391.543 100.072 391.484C99.6855 391.484 99.3148 391.638 99.0415 391.911C98.7681 392.184 98.6146 392.555 98.6146 392.942C98.6146 393.328 98.7681 393.699 99.0415 393.972C99.3148 394.246 99.6855 394.399 100.072 394.399C103.191 394.458 106.456 394.341 109.604 394.195ZM552.276 334.379C549.361 334.525 546.125 334.613 542.89 334.613C542.697 334.605 542.505 334.636 542.325 334.704C542.145 334.772 541.981 334.876 541.842 335.01C541.703 335.143 541.592 335.303 541.517 335.481C541.442 335.658 541.403 335.848 541.403 336.041C541.403 336.43 541.556 336.804 541.828 337.082C542.101 337.36 542.471 337.52 542.861 337.528C546.184 337.528 548.865 337.528 552.393 337.294C552.584 337.287 552.772 337.242 552.946 337.161C553.12 337.081 553.277 336.967 553.407 336.827C553.536 336.686 553.637 336.521 553.703 336.341C553.77 336.161 553.8 335.97 553.792 335.779C553.756 335.4 553.581 335.047 553.302 334.789C553.022 334.531 552.657 334.385 552.276 334.379ZM42.6174 307.824C42.9964 308.115 125.199 295.931 128.727 293.773C128.922 293.631 129.078 293.441 129.18 293.222C129.282 293.003 129.326 292.761 129.31 292.52C129.31 288.76 124.383 253.459 122.022 244.656C121.731 243.577 121.439 242.499 120.769 242.12C116.309 239.438 37.7202 254.246 33.0271 257.278C32.8999 257.353 32.79 257.454 32.7046 257.575C32.6192 257.695 32.5602 257.832 32.5315 257.977C31.5404 261.504 40.0814 306.075 42.6174 307.824ZM34.3097 258.677C39.9065 256.141 111.237 243.082 119.399 244.102C121.381 249.203 126.686 286.573 127.036 292.054C122.984 293.249 43.7251 306.862 43.4336 306.92C43.1421 306.978 43.113 307.328 42.5008 305.492C39.9356 297.796 34.1639 265.265 34.3097 258.677Z" fill="url(#paint2_linear_380_3795)"/>
<path d="M135.139 296.368C135.298 296.073 135.369 295.74 135.344 295.406C135.344 290.771 128.697 239.321 126.336 235.211C126.151 234.908 125.889 234.66 125.577 234.491C125.264 234.322 124.913 234.238 124.558 234.249C114.793 233.054 32.4149 249.145 26.993 252.905C26.2351 253.43 26.3517 254.742 26.4391 256.141C26.9055 263.807 35.1841 314.237 38.0991 313.945C38.4198 313.945 38.3032 313.712 37.5453 315.257C32.9979 324.614 24.3695 354.58 24.5444 360.615C24.5444 363.151 25.1274 366.445 27.6343 366.27C45.6198 364.054 133.799 350.062 159.159 344.844C160.15 344.64 160.791 343.737 160.762 342.25C160.463 339.773 159.712 337.372 158.547 335.167C154.991 328.491 140.241 302.052 135.139 296.368ZM38.274 313.042C36.0003 310.127 27.6343 259.901 28.2756 254.334C34.6886 251.011 115.959 235.299 124.471 236.581C126.803 242.994 132.837 289.314 133.216 294.881C122.896 298.438 51.4498 309.981 38.274 313.042ZM39.5566 313.916C42.0052 313.304 125.403 299.341 133.041 297.33C137.209 301.207 156.04 334.7 157.264 337.557C140.532 340.472 41.2765 357.058 26.6723 359.274C26.8764 350.441 35.942 319.571 39.5566 313.916Z" fill="url(#paint3_linear_380_3795)"/>
<path d="M50.5171 344.145C53.0531 343.766 106.864 337.295 126.307 332.018C126.427 331.987 126.53 331.91 126.592 331.804C126.655 331.697 126.673 331.57 126.642 331.45C126.611 331.33 126.534 331.227 126.428 331.165C126.321 331.102 126.194 331.084 126.074 331.115C122.255 331.902 75.6735 338.111 50.4588 343.241C50.3891 343.229 50.3175 343.232 50.2494 343.251C50.1813 343.271 50.1185 343.305 50.0657 343.352C50.0129 343.399 49.9715 343.458 49.9446 343.523C49.9178 343.589 49.9062 343.66 49.9108 343.73C49.9153 343.801 49.9359 343.869 49.9709 343.931C50.006 343.992 50.0545 344.045 50.113 344.085C50.1714 344.125 50.2381 344.151 50.3082 344.162C50.3782 344.172 50.4496 344.166 50.5171 344.145ZM89.8404 141.319C88.7515 143.778 87.8359 146.311 87.1003 148.898C87.057 149.313 87.1714 149.729 87.421 150.064C90.3651 154.495 120.535 188.513 128.406 193.293C129.484 193.964 130.767 194.43 131.554 193.468C137.271 186.354 144.733 180.841 153.213 177.465C160.114 175.023 167.35 173.657 174.667 173.413C180.497 172.888 181.517 172.305 183.762 168.487C186.409 163.461 189.922 158.942 194.139 155.136C199.516 150.435 205.484 146.456 211.891 143.301C212.18 143.138 212.405 142.883 212.532 142.576C212.659 142.27 212.68 141.93 212.591 141.611C211.606 139.103 210.303 136.732 208.714 134.556C209.764 134.206 210.93 133.886 210.93 132.836C210.93 129.921 185.511 93.1341 178.456 86.1964C177.728 85.4676 176.678 84.5057 175.716 84.564C161.141 85.3802 146.945 99.139 138.725 111.149C129.31 110.799 123.217 109.954 112.49 114.472C104.917 117.686 98.0894 122.43 92.4348 128.406C91.5603 129.309 85.6137 135.606 85.5262 136.101C85.4388 136.597 85.6137 136.597 89.8404 141.319ZM206.44 140.503C194.285 142.572 186.531 152.688 180.818 163.677C178.282 168.574 178.515 168.807 175.833 168.749C171.143 168.484 166.439 168.659 161.783 169.274C158.367 169.784 155.009 170.624 151.755 171.781C144.351 174.404 135.868 182.799 131.35 189.038C131.254 189.166 131.132 189.272 130.992 189.35C130.852 189.428 130.697 189.476 130.537 189.489C130.378 189.503 130.217 189.483 130.066 189.43C129.914 189.377 129.776 189.293 129.659 189.183C120.186 179.418 103.424 162.278 95 152.425C94.5919 151.988 95.2915 151.347 95.6996 151.813C101.151 157.643 115.23 171.606 130.33 186.793C135.431 180.293 143.302 172.422 151.085 169.682C155.329 168.168 159.745 167.189 164.231 166.767C168.433 166.448 172.652 166.448 176.853 166.767C178.573 164.785 187.085 142.281 206.382 139.774C206.439 139.816 206.485 139.869 206.518 139.931C206.551 139.993 206.569 140.061 206.572 140.131C206.575 140.201 206.562 140.271 206.534 140.336C206.506 140.4 206.464 140.457 206.411 140.503H206.44ZM175.687 86.9251C181.517 91.0061 205.245 126.132 208.335 132.283C202.974 133.981 197.797 136.218 192.886 138.958C188.234 141.29 184.162 144.629 180.965 148.734C177.768 152.839 175.527 157.605 174.405 162.686C163.94 145.662 149.336 126.919 139.629 113.131C140.212 112.752 156.594 88.062 175.687 86.9251ZM113.131 116.075C123.771 111.79 129.659 112.781 138.463 113.16C147.208 128.085 162.919 149.131 173.268 162.919C163.717 160.659 153.666 162.041 145.08 166.796C139.92 169.711 133.624 176.707 129.747 181.05C124.15 176.561 91.8518 142.164 86.6631 136.334C94.6502 127.298 102.025 120.506 113.131 115.959V116.075ZM59.7868 190.204C59.0663 189.698 58.2146 189.412 57.335 189.381C56.4553 189.35 55.5856 189.575 54.8313 190.029C54.282 190.274 53.7863 190.624 53.3725 191.061C52.9588 191.498 52.6351 192.011 52.4199 192.573C52.2047 193.135 52.1022 193.733 52.1183 194.335C52.1345 194.936 52.2689 195.528 52.5139 196.077C52.7589 196.627 53.1097 197.122 53.5462 197.536C53.9828 197.95 54.4966 198.274 55.0582 198.489C55.6199 198.704 56.2184 198.806 56.8197 198.79C57.421 198.774 58.0132 198.64 58.5625 198.395C59.44 198.203 60.2385 197.749 60.8521 197.093C61.4657 196.437 61.8654 195.61 61.9982 194.721C62.1309 193.833 61.9906 192.925 61.5956 192.118C61.2007 191.311 60.5699 190.644 59.7868 190.204ZM57.8629 196.034C55.8224 196.675 54.5981 196.034 54.1025 195.042C53.1697 192.973 54.3357 189.795 57.3673 190.728C59.4953 191.515 61.2151 195.101 57.8629 196.179V196.034ZM208.015 56.8132C208.86 58.533 212.795 57.8917 214.515 57.3379C215.419 57.0464 216.002 56.7257 216.089 55.8512C216.351 53.665 216.643 34.7175 215.652 32.881C215.549 32.6885 215.392 32.5304 215.201 32.4267C215.009 32.323 214.791 32.2782 214.573 32.298C211.463 32.2894 208.369 32.7413 205.391 33.6389C204.196 34.3677 206.965 54.8893 208.015 56.8132ZM206.003 34.3385C208.696 33.9533 211.419 33.8264 214.136 33.9596C214.311 36.1167 213.845 54.8018 213.815 55.0933C212.584 55.5347 211.269 55.694 209.968 55.5597C209.764 54.8893 209.414 53.082 208.977 50.8083C207.692 45.3754 206.7 39.8776 206.003 34.3385ZM56.9592 165.601C57.2389 165.744 57.5487 165.819 57.8629 165.819C58.1771 165.819 58.4869 165.744 58.7665 165.601C59.8927 164.906 60.7859 163.891 61.3317 162.686C61.4059 162.493 61.4287 162.284 61.3981 162.08C61.3674 161.876 61.2843 161.683 61.1568 161.52C59.7576 159.858 44.483 142.164 42.6174 143.272C40.3269 144.755 38.1537 146.412 36.117 148.228C36.0349 148.301 35.9691 148.391 35.924 148.491C35.8788 148.592 35.8552 148.7 35.8546 148.811C35.7963 150.326 52.7616 163.91 56.9592 165.601ZM42.9672 144.03C45.0952 145.575 52.2661 154.437 58.9123 162.278C58.6264 162.728 58.2724 163.131 57.8629 163.473C50.8752 159.001 44.2036 154.053 37.8951 148.665C39.4766 147.004 41.1713 145.456 42.9672 144.03ZM88.7619 79.7251C89.4032 68.4149 95.9911 63.1679 102.87 61.827C100.917 68.9979 101.238 78.3259 108.322 79.521C111.703 80.0749 113.364 78.3259 115.813 76.2854C126.278 67.5404 117.824 58.7954 106.019 59.4075C110.42 47.3394 120.594 37.5159 134.09 37.1952C134.214 37.1952 134.332 37.1461 134.42 37.0586C134.507 36.9712 134.557 36.8525 134.557 36.7288C134.557 36.6051 134.507 36.4865 134.42 36.399C134.332 36.3116 134.214 36.2624 134.09 36.2624C119.515 35.9709 108.059 46.4649 103.541 59.5824C95.7579 60.9233 88.0331 66.7533 87.8291 79.5502C87.814 79.6128 87.8118 79.6779 87.8227 79.7414C87.8335 79.8049 87.8572 79.8656 87.8922 79.9197C87.9272 79.9738 87.9728 80.0201 88.0264 80.056C88.0799 80.0919 88.1401 80.1166 88.2035 80.1284C88.2668 80.1403 88.3319 80.1392 88.3948 80.1251C88.4576 80.111 88.517 80.0843 88.5692 80.0466C88.6215 80.0089 88.6655 79.9609 88.6986 79.9056C88.7317 79.8504 88.7533 79.7889 88.7619 79.7251ZM105.348 61.4772C109.692 61.1857 116.163 62.5266 117.941 66.4618C118.961 68.7064 117.941 71.4756 114.326 74.5072C113.345 75.4903 112.226 76.325 111.003 76.985C106.631 78.8506 101.792 73.4578 105.348 61.4772ZM113.685 473.746C110.869 472.991 107.93 472.808 105.042 473.206C102.154 473.604 99.3743 474.576 96.8673 476.065C94.3603 477.553 92.1763 479.528 90.4439 481.873C88.7115 484.218 87.4657 486.886 86.7797 489.72C85.4847 495.607 86.5815 501.768 89.8287 506.846C93.0759 511.925 98.2076 515.505 104.095 516.8C109.982 518.095 116.142 516.998 121.221 513.751C126.3 510.504 129.88 505.372 131.175 499.485C131.728 496.646 131.714 493.725 131.133 490.891C130.552 488.057 129.416 485.366 127.79 482.973C126.164 480.581 124.081 478.533 121.66 476.95C119.239 475.366 116.529 474.277 113.685 473.746ZM122.692 497.503C121.523 502.168 118.723 506.26 114.799 509.04C110.874 511.82 106.085 513.105 101.296 512.661C96.9005 510.943 93.2512 507.73 90.9906 503.588C88.7299 499.445 88.0026 494.637 88.9368 490.011C90.0275 485.233 92.8016 481.008 96.7516 478.107C100.702 475.205 105.564 473.823 110.449 474.212C114.889 476.046 118.539 479.387 120.757 483.648C122.975 487.908 123.619 492.814 122.576 497.503H122.692Z" fill="url(#paint4_linear_380_3795)"/>
<path d="M152.513 482.054C149.975 481.178 147.255 480.967 144.613 481.441C143.518 478.931 142.17 476.538 140.59 474.3C142.485 472.58 147.674 467.799 146.42 465.555C141.96 460.219 136.663 455.641 130.738 452C128.263 450.614 125.539 449.732 122.722 449.406C120.856 449.668 116.425 456.926 115.434 458.559C114.793 458.559 112.519 457.83 112.344 457.742C112.344 455.644 111.732 448.065 109.837 447.19C107.718 446.41 105.518 445.872 103.278 445.587C101.209 445.266 82.582 448.677 81.2119 451.184C80.3083 452.874 82.4071 459.258 83.0192 461.036C81.4471 461.902 79.9373 462.876 78.501 463.951C75.586 466.021 76.373 465.934 75.8483 465.7C75.2141 465.398 74.5347 465.201 73.837 465.117C71.5084 463.752 68.7782 463.237 66.1122 463.66C63.4304 464.534 57.1049 478.935 56.0846 482.637C55.7507 483.57 55.6604 484.573 55.8223 485.552C56.5219 487.475 61.1859 489.02 63.1389 489.633C62.5996 493.383 62.5996 497.192 63.1389 500.943C60.5737 501.642 55.2393 503.216 55.5308 505.84C55.8223 508.463 62.6434 525.779 65.4709 527.149C67.0199 528.015 68.7327 528.548 70.4997 528.714C72.2667 528.879 74.0488 528.674 75.7317 528.111C76.6796 527.637 77.5949 527.102 78.4718 526.507C79.6378 527.382 80.8621 528.169 82.1156 528.927C81.2119 531.171 79.2006 536.185 79.8419 538.459C80.1625 539.654 81.1245 540.033 82.4654 540.528C86.1674 541.869 106.106 546.65 109.138 546.125C110.274 545.95 110.887 544.755 111.236 543.618C111.884 541.031 112.265 538.384 112.373 535.719C113.87 535.571 115.359 535.347 116.833 535.048C117.734 536.633 118.885 538.06 120.244 539.275C121.73 540.324 122.984 539.8 124.675 538.721C125.491 539.771 126.715 541.228 128.027 541.374C131.321 541.753 144.934 528.927 146.333 526.303C147.499 524.117 143.243 520.211 141.348 518.491C143.398 515.407 145.007 512.051 146.129 508.522C148.231 508.839 150.359 508.956 152.484 508.872C153.446 508.872 154.553 508.522 154.961 507.618C156.74 503.566 156.215 488.204 154.961 484.298C154.787 483.161 153.475 482.403 152.513 482.054ZM153.212 484.735C154.204 488.525 154.524 502.838 153.067 506.54C150.546 506.788 148.003 506.67 145.517 506.19C145.251 506.144 144.978 506.2 144.752 506.346C144.525 506.491 144.361 506.716 144.293 506.977C143.132 510.918 141.329 514.641 138.958 517.996C138.789 518.218 138.713 518.497 138.746 518.774C138.778 519.051 138.917 519.305 139.133 519.482C141.178 521.103 142.916 523.077 144.263 525.312C142.806 527.702 131.408 538.138 128.26 539.013C127.794 539.013 126.511 537.264 126.19 536.797C125.114 535.179 124.14 533.495 123.275 531.754C123.149 531.501 122.933 531.303 122.668 531.201C122.404 531.098 122.111 531.098 121.847 531.2C113.394 534.378 110.187 532.512 110.187 534.611C110.191 537.753 109.679 540.875 108.671 543.852C101.821 543.107 95.0747 541.601 88.5577 539.362C88.8725 536.25 89.7412 533.22 91.1229 530.413C91.9974 528.46 88.4994 529.014 81.9698 522.368C81.7597 522.173 81.4838 522.065 81.1973 522.065C80.9109 522.065 80.635 522.173 80.4249 522.368C77.5099 524.758 73.7204 527.09 72.9625 526.711C71.4758 525.983 64.6256 510.446 64.2175 507.297C66.2908 505.853 68.6444 504.86 71.126 504.382C71.3907 504.308 71.6192 504.139 71.7693 503.909C71.9194 503.678 71.9808 503.401 71.9422 503.129C71.2278 499.001 71.2278 494.781 71.9422 490.653C71.9868 490.399 71.9333 490.137 71.7927 489.921C71.6521 489.704 71.4347 489.549 71.1843 489.487C68.9868 488.911 66.8711 488.059 64.8879 486.951C64.2466 486.484 64.3049 486.514 64.3632 486.018C66.25 479.213 69.2758 472.777 73.3123 466.983C74.8864 466.546 79.1423 469.665 80.5998 470.772C80.7521 470.92 80.956 471.003 81.1682 471.003C81.3804 471.003 81.5843 470.92 81.7366 470.772C83.076 469.383 84.5182 468.097 86.0508 466.925C90.4816 463.572 91.6768 464.01 91.2978 462.844C89.9578 459.919 89.2051 456.76 89.0824 453.545C89.5342 453.169 90.0468 452.873 90.5982 452.67C93.3196 451.594 96.1157 450.717 98.9643 450.047C102.417 449.085 105.966 448.508 109.546 448.327C110.158 448.589 110.712 451.242 110.857 452.058C111.936 457.888 111.207 459.083 112.053 459.171C120.36 459.987 122.051 462.29 122.634 461.27C124.251 458.443 126.134 455.778 128.26 453.312C128.872 452.7 128.843 452.408 130.679 453.457C136.166 457.043 141.079 461.435 145.254 466.487C145.692 467.245 141.902 471.268 139.133 473.629C138.171 474.475 139.541 474.854 142.048 479.634C144.555 484.415 143.972 485.756 145.313 485.464C147.898 484.845 150.558 484.6 153.212 484.735ZM557.785 241.158C551.675 238.662 545.267 236.967 538.721 236.115C533.941 235.357 528.315 234.599 523.563 233.987C528.14 227.516 541.694 211.133 543.968 207.14C544.609 206.061 543.385 204.546 542.482 203.642C537.409 198.22 527.615 196.18 520.094 195.014C515.78 194.314 497.765 192.099 494.705 193.556C491.032 195.305 463.864 236.115 463.048 242.324C463.048 243.373 463.398 243.781 464.418 244.16C468.703 245.735 488.029 248.183 492.343 249.203C486.513 259.406 460.599 293.89 458.063 298.758C457.451 299.983 457.83 300.711 458.559 300.945C461.182 301.986 463.881 302.824 466.633 303.451C467.683 303.772 469.985 302.344 473.338 300.303C488.379 291.267 552.917 248.65 557.873 243.14C558.009 243.011 558.117 242.854 558.187 242.679C558.258 242.505 558.29 242.317 558.282 242.129C558.274 241.941 558.225 241.757 558.139 241.589C558.054 241.422 557.933 241.275 557.785 241.158ZM495.142 276.138C470.364 292.491 461.998 297.272 461.707 297.476C465.7 291.383 490.507 257.395 494.763 249.262C494.837 249.105 494.875 248.933 494.874 248.759C494.874 248.586 494.834 248.414 494.759 248.258C494.683 248.101 494.574 247.964 494.438 247.855C494.303 247.746 494.145 247.669 493.976 247.629C491.061 246.58 469.84 244.306 464.826 242.528C465.467 237.106 491.935 196.121 495.142 194.489C498.348 192.856 529.451 196.558 535.281 200.727C532.221 206.703 515.314 227.632 512.574 232.5C512.02 233.492 511.845 234.453 512.923 234.716C514.002 234.978 541.403 238.185 547.379 240.138C540.091 246.23 503.304 270.658 495.142 276.021V276.138ZM308.145 97.9149C308.145 98.1772 308.32 98.4979 308.757 100.189C308.872 100.555 309.124 100.863 309.461 101.048C309.798 101.233 310.193 101.28 310.564 101.18C310.748 101.126 310.919 101.037 311.069 100.917C311.218 100.797 311.342 100.649 311.434 100.481C311.526 100.313 311.584 100.129 311.605 99.9389C311.626 99.7486 311.609 99.5561 311.555 99.3724C311.264 98.2355 311.001 97.2736 310.826 96.8072C310.657 96.4871 310.374 96.2417 310.033 96.1189C309.692 95.9962 309.317 96.0048 308.983 96.1431C308.648 96.2814 308.376 96.5396 308.221 96.8671C308.066 97.1947 308.039 97.5682 308.145 97.9149Z" fill="url(#paint5_linear_380_3795)"/>
<defs>
<linearGradient id="paint0_linear_380_3795" x1="188.524" y1="426.273" x2="255.998" y2="426.273" gradientUnits="userSpaceOnUse">
<stop stop-color="#00DBDE"/>
<stop offset="1" stop-color="#5954C9"/>
</linearGradient>
<linearGradient id="paint1_linear_380_3795" x1="150.906" y1="301.305" x2="482.763" y2="301.305" gradientUnits="userSpaceOnUse">
<stop stop-color="#00DBDE"/>
<stop offset="1" stop-color="#5954C9"/>
</linearGradient>
<linearGradient id="paint2_linear_380_3795" x1="32.4519" y1="291.508" x2="532.846" y2="291.508" gradientUnits="userSpaceOnUse">
<stop stop-color="#00DBDE"/>
<stop offset="1" stop-color="#5954C9"/>
</linearGradient>
<linearGradient id="paint3_linear_380_3795" x1="24.5417" y1="300.231" x2="155.29" y2="300.231" gradientUnits="userSpaceOnUse">
<stop stop-color="#00DBDE"/>
<stop offset="1" stop-color="#5954C9"/>
</linearGradient>
<linearGradient id="paint4_linear_380_3795" x1="35.8545" y1="274.812" x2="209.09" y2="274.812" gradientUnits="userSpaceOnUse">
<stop stop-color="#00DBDE"/>
<stop offset="1" stop-color="#5954C9"/>
</linearGradient>
<linearGradient id="paint5_linear_380_3795" x1="55.5193" y1="321.099" x2="538.083" y2="321.099" gradientUnits="userSpaceOnUse">
<stop stop-color="#00DBDE"/>
<stop offset="1" stop-color="#5954C9"/>
</linearGradient>
</defs>
</svg>
