<svg width="1429" height="365" viewBox="0 0 1429 365" fill="none" xmlns="http://www.w3.org/2000/svg">
<path d="M-304.451 217.448C-177.695 206.841 -88.2352 173.105 -29.6085 143.898C29.6762 114.362 72.3737 81.9616 150.394 64.542C236.447 45.1868 292.674 53.8579 314.913 58.7354C345.746 65.5097 343.829 70.1163 394.269 85.8327C491.161 116.027 509.567 102.594 552.981 122.607C624.963 155.782 603.498 206.125 678.789 261.965C733.313 302.417 823.585 334.604 905.244 312.288C982.142 291.268 990.794 238.487 1071.7 230.996C1104.93 227.919 1132.57 234.751 1187.83 248.416C1258.65 265.836 1306.21 287.32 1325.25 294.868C1381.67 317.262 1472.74 331.353 1621.38 287.126" stroke="url(#paint0_linear_379_3699)" stroke-miterlimit="10"/>
<path d="M-305.303 234.519C-182.688 225.364 -91.0223 194.822 -27.0729 164.55C24.8762 139.621 64.4962 112.291 119.097 92.7619C131.039 88.5037 143.62 84.3811 157.169 80.8198C242.544 58.4065 298.558 62.1033 321.939 64.3679C353.294 67.3873 353.294 70.8325 402.727 86.1037C437.566 96.8458 462.38 102.981 481.599 107.007C514.271 113.84 530.626 114.304 556.407 127.446C566.027 132.31 575.054 138.265 583.31 145.195C621.498 177.228 619.872 217.835 683.222 260.881C738.365 298.352 828.037 326.688 908.303 304.527C914.662 302.767 920.928 300.687 927.077 298.294C989.13 274.12 1003.07 231.596 1074.18 224.919C1081.67 224.204 1089.2 223.991 1096.72 224.28C1122 225.17 1148.13 231.48 1189.51 241.7C1258.07 258.732 1304.89 279.81 1325.89 288.152C1341.27 294.206 1357.13 298.958 1373.31 302.359C1429.28 314.282 1508.41 315.52 1619.72 285.094" stroke="url(#paint1_linear_379_3699)" stroke-miterlimit="10"/>
<path d="M-306.154 253.1C-187.701 245.358 -93.7317 218.261 -24.5371 186.557C30.4121 161.395 71.8708 132.653 125.465 112.136C137.698 107.433 150.375 102.672 163.982 98.5876C248.68 73.0969 304.403 70.0194 329.023 71.4904C360.746 73.4259 362.856 73.0581 411.205 87.8648C445.057 98.2586 469.774 105.284 488.626 110.22C520.387 118.485 535.659 120.149 559.775 133.795C568.964 139.05 577.602 145.216 585.556 152.201C622.447 184.021 624.266 222.19 687.693 261.364C743.455 295.836 832.528 320.32 911.4 298.313C918.077 296.378 924.252 294.442 930.039 292.12C994.046 267.5 1008.21 226.951 1076.71 220.506C1084.15 219.774 1091.62 219.534 1099.09 219.79C1124.79 220.544 1150.88 226.68 1191.26 236.803C1257.57 253.371 1303.61 274.1 1326.59 283.042C1341.85 289.041 1357.56 293.804 1373.58 297.288C1429.05 309.481 1507.81 312.056 1618.02 284.649" stroke="url(#paint2_linear_379_3699)" stroke-miterlimit="10"/>
<path d="M-306.987 272.939C-192.695 266.687 -96.4801 242.783 -21.9822 209.918C35.8896 184.37 79.2451 154.311 131.794 132.788C144.336 127.64 157.13 122.259 170.756 117.633C254.777 89.1036 310.113 83.1228 336.068 79.8712C368.179 75.8647 372.379 76.5421 419.663 90.8843C452.567 100.891 477.187 108.826 495.768 114.672C526.6 124.349 540.826 127.253 563.278 141.382C571.967 147.037 580.164 153.415 587.782 160.447C623.376 192.034 628.757 227.745 692.106 263.029C748.565 294.5 836.96 315.152 914.439 293.281C921.058 291.346 927.194 289.41 932.942 287.145C998.866 261.984 1013.32 223.486 1079.17 217.08C1086.55 216.33 1093.97 216.065 1101.39 216.286C1127.52 216.886 1153.65 222.886 1192.96 232.816C1256.99 248.9 1302.3 269.261 1327.23 278.958C1342.39 284.866 1357.98 289.634 1373.85 293.223C1428.82 305.688 1507.21 309.617 1616.29 285.21" stroke="url(#paint3_linear_379_3699)" stroke-miterlimit="10"/>
<path d="M-307.839 292.816C-197.689 288.016 -99.2677 267.345 -19.4471 233.299C41.3667 207.344 86.5996 175.95 138.142 153.459C150.975 147.866 163.865 141.846 177.549 136.698C260.893 105.188 315.726 94.4648 343.133 88.3099C375.514 81.0324 381.843 80.084 428.14 93.9616C460.173 103.639 484.58 112.426 502.851 119.123C532.755 130.194 545.916 134.375 566.723 148.969C574.896 155.011 582.655 161.594 589.949 168.672C624.266 199.989 633.208 233.261 696.499 264.771C753.655 293.223 841.353 310.062 917.457 288.345C923.999 286.41 930.096 284.474 935.825 282.249C1003.68 256.564 1018.39 220.312 1081.61 213.828C1088.94 213.088 1096.31 212.797 1103.67 212.957C1130.19 213.422 1156.24 219.267 1194.64 229.003C1256.42 244.641 1300.98 264.655 1327.86 275.048C1342.92 280.898 1358.37 285.678 1374.1 289.352C1428.59 302.107 1506.61 307.352 1614.59 285.984" stroke="url(#paint4_linear_379_3699)" stroke-miterlimit="10"/>
<path d="M-308.651 305.63C-202.643 302.281 -101.997 284.862 -16.8728 249.635C46.8637 223.254 93.9934 190.467 144.53 167.085C157.633 161.027 170.659 154.447 184.382 148.717C267.009 114.227 321.397 98.8586 350.178 89.6649C382.849 79.2518 391.424 76.5227 436.599 89.9552C461.546 97.4 486.034 106.306 509.935 116.627C538.968 129.072 551.026 134.569 570.13 149.53C578.472 156.092 585.091 163.079 592.253 169.873C625.292 200.841 637.815 231.809 700.99 259.448C758.9 284.862 845.863 297.907 920.574 276.345C927.058 274.41 933.116 272.474 938.806 270.287C1008.62 244.138 1023.58 209.802 1084.16 203.512C1091.44 202.77 1098.75 202.459 1106.05 202.583C1133 202.951 1159.01 208.583 1196.36 218.067C1255.88 233.203 1299.7 252.906 1328.52 263.997C1343.48 269.785 1358.81 274.569 1374.41 278.32C1428.39 291.365 1506.03 297.965 1612.91 279.597" stroke="url(#paint5_linear_379_3699)" stroke-miterlimit="10"/>
<path d="M-309.542 314.765C-207.695 312.83 -104.823 298.643 -14.376 262.274C52.2831 235.467 101.271 201.247 150.839 177.112C164.233 170.57 177.356 163.408 191.137 157.137C273.144 119.724 327.107 99.7297 357.243 87.4585C390.146 74.0067 400.946 69.4002 445.076 82.3681C469.803 89.6355 493.865 98.9986 517 110.356C545.084 124.137 556.116 130.988 573.555 146.472C581.297 153.305 587.394 160.582 594.498 167.453C626.279 198.228 642.402 226.525 705.422 250.506C764.126 272.842 850.334 282.133 923.651 260.706C930.058 258.771 936.058 256.835 941.748 254.687C1013.52 228.132 1028.79 195.77 1086.66 189.712C1093.88 188.95 1101.14 188.614 1108.4 188.705C1135.73 188.938 1161.74 194.396 1198.07 203.764C1255.32 218.454 1298.39 237.79 1329.18 249.616C1344.04 255.33 1359.23 260.12 1374.68 263.958C1428.18 277.294 1505.45 285.249 1611.22 269.862" stroke="url(#paint6_linear_379_3699)" stroke-miterlimit="10"/>
<path d="M-310.374 324.036C-212.689 323.591 -107.629 312.558 -11.8211 275.048C57.7413 247.796 108.568 212.105 157.169 187.098C170.853 180.034 184.111 172.292 197.931 165.517C279.28 125.22 332.855 100.678 364.288 85.1935C397.637 68.7803 410.469 62.2383 453.534 74.7417C478.082 81.9329 501.746 91.8531 524.084 104.316C551.181 119.394 561.207 127.678 577.001 143.549C584.085 150.672 589.698 158.182 596.724 165.188C627.266 195.634 647.047 221.415 709.874 241.699C769.391 260.919 854.786 266.474 926.651 245.222C933 243.286 938.961 241.351 944.613 239.222C1018.34 212.125 1033.78 181.795 1089.1 175.776C1096.26 175.013 1103.46 174.652 1110.66 174.692C1138.42 174.692 1164.39 180.072 1199.69 189.286C1254.7 203.473 1296.99 222.499 1329.76 235.002C1344.52 240.668 1359.59 245.476 1374.9 249.403C1427.89 262.951 1504.79 272.261 1609.44 259.932" stroke="url(#paint7_linear_379_3699)" stroke-miterlimit="10"/>
<path d="M-311.225 333.346C-217.682 334.353 -110.416 326.514 -9.28529 287.862C63.1997 260.165 115.865 222.983 163.517 197.222C177.453 189.692 190.866 181.428 204.705 173.995C285.416 130.814 338.642 101.723 371.353 83.0262C405.108 63.671 419.992 55.1547 462.012 67.1937C486.373 74.3018 509.642 84.7219 531.168 98.1619C557.433 114.556 566.278 124.272 580.427 140.53C586.872 147.963 592.04 155.666 598.969 162.808C628.273 192.944 651.673 216.151 714.306 232.796C774.675 248.842 859.238 250.739 929.768 229.622C936.058 227.687 941.981 225.751 947.594 223.68C1023.29 196.176 1038.95 167.782 1091.65 161.879C1098.76 161.115 1105.91 160.727 1113.06 160.718C1141.22 160.544 1167.26 165.808 1201.49 174.828C1254.22 188.55 1295.77 207.248 1330.5 220.448C1345.14 226.075 1360.08 230.914 1375.25 234.945C1427.76 248.842 1504.29 259.429 1607.84 250.119" stroke="url(#paint8_linear_379_3699)" stroke-miterlimit="10"/>
<path d="M-312.078 342.617C-222.676 345.017 -113.165 340.353 -6.71168 300.578C68.7733 272.416 123.161 233.725 169.904 207.247C184.111 199.195 197.659 190.408 211.537 182.434C291.59 136.427 344.487 102.807 378.455 80.8C412.695 58.5997 429.572 48.0318 470.528 59.6062C494.72 66.6897 517.599 77.6588 538.271 92.0841C563.626 109.736 571.368 120.962 583.871 137.588C589.678 145.33 594.343 153.208 601.291 160.505C629.395 190.311 656.453 210.828 718.854 223.951C780.075 236.783 863.785 235.061 932.941 214.099C939.154 212.163 945.038 210.228 950.632 208.292C1028.28 180.363 1044.18 153.904 1094.23 148.156C1101.3 147.352 1108.4 146.938 1115.52 146.917C1144.09 146.724 1170.02 151.698 1203.33 160.466C1253.79 173.724 1294.59 192.092 1331.29 205.989C1344.55 211.022 1359.24 215.996 1375.67 220.447C1427.68 234.615 1503.84 246.558 1606.27 240.248" stroke="url(#paint9_linear_379_3699)" stroke-miterlimit="10"/>
<path d="M-312.929 351.618C-227.766 355.489 -116.029 354.018 -4.21459 313.14C74.0963 284.514 130.362 244.274 176.214 217.1C190.672 208.525 204.376 199.235 218.292 190.68C297.764 141.847 350.371 103.717 385.462 78.4199C420.185 53.2582 439.037 40.7548 478.948 51.8647C502.998 58.9301 525.514 70.4312 545.336 85.7749C569.82 104.704 576.304 117.459 587.278 134.414C592.446 142.466 596.646 150.537 603.44 157.97C630.343 187.409 661.041 205.351 723.19 214.874C785.339 224.396 868.141 219.132 935.903 198.325C942.058 196.39 947.903 194.454 953.458 192.519C1033.09 164.163 1049.21 139.64 1096.69 134.027C1103.68 133.21 1110.72 132.777 1117.76 132.73C1146.8 132.363 1172.65 137.202 1204.86 145.853C1253.08 158.628 1293.1 176.686 1331.77 191.26C1344.97 196.254 1359.55 201.209 1375.79 205.757C1427.29 220.196 1503.09 233.474 1604.41 230.203" stroke="url(#paint10_linear_379_3699)" stroke-miterlimit="10"/>
<path d="M-313.761 360.502C-232.683 365.863 -118.836 367.508 -1.65968 325.546C79.6319 296.514 137.581 254.629 182.543 226.835C197.272 217.719 211.131 207.945 225.124 198.809C303.977 147.131 356.314 104.549 392.508 75.8457C427.792 47.9355 448.638 33.2643 487.348 43.929C513.051 51.013 536.394 65.6649 552.362 79.2715C575.994 99.4396 581.394 113.762 590.666 131.047C595.156 139.408 598.911 147.673 605.608 155.26C631.331 184.293 665.609 199.564 727.545 205.583C790.507 211.758 872.515 203.009 938.884 182.357C944.961 180.422 950.768 178.486 956.303 176.55C1037.89 147.75 1054.22 125.163 1099.03 119.704C1105.97 118.875 1112.96 118.416 1119.95 118.33C1149.35 117.769 1175.21 122.492 1206.51 130.969C1252.46 143.279 1291.67 161.008 1332.32 176.28C1345.46 181.215 1359.92 186.189 1375.94 190.796C1426.96 205.525 1502.39 220.138 1602.59 219.829" stroke="url(#paint11_linear_379_3699)" stroke-miterlimit="10"/>
<path d="M-314.613 369.27C-237.676 376.102 -121.72 380.651 0.875907 337.818C84.9353 308.088 144.781 264.849 188.892 236.377C203.853 226.7 217.924 216.461 231.879 206.745C310.19 152.337 362.275 105.149 399.572 73.1939C435.437 42.458 458.064 25.7351 495.883 35.9159C520.677 42.6515 543.904 58.0776 559.504 72.6907C582.285 94.0975 586.388 109.969 594.149 127.601C598.021 136.272 601.291 144.692 607.911 152.434C632.453 181.157 670.37 193.622 732.074 196.312C795.946 199.08 877.064 186.905 942.039 166.389C948.065 164.466 953.826 162.531 959.323 160.582C1042.9 131.395 1059.45 110.704 1101.62 105.401C1108.51 104.549 1115.43 104.064 1122.37 103.949C1152.18 103.233 1178.04 107.82 1208.33 116.104C1251.99 127.93 1290.49 145.427 1333.13 161.318C1346.21 166.234 1360.54 171.17 1376.39 175.854C1426.9 190.873 1501.96 206.822 1601.06 209.57" stroke="url(#paint12_linear_379_3699)" stroke-miterlimit="10"/>
<path d="M-315.465 377.902C-242.69 386.166 -124.507 393.908 3.41097 349.953C90.3929 319.778 152 274.874 195.24 245.841C210.433 235.641 224.659 224.899 238.673 214.602C316.422 157.427 368.352 105.71 406.617 70.387C443.101 36.8058 467.586 17.9539 504.264 27.6896C528.167 34.0574 551.297 50.277 566.49 65.9353C588.459 88.5809 591.265 106.039 597.459 124.001C600.594 133.001 603.517 141.595 610.02 149.472C633.537 177.808 675.073 189.421 736.525 186.808C801.133 184.06 881.534 170.569 945.135 150.208C951.096 148.285 956.813 146.35 962.284 144.401C1047.87 114.943 1064.59 96.0133 1104.14 90.8648C1110.97 90.0059 1117.85 89.502 1124.73 89.3551C1154.94 88.5035 1180.86 92.9164 1210.05 100.968C1251.37 112.426 1289.19 129.711 1333.79 146.182C1346.81 151.059 1361.02 155.995 1376.66 160.756C1426.69 176.066 1501.38 193.35 1599.36 199.118" stroke="url(#paint13_linear_379_3699)" stroke-miterlimit="10"/>
<path d="M-316.394 386.437C-247.761 396.115 -127.372 407.089 5.86916 361.992C95.7738 331.372 159.026 284.823 201.491 255.132C216.976 244.371 231.356 233.183 245.37 222.228C322.597 162.227 374.236 106.097 413.604 67.3872C450.786 30.9995 477.167 10.1346 512.819 19.3864C535.813 25.3865 558.845 42.3803 573.652 59.0838C594.807 82.9294 596.259 101.975 601.001 120.246C603.44 129.575 605.975 138.324 612.382 146.376C634.64 174.324 679.621 181.215 740.958 177.189C806.417 172.95 885.966 154.118 948.174 133.911C953.98 131.975 959.787 130.04 965.187 128.104C1052.73 98.2006 1069.7 81.1874 1106.61 76.2131C1113.39 75.3308 1120.21 74.801 1127.03 74.626C1157.65 73.6195 1183.47 77.897 1211.73 85.7939C1250.89 96.6909 1287.88 113.549 1334.42 130.814C1347.41 135.653 1361.52 140.492 1377.01 145.427C1426.54 160.911 1500.88 179.628 1597.65 188.415" stroke="url(#paint14_linear_379_3699)" stroke-miterlimit="10"/>
<path d="M-317.148 394.876C-252.676 406.044 -130.1 420.174 8.50167 373.954C101.406 342.888 166.246 294.597 207.86 264.384C223.498 253.042 238.17 241.429 252.183 229.932C329.003 167.376 380.314 106.446 420.572 64.4065C458.354 25.0962 486.477 2.21844 521.219 11.0444C543.303 16.6767 566.278 34.4448 580.678 52.1741C601.04 77.3358 601.098 97.8523 604.388 116.472C606.072 126.149 608.259 135.033 614.55 143.24C635.685 170.802 684.228 174.75 745.332 167.531C811.585 159.789 890.38 137.627 951.174 117.556C956.981 115.62 962.652 113.685 968.052 111.904C1057.57 81.5552 1074.74 66.4001 1109.03 61.5807C1115.8 60.7109 1122.61 60.1941 1129.43 60.0323C1157.83 58.963 1186.21 62.5592 1213.44 70.6776C1250.33 81.11 1286.56 97.6393 1335.08 115.601C1348.01 120.382 1361.99 125.278 1377.22 130.233C1448.43 153.021 1521.65 168.971 1595.89 177.866" stroke="url(#paint15_linear_379_3699)" stroke-miterlimit="10"/>
<path d="M-318 403.257C-257.67 415.877 -132.888 433.2 11.0372 385.837C106.787 354.327 173.349 304.41 214.266 273.578C395.875 136.601 453.36 -16.3819 529.755 2.60546C550.929 7.87006 573.846 26.4123 587.82 45.1868C617.666 85.252 598.853 115.64 616.853 140.027C660.983 199.834 859.489 133.04 971.052 95.5102C1079.83 58.9096 1083.85 47.1223 1131.7 45.1868C1215.22 41.7609 1258.63 75.3034 1377.51 114.865C1448.19 138.275 1520.7 155.755 1594.29 167.124" stroke="url(#paint16_linear_379_3699)" stroke-miterlimit="10"/>
<path d="M-318 408.793C-256.064 422.593 -135.152 438.406 2.44357 393.076C97.4192 361.701 161.156 311.301 205.072 278.881C380.507 149.53 435.224 9.4377 513.051 21.9411C543.458 26.8186 574.33 36.593 594.711 51.5739C634.756 81.0324 619.872 107.375 643.098 130.93C693.944 182.531 879.096 124.601 985.317 90.168C1088.79 56.5094 1092.97 46.9867 1143.54 48.9222C1227.58 52.1352 1269.02 81.826 1381.01 119.801C1450.88 143.481 1522.83 160.53 1595.89 170.724" stroke="url(#paint17_linear_379_3699)" stroke-miterlimit="10"/>
<path d="M-318 414.56C-214.709 438.338 -106.888 433.486 -6.15011 400.528C88.0513 369.308 148.846 318.385 195.879 284.397C364.907 162.343 417.824 33.0509 496.367 41.4897C536.219 45.7866 573.691 46.8704 601.601 58.1932C649.486 77.5484 640.156 99.0326 669.344 122.065C725.106 166.021 898.702 116.375 999.601 85.0388C1097.6 54.3222 1101.95 46.8704 1155.41 52.8705C1239.76 62.3159 1279.42 88.755 1384.52 124.968C1453.55 148.902 1524.91 165.523 1597.42 174.556" stroke="url(#paint18_linear_379_3699)" stroke-miterlimit="10"/>
<path d="M-318 424.819C-217.717 448.882 -112.72 444.606 -14.7244 412.47C78.6834 381.386 136.555 329.94 186.685 294.404C348.959 179.396 400.985 74.568 479.664 65.5292C528.884 59.8775 572.413 62.2001 608.511 69.2841C663.054 79.9681 659.879 95.2006 695.609 117.672C754.758 154.873 918.348 112.833 1013.87 84.4004C1106.54 56.8194 1110.85 51.0709 1167.25 61.2904C1251.88 76.6197 1289.79 100.136 1388.04 134.608C1456.25 158.824 1527.05 175.024 1599.01 182.879" stroke="url(#paint19_linear_379_3699)" stroke-miterlimit="10"/>
<path d="M-318 440.438C-220.732 464.773 -118.56 461.055 -23.3181 429.715C69.3155 398.747 124.245 346.779 177.491 309.713C332.894 201.538 384.378 106.717 462.98 94.8713C521.374 86.084 572.936 72.6516 615.401 85.6776C673.834 103.6 676.021 104.839 721.854 118.581C776.997 160.408 937.974 114.536 1028.15 89.0647C1115.44 64.4837 1119.74 60.4191 1179.12 75.0322C1263.95 95.9165 1300.15 116.897 1391.54 149.55C1458.94 174.041 1529.18 189.814 1600.58 196.486" stroke="url(#paint20_linear_379_3699)" stroke-miterlimit="10"/>
<path d="M-318 456.426C-223.752 481.049 -124.4 477.944 -31.8731 447.484C59.9864 416.67 111.955 364.121 168.336 325.546C316.713 224.009 367.617 138.324 446.199 124.736C513.942 113.046 570.304 94.5037 622.33 102.613C689.415 113.065 695.357 108.962 748.139 120.033C805.991 157.253 957.581 116.607 1042.34 94.2521C1124.25 72.6711 1128.54 70.0968 1190.89 89.2971C1276.05 115.465 1310.41 134.22 1394.97 165.014C1461.54 189.783 1531.25 205.131 1602.07 210.615" stroke="url(#paint21_linear_379_3699)" stroke-miterlimit="10"/>
<path d="M-318 472.723C-226.793 497.584 -130.288 495.06 -40.5055 465.464C50.5798 434.786 99.5482 381.657 159.104 341.591C300.396 246.538 350.72 169.524 429.592 154.814C506.49 140.472 568.678 128.704 629.182 119.743C703.893 108.671 714.616 113.259 774.346 121.678C835.005 154.408 977.187 118.968 1056.7 99.652C1133.23 81.071 1137.53 79.871 1202.83 103.775C1288.15 135.014 1320.8 151.833 1398.47 180.711C1464.23 205.747 1533.4 220.671 1603.64 224.977" stroke="url(#paint22_linear_379_3699)" stroke-miterlimit="10"/>
<path d="M-318 489.233C-245.941 510.078 -148.643 517.104 -49.0798 483.678C41.2893 453.329 87.1803 399.386 149.91 357.869C283.983 269.145 333.784 200.512 412.888 185.125C499.135 168.363 567.729 151.969 636.092 137.105C717.964 119.278 735.771 106.833 800.61 123.556C867.792 140.879 996.794 121.62 1070.96 105.285C1142.11 89.6844 1146.45 89.8005 1214.67 118.465C1300.42 154.602 1331.12 169.718 1402.07 196.622C1446.18 213.344 1512.72 235.216 1605.3 239.551" stroke="url(#paint23_linear_379_3699)" stroke-miterlimit="10"/>
<path d="M-318 506.033C-244.257 528.02 -150.907 533.575 -57.6735 502.162C31.9215 471.968 74.7737 417.328 140.717 374.418C267.473 291.907 316.558 231.461 396.204 215.706C491.819 196.776 566.955 175.621 642.982 154.737C732.229 130.214 754.507 111.556 826.856 125.704C895.819 139.253 1016.38 124.388 1085.25 111.188C1151.05 98.5682 1155.55 99.7295 1226.54 133.446C1312.71 174.344 1341.39 187.95 1405.57 212.802C1449.05 229.641 1514.6 251.513 1606.87 254.416" stroke="url(#paint24_linear_379_3699)" stroke-miterlimit="10"/>
<path d="M-318 523.027C-242.515 546.253 -153.172 550.24 -66.2672 520.859C22.5535 490.82 62.3283 435.464 131.523 391.18C250.905 314.765 299.332 262.429 379.501 246.5C484.58 225.616 566.278 199.544 649.873 172.583C746.648 141.382 773.262 116.936 853.102 128.066C923.941 137.937 1035.97 127.466 1099.51 117.304C1159.86 107.627 1164.64 109.852 1238.38 148.64C1325.1 194.222 1351.65 206.454 1409.08 229.196C1451.93 246.171 1516.46 268.12 1608.44 269.474" stroke="url(#paint25_linear_379_3699)" stroke-miterlimit="10"/>
<path d="M-318 540.272C-240.908 564.602 -155.417 567.137 -74.8608 539.789C13.1857 509.885 49.8443 453.755 122.329 408.173C234.26 337.759 280.712 284.088 362.817 277.526C479.219 268.216 565.659 223.719 656.763 190.66C761.145 152.802 796.12 103.562 879.347 130.659C948.871 153.363 1055.48 130.659 1113.8 123.653C1168.73 116.975 1173.8 120.13 1250.25 164.047C1337.56 214.235 1361.87 225.267 1412.58 245.822C1454.79 262.952 1518.34 284.92 1610 284.784" stroke="url(#paint26_linear_379_3699)" stroke-miterlimit="10"/>
<path d="M-318 558.079C-239.225 583.589 -157.681 584.557 -83.4351 559.395C3.8178 529.627 37.3215 472.645 113.136 425.845C217.653 361.334 263.467 317.127 346.113 309.23C471.922 297.172 565.117 248.59 663.673 209.415C775.739 164.898 813.424 112.427 905.612 133.93C978.736 151.001 1075.12 134.666 1128.06 130.678C1177.59 126.943 1183.11 131.008 1262.09 180.15C1350.1 234.887 1372.09 244.816 1416.1 263.126C1457.66 280.429 1520.22 302.378 1611.59 300.752" stroke="url(#paint27_linear_379_3699)" stroke-miterlimit="10"/>
<path d="M-318 577.008C-237.56 603.699 -159.965 603.177 -92.0288 579.912C-5.55007 550.279 24.7407 492.368 103.942 444.426C200.834 385.76 246.202 351.076 329.429 341.843C464.683 326.843 564.613 274.391 670.563 229.1C790.41 177.866 831.211 123.266 931.858 138.13C1008.39 149.434 1094.67 139.485 1142.34 138.614C1186.44 137.801 1192.46 142.756 1273.96 197.164C1362.7 256.41 1382.35 265.352 1419.61 281.358C1460.5 298.894 1522.19 320.766 1613.16 317.649" stroke="url(#paint28_linear_379_3699)" stroke-miterlimit="10"/>
<path d="M-318 596.267C-235.876 624.138 -162.23 622.087 -100.622 600.873C-14.918 571.357 12.1018 512.401 94.7482 463.452C184.072 410.535 228.879 385.431 312.726 374.902C457.347 356.747 564.149 300.617 677.454 249.21C805.198 191.28 849.444 135.343 958.103 142.756C1037.85 148.195 1114.24 144.692 1156.61 146.995C1195.24 149.066 1201.86 154.873 1285.81 214.622C1375.4 278.358 1392.41 286.488 1423.11 300.036C1463.31 317.862 1523.95 339.617 1614.73 334.992" stroke="url(#paint29_linear_379_3699)" stroke-miterlimit="10"/>
<path d="M-318 617.229C-234.192 646.261 -164.553 642.584 -109.216 623.519C-24.3439 593.944 -0.633908 533.963 85.5545 484.162C167.272 436.935 211.537 421.451 296.042 409.645C449.954 388.141 563.723 328.546 684.267 271.004C819.753 206.377 868.508 157.892 984.271 149.066C1066.76 142.795 1133.71 151.582 1170.82 157.06C1204.05 161.976 1211.27 168.673 1297.59 233.745C1388.06 301.991 1402.46 309.23 1426.54 320.359C1465.98 338.611 1525.75 360.115 1616.22 353.999" stroke="url(#paint30_linear_379_3699)" stroke-miterlimit="10"/>
<path d="M-318 637.977C-232.528 668.19 -166.817 663.003 -117.791 645.971C-33.7118 616.532 -13.4857 555.118 76.3608 504.678C150.452 463.084 194.156 457.258 279.338 444.193C442.521 419.167 563.317 356.263 691.254 292.623C834.656 221.261 887.999 168.75 1010.61 155.201C1095.78 145.834 1153.4 158.163 1185.16 166.931C1213.01 174.673 1220.89 182.221 1309.51 252.693C1400.95 325.391 1412.6 331.914 1430.14 340.527C1468.69 359.456 1527.71 380.418 1617.88 372.811" stroke="url(#paint31_linear_379_3699)" stroke-miterlimit="10"/>
<path d="M-318 658.745C-230.902 690.12 -168.965 683.442 -126.384 668.423C-43.1571 639.119 -26.473 575.963 67.1671 525.195C133.633 489.155 176.756 493.065 262.654 478.742C435.011 450 562.929 383.902 698.144 314.223C849.463 236.145 907.548 179.531 1036.86 161.318C1125.02 148.911 1173.06 164.647 1199.44 176.802C1221.95 187.176 1230.41 195.751 1321.38 271.642C1413.8 348.811 1422.61 354.676 1433.64 360.676C1470.94 380.979 1529.56 400.741 1619.45 391.644" stroke="url(#paint32_linear_379_3699)" stroke-miterlimit="10"/>
<defs>
<linearGradient id="paint0_linear_379_3699" x1="-304.451" y1="186.061" x2="1544.01" y2="186.061" gradientUnits="userSpaceOnUse">
<stop stop-color="#00DBDE"/>
<stop offset="1" stop-color="#5954C9"/>
</linearGradient>
<linearGradient id="paint1_linear_379_3699" x1="-305.303" y1="187.487" x2="1542.38" y2="187.487" gradientUnits="userSpaceOnUse">
<stop stop-color="#00DBDE"/>
<stop offset="1" stop-color="#5954C9"/>
</linearGradient>
<linearGradient id="paint2_linear_379_3699" x1="-306.154" y1="188.94" x2="1540.71" y2="188.94" gradientUnits="userSpaceOnUse">
<stop stop-color="#00DBDE"/>
<stop offset="1" stop-color="#5954C9"/>
</linearGradient>
<linearGradient id="paint3_linear_379_3699" x1="-306.987" y1="190.422" x2="1539.02" y2="190.422" gradientUnits="userSpaceOnUse">
<stop stop-color="#00DBDE"/>
<stop offset="1" stop-color="#5954C9"/>
</linearGradient>
<linearGradient id="paint4_linear_379_3699" x1="-307.839" y1="191.788" x2="1537.35" y2="191.788" gradientUnits="userSpaceOnUse">
<stop stop-color="#00DBDE"/>
<stop offset="1" stop-color="#5954C9"/>
</linearGradient>
<linearGradient id="paint5_linear_379_3699" x1="-308.651" y1="193.237" x2="1535.7" y2="193.237" gradientUnits="userSpaceOnUse">
<stop stop-color="#00DBDE"/>
<stop offset="1" stop-color="#5954C9"/>
</linearGradient>
<linearGradient id="paint6_linear_379_3699" x1="-309.542" y1="194.722" x2="1534.05" y2="194.722" gradientUnits="userSpaceOnUse">
<stop stop-color="#00DBDE"/>
<stop offset="1" stop-color="#5954C9"/>
</linearGradient>
<linearGradient id="paint7_linear_379_3699" x1="-310.374" y1="196.126" x2="1532.31" y2="196.125" gradientUnits="userSpaceOnUse">
<stop stop-color="#00DBDE"/>
<stop offset="1" stop-color="#5954C9"/>
</linearGradient>
<linearGradient id="paint8_linear_379_3699" x1="-311.225" y1="197.53" x2="1530.73" y2="197.53" gradientUnits="userSpaceOnUse">
<stop stop-color="#00DBDE"/>
<stop offset="1" stop-color="#5954C9"/>
</linearGradient>
<linearGradient id="paint9_linear_379_3699" x1="-312.078" y1="198.997" x2="1529.19" y2="198.997" gradientUnits="userSpaceOnUse">
<stop stop-color="#00DBDE"/>
<stop offset="1" stop-color="#5954C9"/>
</linearGradient>
<linearGradient id="paint10_linear_379_3699" x1="-312.929" y1="200.412" x2="1527.37" y2="200.412" gradientUnits="userSpaceOnUse">
<stop stop-color="#00DBDE"/>
<stop offset="1" stop-color="#5954C9"/>
</linearGradient>
<linearGradient id="paint11_linear_379_3699" x1="-313.761" y1="201.848" x2="1525.59" y2="201.848" gradientUnits="userSpaceOnUse">
<stop stop-color="#00DBDE"/>
<stop offset="1" stop-color="#5954C9"/>
</linearGradient>
<linearGradient id="paint12_linear_379_3699" x1="-314.613" y1="203.304" x2="1524.09" y2="203.304" gradientUnits="userSpaceOnUse">
<stop stop-color="#00DBDE"/>
<stop offset="1" stop-color="#5954C9"/>
</linearGradient>
<linearGradient id="paint13_linear_379_3699" x1="-315.465" y1="204.714" x2="1522.42" y2="204.714" gradientUnits="userSpaceOnUse">
<stop stop-color="#00DBDE"/>
<stop offset="1" stop-color="#5954C9"/>
</linearGradient>
<linearGradient id="paint14_linear_379_3699" x1="-316.394" y1="206.14" x2="1520.75" y2="206.14" gradientUnits="userSpaceOnUse">
<stop stop-color="#00DBDE"/>
<stop offset="1" stop-color="#5954C9"/>
</linearGradient>
<linearGradient id="paint15_linear_379_3699" x1="-317.148" y1="207.585" x2="1519.03" y2="207.585" gradientUnits="userSpaceOnUse">
<stop stop-color="#00DBDE"/>
<stop offset="1" stop-color="#5954C9"/>
</linearGradient>
<linearGradient id="paint16_linear_379_3699" x1="-318" y1="209.02" x2="1517.45" y2="209.02" gradientUnits="userSpaceOnUse">
<stop stop-color="#00DBDE"/>
<stop offset="1" stop-color="#5954C9"/>
</linearGradient>
<linearGradient id="paint17_linear_379_3699" x1="-318" y1="222.135" x2="1519" y2="222.135" gradientUnits="userSpaceOnUse">
<stop stop-color="#00DBDE"/>
<stop offset="1" stop-color="#5954C9"/>
</linearGradient>
<linearGradient id="paint18_linear_379_3699" x1="-318" y1="235.253" x2="1520.46" y2="235.253" gradientUnits="userSpaceOnUse">
<stop stop-color="#00DBDE"/>
<stop offset="1" stop-color="#5954C9"/>
</linearGradient>
<linearGradient id="paint19_linear_379_3699" x1="-318" y1="248.371" x2="1521.99" y2="248.371" gradientUnits="userSpaceOnUse">
<stop stop-color="#00DBDE"/>
<stop offset="1" stop-color="#5954C9"/>
</linearGradient>
<linearGradient id="paint20_linear_379_3699" x1="-318" y1="261.435" x2="1523.49" y2="261.435" gradientUnits="userSpaceOnUse">
<stop stop-color="#00DBDE"/>
<stop offset="1" stop-color="#5954C9"/>
</linearGradient>
<linearGradient id="paint21_linear_379_3699" x1="-318" y1="274.605" x2="1524.92" y2="274.605" gradientUnits="userSpaceOnUse">
<stop stop-color="#00DBDE"/>
<stop offset="1" stop-color="#5954C9"/>
</linearGradient>
<linearGradient id="paint22_linear_379_3699" x1="-318" y1="287.721" x2="1526.43" y2="287.721" gradientUnits="userSpaceOnUse">
<stop stop-color="#00DBDE"/>
<stop offset="1" stop-color="#5954C9"/>
</linearGradient>
<linearGradient id="paint23_linear_379_3699" x1="-318" y1="300.853" x2="1528.02" y2="300.853" gradientUnits="userSpaceOnUse">
<stop stop-color="#00DBDE"/>
<stop offset="1" stop-color="#5954C9"/>
</linearGradient>
<linearGradient id="paint24_linear_379_3699" x1="-318" y1="313.959" x2="1529.53" y2="313.959" gradientUnits="userSpaceOnUse">
<stop stop-color="#00DBDE"/>
<stop offset="1" stop-color="#5954C9"/>
</linearGradient>
<linearGradient id="paint25_linear_379_3699" x1="-318" y1="327.074" x2="1531.03" y2="327.073" gradientUnits="userSpaceOnUse">
<stop stop-color="#00DBDE"/>
<stop offset="1" stop-color="#5954C9"/>
</linearGradient>
<linearGradient id="paint26_linear_379_3699" x1="-318" y1="340.194" x2="1532.54" y2="340.194" gradientUnits="userSpaceOnUse">
<stop stop-color="#00DBDE"/>
<stop offset="1" stop-color="#5954C9"/>
</linearGradient>
<linearGradient id="paint27_linear_379_3699" x1="-318" y1="353.351" x2="1534.06" y2="353.351" gradientUnits="userSpaceOnUse">
<stop stop-color="#00DBDE"/>
<stop offset="1" stop-color="#5954C9"/>
</linearGradient>
<linearGradient id="paint28_linear_379_3699" x1="-318" y1="366.426" x2="1535.57" y2="366.426" gradientUnits="userSpaceOnUse">
<stop stop-color="#00DBDE"/>
<stop offset="1" stop-color="#5954C9"/>
</linearGradient>
<linearGradient id="paint29_linear_379_3699" x1="-318" y1="379.541" x2="1537.07" y2="379.541" gradientUnits="userSpaceOnUse">
<stop stop-color="#00DBDE"/>
<stop offset="1" stop-color="#5954C9"/>
</linearGradient>
<linearGradient id="paint30_linear_379_3699" x1="-318" y1="392.661" x2="1538.5" y2="392.661" gradientUnits="userSpaceOnUse">
<stop stop-color="#00DBDE"/>
<stop offset="1" stop-color="#5954C9"/>
</linearGradient>
<linearGradient id="paint31_linear_379_3699" x1="-318" y1="405.778" x2="1540.1" y2="405.778" gradientUnits="userSpaceOnUse">
<stop stop-color="#00DBDE"/>
<stop offset="1" stop-color="#5954C9"/>
</linearGradient>
<linearGradient id="paint32_linear_379_3699" x1="-318" y1="418.895" x2="1541.6" y2="418.895" gradientUnits="userSpaceOnUse">
<stop stop-color="#00DBDE"/>
<stop offset="1" stop-color="#5954C9"/>
</linearGradient>
</defs>
</svg>
