<svg width="264" height="218" viewBox="0 0 264 218" fill="none" xmlns="http://www.w3.org/2000/svg">
<path d="M218.222 4.29809C183.077 4.85159 38.2789 5.15264 2.06115 4.69229C-0.0893987 4.66529 -0.252749 1.00004 1.9734 1.00004C39.3076 1.04594 168.369 0.33449 218.152 1.40504C220.548 1.45364 219.897 4.27109 218.222 4.29809Z" fill="white"/>
<path d="M175.096 109.56C172.671 110.607 170.095 111.26 167.465 111.495C167.717 114.586 167.683 117.695 167.365 120.78C167.33 120.947 167.237 121.096 167.103 121.2C166.97 121.305 166.803 121.36 166.633 121.353C166.463 121.347 166.301 121.281 166.175 121.167C166.049 121.053 165.967 120.897 165.944 120.729C165.692 118.619 166.282 116.333 165.857 111.599C162.699 111.684 161.219 110.705 158.445 110.328C151.546 109.386 144.916 107.034 138.966 103.416C138.789 103.281 138.673 103.081 138.642 102.861C138.612 102.64 138.669 102.416 138.803 102.238C144.907 94.7833 149.601 86.2784 152.655 77.1401C153.015 76.1073 154.21 74.7195 154.216 76.4975C154.23 81.0551 153.699 85.61 153.699 90.1743C153.699 98.4579 153.919 107.319 161.989 109.401C166.938 110.674 171.544 109.059 174.607 108.241C175.335 108.04 175.875 109.184 175.096 109.56Z" fill="white"/>
<path d="M163.413 91.8362C162.706 93.2064 165.117 93.0444 166.563 93.1133C166.745 93.1285 166.916 93.2079 167.046 93.3373C167.176 93.4668 167.255 93.638 167.271 93.8205C167.286 94.003 167.236 94.1851 167.13 94.3344C167.024 94.4837 166.868 94.5906 166.691 94.6361C165.735 94.7647 164.763 94.7097 163.828 94.4741C162.156 94.1271 160.881 93.5115 161.79 91.6391C162.379 90.3752 163.047 89.1501 163.791 87.9711C163.882 87.8284 164.023 87.7237 164.185 87.6766C164.348 87.6296 164.523 87.6434 164.676 87.7154C164.829 87.7875 164.951 87.9129 165.019 88.0683C165.087 88.2236 165.096 88.3983 165.044 88.5597C164.584 89.6916 164.039 90.7869 163.413 91.8362Z" fill="white"/>
<path d="M172.573 86.5589C172.589 87.4256 172.654 88.7391 171.377 88.7729C170.348 88.8012 170.059 87.8913 170.065 86.675C170.07 84.4839 172.52 83.8738 172.573 86.5589Z" fill="white"/>
<path d="M160.53 86.5036C160.508 87.3325 160.156 88.1141 159.198 88.075C158.399 88.0426 158.112 86.9626 158.135 86.2511C158.168 85.2008 158.499 84.6649 159.163 84.5191C160.183 84.295 160.558 85.4641 160.53 86.5036Z" fill="white"/>
<path d="M159.605 80.3206C159.07 80.2589 158.528 80.3477 158.041 80.5772C157.554 80.8066 157.141 81.1676 156.848 81.6193C156.108 82.7128 155.317 81.8151 155.598 81.1671C155.959 80.3792 156.562 79.7278 157.32 79.3084C158.078 78.889 158.951 78.7238 159.81 78.837C160.002 78.8696 160.174 78.9757 160.289 79.1327C160.404 79.2898 160.453 79.4854 160.426 79.6783C160.4 79.8711 160.299 80.046 160.146 80.1659C159.992 80.2858 159.798 80.3413 159.605 80.3206Z" fill="white"/>
<path d="M170.602 80.1344C170.433 80.1334 170.271 80.0724 170.143 79.9623C170.015 79.8523 169.931 79.7004 169.905 79.5338C169.879 79.3672 169.913 79.1968 170.001 79.0531C170.089 78.9093 170.226 78.8017 170.386 78.7493C171.416 78.5284 172.492 78.6878 173.414 79.1979C174.336 79.7081 175.042 80.5346 175.402 81.5249C175.625 82.2985 174.592 82.933 174.201 82.0649C173.891 81.3972 173.372 80.8482 172.723 80.5001C172.074 80.152 171.33 80.0237 170.602 80.1344Z" fill="white"/>
<path d="M164.171 99.0978C164.751 100.405 165.781 101.461 167.074 102.073C168.366 102.685 169.836 102.813 171.215 102.434C172.637 101.975 173.832 100.993 174.559 99.687C175.286 98.3811 175.49 96.848 175.13 95.3974C174.965 94.7224 174.36 94.4875 173.634 95.0599C170.595 97.4548 168.346 97.8288 164.755 97.8882C164.172 97.8976 163.83 98.4201 164.171 99.0978Z" fill="white"/>
<path d="M65.9688 125.097C66.2901 125.706 65.391 126.36 64.8888 125.907C61.9823 123.276 56.6606 119.562 55.1594 116.052C53.1344 111.327 54.24 105.41 50.2332 101.587C50.0888 101.464 49.9974 101.289 49.9781 101.1C49.9588 100.911 50.013 100.722 50.1295 100.572C50.2461 100.421 50.4159 100.322 50.6039 100.293C50.7918 100.265 50.9835 100.31 51.139 100.419C55.567 103.534 54.7274 109.632 56.778 114.054C58.857 118.532 63.69 120.79 65.9688 125.097Z" fill="white"/>
<path d="M36.3539 118.202C32.2233 117.382 28.3598 115.553 25.1083 112.877C24.0648 111.958 25.3149 111.217 26.0763 111.731C29.31 114.016 33.0108 115.554 36.9114 116.233C40.7185 116.797 44.5943 116.697 48.3675 115.939C49.2977 115.815 49.2774 117.176 48.6375 117.559C45.7269 119.307 39.6209 118.921 36.3539 118.202Z" fill="white"/>
<path d="M19.1886 116.097C18.6108 115.464 19.5828 114.623 20.2173 115.082C24.5499 118.406 29.5244 120.796 34.827 122.102C38.9688 123.047 37.82 124.986 34.1021 124.219C28.4055 123.133 23.191 120.294 19.1886 116.097Z" fill="white"/>
<path d="M35.2806 130.89C30.3599 130.605 23.5451 128.337 19.8515 125.1C19.7216 124.982 19.6383 124.821 19.6166 124.646C19.5949 124.472 19.6362 124.296 19.7332 124.149C19.8301 124.002 19.9762 123.895 20.1452 123.847C20.3142 123.798 20.4949 123.812 20.6547 123.885C26.2694 126.636 29.2637 128.034 35.5385 128.813C39.1808 129.266 39.0741 131.11 35.2806 130.89Z" fill="white"/>
<path d="M57.0291 137.189C58.0186 137.864 56.8941 139.526 55.8857 138.93C50.564 135.796 44.5038 137.715 38.7231 137.705C33.0866 137.801 27.5648 136.107 22.951 132.868C22.2855 132.37 23.0185 131.374 23.7219 131.696C29.0045 134.364 34.8721 135.664 40.7872 135.476C46.2507 135.146 52.1718 133.882 57.0291 137.189Z" fill="white"/>
<path d="M261.835 217.012C207.801 217.67 53.9538 216.316 21.0921 215.932C18.9753 215.908 17.2959 213.518 21.0314 213.502C63.2864 213.285 198.909 213.336 261.757 213.915C264.231 213.931 264.238 216.982 261.835 217.012Z" fill="#FFB4AF"/>
<path d="M157.716 119.337C145.836 121.227 123.081 133.929 110.689 150.317C122.434 148.539 157.075 148.235 167.03 149.403C163.284 144.842 159.137 140.626 154.637 136.807C156.365 134.827 157.99 133.286 159.412 131.931C156.567 130.176 151.891 127.376 149.827 126.412C152.165 123.748 154.814 121.372 157.716 119.337Z" fill="#FFB4AF"/>
<path d="M183.691 132.54C185.215 134.058 186.514 135.785 187.55 137.67C183.385 140.057 175.308 144.527 170.433 149.707C175.088 150.317 178.128 152.575 179.748 159.427C180.445 162.366 181.406 167.081 182.359 172.374C191.179 170.447 200.144 169.261 209.162 168.831C207.58 164.779 205.465 160.956 202.872 157.464C202.316 156.728 203.347 155.794 203.962 156.508C207.093 160.102 209.515 164.255 211.102 168.75C215.141 168.511 219.193 168.568 223.224 168.921C224.142 169.025 224.152 170.398 223.202 170.375C209.589 169.931 195.974 171.214 182.683 174.193C184.04 181.931 185.317 190.578 185.718 196.633C206.643 196.429 240.59 206.768 245.851 194.296C257.634 166.363 221.848 122.276 196.386 118.416C198.535 121.391 200.04 124.782 200.804 128.371C198.015 129.339 187.35 131.878 183.691 132.54Z" fill="#FFB4AF"/>
<path d="M168.027 140.464C163.748 129.785 163.864 124.1 162.644 118.864C162.616 118.684 162.519 118.521 162.374 118.409C162.23 118.298 162.047 118.246 161.866 118.265C161.684 118.284 161.516 118.372 161.397 118.511C161.279 118.65 161.218 118.829 161.228 119.012C161.184 125.331 164.404 135.857 167.019 141.909C167.102 142.056 167.218 142.18 167.358 142.274C167.498 142.367 167.658 142.426 167.826 142.445C167.993 142.465 168.162 142.445 168.32 142.387C168.478 142.329 168.62 142.235 168.735 142.111C177.203 130.352 181.434 126.103 191.145 118.561C191.296 118.454 191.4 118.292 191.434 118.111C191.469 117.929 191.432 117.741 191.331 117.586C191.229 117.431 191.072 117.321 190.892 117.279C190.711 117.238 190.522 117.268 190.363 117.363C181.351 123.378 173.735 131.255 168.027 140.464Z" fill="#FFB4AF"/>
<path d="M99.1761 151.536C90.8466 146.457 76.7269 133.963 70.9381 126.059C65.1207 131.992 59.9454 138.523 55.4982 145.543C66.0363 161.084 82.725 177.85 93.1834 182.721C91.9684 177.539 91.6593 163.217 91.9684 158.646C92.2776 154.075 95.7228 152.247 99.1761 151.536Z" fill="#FFB4AF"/>
<path d="M51.4468 151.3C54.0307 151.192 52.7024 149.38 51.6008 149.358C36.8858 149.069 21.1151 148.71 10.0208 148.883C10.878 84.7757 10.365 44.3256 10.716 8.20365C10.7255 7.2465 9.2904 7.39365 9.2472 8.3049C7.8459 37.6714 8.7072 116.754 7.6272 148.664C7.5894 149.758 7.665 150.456 10.0302 150.561C16.6547 150.858 23.1104 150.87 29.7726 150.985C35.8949 151.092 45.5136 151.548 51.4468 151.3Z" fill="#FFB4AF"/>
<path d="M212.661 87.67C213.31 74.5075 213.108 61.1708 213.167 47.98C213.202 40.1824 213.556 19.2466 213.468 8.97172C213.454 7.19242 211.619 8.20627 211.6 9.10672C211.245 26.5528 210.326 70.1146 210.993 87.6889C211.049 89.1685 212.595 89.1469 212.661 87.67Z" fill="#FFB4AF"/>
<path d="M31.3521 47.44C31.3521 43.1605 31.3886 38.8837 31.3521 34.6042C50.6274 34.4935 69.9149 34.3842 89.1875 34.0359C89.2037 37.7808 89.1875 41.5257 89.1875 45.2706C70.7775 45.7417 51.9518 46.4356 33.4865 46.7664C32.2971 46.788 32.4902 48.5646 33.6404 48.5794C52.2852 48.8049 71.5024 47.6155 90.2053 47.1309C90.4528 47.1052 90.6807 46.9847 90.8413 46.7947C91.0019 46.6047 91.0826 46.3599 91.0666 46.1116C91.0666 41.739 91.0518 37.365 91.0815 32.9923C91.0552 32.7429 90.9334 32.5134 90.7416 32.3519C90.5499 32.1903 90.303 32.1092 90.0528 32.1256C70.139 32.1378 50.2116 32.4091 30.2978 32.6751C30.0431 32.7014 29.8086 32.8254 29.6435 33.021C29.4783 33.2166 29.3954 33.4686 29.4122 33.724C29.5229 38.341 29.7578 42.9472 29.9171 47.5615C29.94 48.4998 31.3508 48.3675 31.3521 47.44Z" fill="#FFB4AF"/>
<path d="M30.2289 78.2969C50.3601 77.5112 71.0867 77.4194 91.095 76.041C91.2415 76.0444 91.3869 76.0151 91.5206 75.9553C91.6544 75.8955 91.7731 75.8067 91.8683 75.6952C91.9634 75.5838 92.0325 75.4526 92.0707 75.3111C92.1088 75.1696 92.1149 75.0215 92.0886 74.8773C91.7349 72.0234 91.3799 69.1695 91.0086 66.3183C90.8534 65.1344 89.0768 65.5394 89.2064 66.7017C89.4764 69.179 89.776 71.6549 90.0703 74.1267C70.525 74.9516 50.807 75.5091 31.3454 76.1328C31.3454 72.2624 31.3251 68.3865 31.4345 64.5228C51.1107 64.319 70.4495 64.0004 90.3417 64.1624C90.5336 64.1656 90.7192 64.0941 90.8593 63.963C90.9995 63.8319 91.0832 63.6515 91.0929 63.4598C91.1025 63.2682 91.0373 63.0803 90.911 62.9358C90.7847 62.7913 90.6072 62.7015 90.416 62.6855C70.4468 61.7661 50.3939 62.1711 30.341 62.2116C30.1855 62.2033 30.03 62.2257 29.8833 62.2778C29.7366 62.3298 29.6016 62.4103 29.4862 62.5147C29.3707 62.6191 29.2771 62.7453 29.2106 62.8861C29.1442 63.0268 29.1062 63.1793 29.099 63.3348C29.265 67.9424 29.2029 72.5661 29.2191 77.1791C29.2087 77.4602 29.3084 77.7343 29.497 77.9431C29.6855 78.1518 29.9482 78.2788 30.2289 78.2969Z" fill="#FFB4AF"/>
<path d="M89.4385 105.332C79.7725 105.46 67.4754 105.269 57.5596 105.737C56.7294 105.776 56.7672 107.469 57.5812 107.483C66.5088 107.635 80.0196 107.194 90.3403 107.411C91.4811 107.435 91.5337 106.331 91.4001 105.51C90.7336 101.481 90.6977 97.3732 91.2934 93.3332C91.3209 93.1875 91.3154 93.0375 91.2773 92.8943C91.2392 92.751 91.1695 92.6181 91.0733 92.5053C90.9771 92.3925 90.8568 92.3027 90.7213 92.2425C90.5859 92.1823 90.4386 92.1532 90.2904 92.1574C70.6506 92.6218 51.0054 93.3481 31.3669 93.6626C31.1029 93.6807 30.8562 93.8003 30.6784 93.9964C30.5007 94.1925 30.4059 94.4498 30.4138 94.7143C30.3787 98.9641 30.3868 103.219 30.3571 107.464C30.3756 107.743 30.5019 108.005 30.7094 108.193C30.917 108.381 31.1895 108.481 31.4695 108.472C37.1395 108.264 41.604 108.295 47.2753 107.946C48.2203 107.888 48.1407 106.183 47.2038 106.18C42.2929 106.168 37.3821 106.22 32.4726 106.334C32.4523 102.768 32.4483 99.203 32.424 95.6377C51.3537 94.9627 70.2982 94.6657 89.232 94.1365C88.789 97.8602 88.8585 101.627 89.4385 105.332Z" fill="#FFB4AF"/>
<path d="M135.332 117.92C136.225 118.131 136.468 116.696 135.602 116.443C126.148 113.431 118.219 106.891 113.462 98.1839C102.485 78.5792 109.277 52.8873 127.11 39.8544C142.905 28.3106 176.836 28.5455 187.777 47.4144C188.438 48.5552 190.157 47.9315 189.606 46.7178C181.052 27.8651 146.336 25.1651 129.311 35.5601C109.265 47.8046 99.9672 74.2862 109.898 95.9901C114.893 106.909 124.17 115.276 135.332 117.92Z" fill="#FFB4AF"/>
<path d="M212.503 121.871C212.846 118.96 212.541 111.206 212.553 106.669C212.553 105.04 211.025 105.639 210.97 106.32C210.645 111.499 210.631 116.693 210.929 121.874C210.99 122.647 212.414 122.635 212.503 121.871Z" fill="#FFB4AF"/>
<path d="M217.344 201.715C209.286 200.77 192.576 199.735 181.725 199.555C181.725 193.325 175.766 157.705 171.974 154.726C168.342 151.872 99.4488 151.34 96.6044 156.751C92.8649 163.874 99.0452 208 102.458 209.165C108.011 211.055 213.548 210.74 218.153 210.38C220.56 210.197 220.903 202.13 217.344 201.715ZM117.871 158.976C113.869 159.394 110.041 159.948 106.05 160.532C102.596 161.039 102.351 161.762 101.976 165.078C101.5 169.015 101.272 172.977 101.293 176.943C101.293 177.787 100.066 178.008 99.9537 177.12C99.4371 172.569 99.4716 167.973 100.056 163.431C100.442 160.45 101.541 159.111 104.511 158.505C108.903 157.617 113.385 157.266 117.861 157.457C118.043 157.483 118.209 157.574 118.33 157.713C118.451 157.851 118.518 158.029 118.519 158.212C118.52 158.396 118.455 158.574 118.336 158.714C118.217 158.854 118.052 158.947 117.871 158.976ZM135.51 189.12C132.655 189.66 129.562 188.115 128.448 183.76C127.48 179.98 129.258 177.128 132.398 176.325C139.918 174.402 142.665 187.752 135.51 189.12Z" fill="white"/>
<path d="M213.567 98.9912C200.729 86.2702 208.382 68.4353 200.171 59.8048C198.618 58.1309 196.521 57.0629 194.254 56.7909C191.987 56.5189 189.698 57.0607 187.793 58.3198C181.468 48.0341 168.567 45.5447 157.584 48.967C145.613 52.697 141.324 67.3108 150.934 72.0142C155.969 74.4793 173.647 74.6885 179.174 73.618C179.617 78.1944 181.329 82.5563 184.117 86.2121C184.403 86.5564 184.803 87.0329 185.278 86.6171C185.792 86.1541 186.396 85.8028 187.053 85.5855C187.709 85.3682 188.404 85.2897 189.093 85.3549C189.781 85.4202 190.449 85.6277 191.053 85.9644C191.657 86.3012 192.185 86.7597 192.603 87.311C192.987 87.8787 193.255 88.5167 193.392 89.1883C193.529 89.8599 193.532 90.552 193.4 91.2247C193.269 91.8975 193.006 92.5376 192.627 93.1085C192.247 93.6793 191.759 94.1695 191.189 94.5511C189.538 95.6432 188.361 95.4839 186.512 95.3908C185.932 95.3624 185.824 95.8471 185.785 96.2899C185.214 102.721 184.581 110.06 185.563 116.456C185.588 116.634 185.681 116.794 185.823 116.904C185.965 117.014 186.144 117.064 186.323 117.043C186.501 117.023 186.664 116.934 186.777 116.795C186.891 116.656 186.946 116.478 186.93 116.3C186.944 114.566 186.879 112.833 186.822 111.098C195.86 112.109 207.304 106.823 213.594 100.779C214.59 99.8323 213.878 99.299 213.567 98.9912ZM164.94 54.9866C162.736 54.947 160.556 55.4422 158.586 56.4298C156.397 57.4801 152.682 60.091 152.932 62.8288C153.006 63.6496 151.826 64.1518 151.52 63.3053C150.041 59.2256 154.156 56.0383 156.899 54.5411C159.343 53.2077 162.081 52.5047 164.864 52.4959C168.426 52.4999 166.956 55.0717 164.94 54.9866Z" fill="white"/>
</svg>
