<svg width="1429" height="402" viewBox="0 0 1429 402" fill="none" xmlns="http://www.w3.org/2000/svg">
<path d="M-292.451 217.447C-165.695 206.841 -76.2352 173.105 -17.6085 143.898C41.6762 114.362 84.3737 81.9614 162.394 64.5418C248.447 45.1866 304.674 53.8577 326.913 58.7352C357.746 65.5095 355.829 70.116 406.269 85.8324C503.161 116.026 521.567 102.594 564.981 122.607C636.963 155.782 615.498 206.125 690.789 261.964C745.313 302.417 835.585 334.604 917.244 312.288C994.142 291.268 1002.79 238.487 1083.7 230.996C1116.93 227.919 1144.57 234.751 1199.83 248.416C1270.65 265.835 1318.21 287.32 1337.25 294.868C1393.67 317.262 1484.74 331.353 1633.38 287.126" stroke="url(#paint0_linear_379_3615)" stroke-miterlimit="10"/>
<path d="M-293.303 234.519C-170.688 225.364 -79.0223 194.821 -15.0729 164.55C36.8762 139.62 76.4962 112.291 131.097 92.7616C143.039 88.5035 155.62 84.3809 169.169 80.8195C254.544 58.4062 310.558 62.1031 333.939 64.3676C365.294 67.387 365.294 70.8322 414.727 86.1035C449.566 96.8456 474.38 102.981 493.599 107.007C526.271 113.839 542.626 114.304 568.407 127.446C578.027 132.309 587.054 138.265 595.31 145.195C633.498 177.228 631.872 217.835 695.222 260.881C750.365 298.352 840.037 326.688 920.303 304.526C926.662 302.767 932.928 300.687 939.077 298.294C1001.13 274.119 1015.07 231.596 1086.18 224.919C1093.67 224.204 1101.2 223.991 1108.72 224.28C1134 225.17 1160.13 231.48 1201.51 241.7C1270.07 258.732 1316.89 279.81 1337.89 288.152C1353.27 294.205 1369.13 298.958 1385.31 302.359C1441.28 314.281 1520.41 315.52 1631.72 285.094" stroke="url(#paint1_linear_379_3615)" stroke-miterlimit="10"/>
<path d="M-294.154 253.1C-175.701 245.358 -81.7317 218.261 -12.5371 186.557C42.4121 161.395 83.8708 132.653 137.465 112.136C149.698 107.433 162.375 102.672 175.982 98.5876C260.68 73.0969 316.403 70.0194 341.023 71.4904C372.746 73.4259 374.856 73.0581 423.205 87.8648C457.057 98.2586 481.774 105.284 500.626 110.22C532.387 118.485 547.659 120.149 571.775 133.795C580.964 139.05 589.602 145.216 597.556 152.201C634.447 184.021 636.266 222.19 699.693 261.364C755.455 295.836 844.528 320.32 923.4 298.313C930.077 296.378 936.252 294.442 942.039 292.12C1006.05 267.5 1020.21 226.951 1088.71 220.506C1096.15 219.774 1103.62 219.534 1111.09 219.79C1136.79 220.544 1162.88 226.68 1203.26 236.803C1269.57 253.371 1315.61 274.1 1338.59 283.042C1353.85 289.041 1369.56 293.804 1385.58 297.288C1441.05 309.481 1519.81 312.056 1630.02 284.649" stroke="url(#paint2_linear_379_3615)" stroke-miterlimit="10"/>
<path d="M-294.987 272.939C-180.695 266.687 -84.4801 242.783 -9.98221 209.918C47.8896 184.37 91.2451 154.311 143.794 132.788C156.336 127.64 169.13 122.259 182.756 117.633C266.777 89.1036 322.113 83.1228 348.068 79.8712C380.179 75.8647 384.379 76.5421 431.663 90.8843C464.567 100.891 489.187 108.826 507.768 114.672C538.6 124.349 552.826 127.253 575.278 141.382C583.967 147.037 592.164 153.415 599.782 160.447C635.376 192.034 640.757 227.745 704.106 263.029C760.565 294.5 848.96 315.152 926.439 293.281C933.058 291.346 939.194 289.41 944.942 287.145C1010.87 261.984 1025.32 223.486 1091.17 217.08C1098.55 216.33 1105.97 216.065 1113.39 216.286C1139.52 216.886 1165.65 222.886 1204.96 232.816C1268.99 248.9 1314.3 269.261 1339.23 278.958C1354.39 284.866 1369.98 289.634 1385.85 293.223C1440.82 305.688 1519.21 309.617 1628.29 285.21" stroke="url(#paint3_linear_379_3615)" stroke-miterlimit="10"/>
<path d="M-295.839 292.817C-185.689 288.017 -87.2677 267.345 -7.44715 233.3C53.3667 207.344 98.5996 175.95 150.142 153.46C162.975 147.866 175.865 141.847 189.549 136.698C272.893 105.188 327.726 94.4651 355.133 88.3102C387.514 81.0326 393.843 80.0842 440.14 93.9619C472.173 103.639 496.58 112.427 514.851 119.124C544.755 130.195 557.916 134.375 578.723 148.969C586.896 155.011 594.655 161.594 601.949 168.673C636.266 199.989 645.208 233.261 708.499 264.771C765.655 293.223 853.353 310.062 929.457 288.346C935.999 286.41 942.096 284.475 947.825 282.249C1015.68 256.564 1030.39 220.312 1093.61 213.828C1100.94 213.088 1108.31 212.798 1115.67 212.957C1142.19 213.422 1168.24 219.267 1206.64 229.003C1268.42 244.642 1312.98 264.655 1339.86 275.049C1354.92 280.899 1370.37 285.678 1386.1 289.352C1440.59 302.107 1518.61 307.352 1626.59 285.984" stroke="url(#paint4_linear_379_3615)" stroke-miterlimit="10"/>
<path d="M-296.651 305.63C-190.643 302.281 -89.9966 284.862 -4.87276 249.635C58.8637 223.254 105.993 190.467 156.53 167.085C169.633 161.027 182.659 154.447 196.382 148.717C279.009 114.227 333.397 98.8586 362.178 89.6649C394.849 79.2518 403.424 76.5227 448.599 89.9552C473.546 97.4 498.034 106.306 521.935 116.627C550.968 129.072 563.026 134.569 582.13 149.53C590.472 156.092 597.091 163.079 604.253 169.873C637.292 200.841 649.815 231.809 712.99 259.448C770.9 284.862 857.863 297.907 932.574 276.345C939.058 274.41 945.116 272.474 950.806 270.287C1020.62 244.138 1035.58 209.802 1096.16 203.512C1103.44 202.77 1110.75 202.459 1118.05 202.583C1145 202.951 1171.01 208.583 1208.36 218.067C1267.88 233.203 1311.7 252.906 1340.52 263.997C1355.48 269.785 1370.81 274.569 1386.41 278.32C1440.39 291.365 1518.03 297.965 1624.91 279.597" stroke="url(#paint5_linear_379_3615)" stroke-miterlimit="10"/>
<path d="M-297.542 314.765C-195.695 312.83 -92.8225 298.643 -2.37599 262.274C64.2831 235.467 113.271 201.247 162.839 177.112C176.233 170.57 189.356 163.408 203.137 157.137C285.144 119.724 339.107 99.7297 369.243 87.4585C402.146 74.0067 412.946 69.4002 457.076 82.3681C481.803 89.6355 505.865 98.9986 529 110.356C557.084 124.137 568.116 130.988 585.555 146.472C593.297 153.305 599.394 160.582 606.498 167.453C638.279 198.228 654.402 226.525 717.422 250.506C776.126 272.842 862.334 282.133 935.651 260.706C942.058 258.771 948.058 256.835 953.748 254.687C1025.52 228.132 1040.79 195.77 1098.66 189.712C1105.88 188.95 1113.14 188.614 1120.4 188.705C1147.73 188.938 1173.74 194.396 1210.07 203.764C1267.32 218.454 1310.39 237.79 1341.18 249.616C1356.04 255.33 1371.23 260.12 1386.68 263.958C1440.18 277.294 1517.45 285.249 1623.22 269.862" stroke="url(#paint6_linear_379_3615)" stroke-miterlimit="10"/>
<path d="M-298.374 324.036C-200.689 323.591 -95.629 312.559 0.178915 275.048C69.7413 247.796 120.568 212.105 169.169 187.099C182.853 180.034 196.111 172.292 209.931 165.518C291.28 125.22 344.855 100.678 376.288 85.1938C409.637 68.7806 422.469 62.2385 465.534 74.742C490.082 81.9332 513.746 91.8534 536.084 104.317C563.181 119.394 573.207 127.678 589.001 143.55C596.085 150.672 601.698 158.182 608.724 165.189C639.266 195.634 659.047 221.415 721.874 241.7C781.391 260.919 866.786 266.474 938.651 245.222C945 243.287 950.961 241.351 956.613 239.222C1030.34 212.125 1045.78 181.795 1101.1 175.776C1108.26 175.014 1115.46 174.652 1122.66 174.692C1150.42 174.692 1176.39 180.073 1211.69 189.286C1266.7 203.473 1308.99 222.499 1341.76 235.003C1356.52 240.668 1371.59 245.477 1386.9 249.403C1439.89 262.951 1516.79 272.261 1621.44 259.932" stroke="url(#paint7_linear_379_3615)" stroke-miterlimit="10"/>
<path d="M-299.225 333.346C-205.682 334.353 -98.4159 326.514 2.71471 287.862C75.1997 260.164 127.865 222.983 175.517 197.221C189.453 189.692 202.866 181.428 216.705 173.995C297.416 130.814 350.642 101.723 383.353 83.0259C417.108 63.6708 431.992 55.1545 474.012 67.1934C498.373 74.3016 521.642 84.7217 543.168 98.1617C569.433 114.555 578.278 124.272 592.427 140.53C598.872 147.962 604.04 155.666 610.969 162.808C640.273 192.944 663.673 216.151 726.306 232.796C786.675 248.842 871.238 250.738 941.768 229.622C948.058 227.686 953.981 225.751 959.594 223.68C1035.29 196.176 1050.95 167.782 1103.65 161.879C1110.76 161.115 1117.91 160.727 1125.06 160.717C1153.22 160.543 1179.26 165.808 1213.49 174.827C1266.22 188.55 1307.77 207.247 1342.5 220.448C1357.14 226.074 1372.08 230.914 1387.25 234.945C1439.76 248.842 1516.29 259.429 1619.84 250.119" stroke="url(#paint8_linear_379_3615)" stroke-miterlimit="10"/>
<path d="M-300.078 342.617C-210.676 345.017 -101.165 340.353 5.28832 300.578C80.7733 272.416 135.161 233.725 181.904 207.247C196.111 199.196 209.659 190.409 223.537 182.434C303.59 136.427 356.487 102.807 390.455 80.8003C424.695 58.5999 441.572 48.032 482.528 59.6064C506.72 66.69 529.599 77.659 550.271 92.0843C575.626 109.736 583.368 120.962 595.871 137.588C601.678 145.33 606.343 153.208 613.291 160.505C641.395 190.312 668.453 210.828 730.854 223.951C792.075 236.783 875.785 235.061 944.941 214.099C951.154 212.164 957.038 210.228 962.632 208.293C1040.28 180.363 1056.18 153.905 1106.23 148.156C1113.3 147.352 1120.4 146.938 1127.52 146.917C1156.09 146.724 1182.02 151.698 1215.33 160.466C1265.79 173.724 1306.59 192.092 1343.29 205.989C1356.55 211.022 1371.24 215.996 1387.67 220.448C1439.68 234.616 1515.84 246.558 1618.27 240.248" stroke="url(#paint9_linear_379_3615)" stroke-miterlimit="10"/>
<path d="M-300.929 351.618C-215.766 355.489 -104.029 354.018 7.78541 313.14C86.0963 284.513 142.362 244.274 188.214 217.099C202.672 208.525 216.376 199.235 230.292 190.68C309.764 141.847 362.371 103.717 397.462 78.4197C432.185 53.258 451.037 40.7546 490.948 51.8644C514.998 58.9298 537.514 70.431 557.336 85.7746C581.82 104.704 588.304 117.459 599.278 134.414C604.446 142.466 608.646 150.537 615.44 157.969C642.343 187.409 673.041 205.351 735.19 214.874C797.339 224.396 880.141 219.132 947.903 198.325C954.058 196.389 959.903 194.454 965.458 192.518C1045.09 164.163 1061.21 139.64 1108.69 134.027C1115.68 133.21 1122.72 132.777 1129.76 132.73C1158.8 132.362 1184.65 137.201 1216.86 145.853C1265.08 158.627 1305.1 176.686 1343.77 191.26C1356.97 196.254 1371.55 201.209 1387.79 205.757C1439.29 220.196 1515.09 233.474 1616.41 230.203" stroke="url(#paint10_linear_379_3615)" stroke-miterlimit="10"/>
<path d="M-301.761 360.502C-220.683 365.863 -106.836 367.508 10.3403 325.546C91.6319 296.513 149.581 254.629 194.543 226.835C209.272 217.719 223.131 207.944 237.124 198.809C315.977 147.13 368.314 104.549 404.508 75.8454C439.792 47.9353 460.638 33.2641 499.348 43.9288C525.051 51.0128 548.394 65.6646 564.362 79.2713C587.994 99.4393 593.394 113.762 602.666 131.046C607.156 139.408 610.911 147.672 617.608 155.26C643.331 184.292 677.609 199.564 739.545 205.583C802.507 211.757 884.515 203.009 950.884 182.357C956.961 180.421 962.768 178.486 968.303 176.55C1049.89 147.75 1066.22 125.162 1111.03 119.704C1117.97 118.875 1124.96 118.416 1131.95 118.33C1161.35 117.769 1187.21 122.491 1218.51 130.969C1264.46 143.279 1303.67 161.008 1344.32 176.279C1357.46 181.215 1371.92 186.189 1387.94 190.796C1438.96 205.525 1514.39 220.138 1614.59 219.828" stroke="url(#paint11_linear_379_3615)" stroke-miterlimit="10"/>
<path d="M-302.613 369.27C-225.676 376.102 -109.72 380.651 12.8759 337.818C96.9353 308.088 156.781 264.849 200.892 236.377C215.853 226.7 229.924 216.461 243.879 206.745C322.19 152.337 374.275 105.149 411.572 73.1939C447.437 42.458 470.064 25.7351 507.883 35.9159C532.677 42.6515 555.904 58.0776 571.504 72.6907C594.285 94.0975 598.388 109.969 606.149 127.601C610.021 136.272 613.291 144.692 619.911 152.434C644.453 181.157 682.37 193.622 744.074 196.312C807.946 199.08 889.064 186.905 954.039 166.389C960.065 164.466 965.826 162.531 971.323 160.582C1054.9 131.395 1071.45 110.704 1113.62 105.401C1120.51 104.549 1127.43 104.064 1134.37 103.949C1164.18 103.233 1190.04 107.82 1220.33 116.104C1263.99 127.93 1302.49 145.427 1345.13 161.318C1358.21 166.234 1372.54 171.17 1388.39 175.854C1438.9 190.873 1513.96 206.822 1613.06 209.57" stroke="url(#paint12_linear_379_3615)" stroke-miterlimit="10"/>
<path d="M-303.465 377.902C-230.69 386.167 -112.507 393.909 15.411 349.953C102.393 319.778 164 274.874 207.24 245.842C222.433 235.642 236.659 224.899 250.673 214.603C328.422 157.427 380.352 105.71 418.617 70.3873C455.101 36.8061 479.586 17.9542 516.264 27.6898C540.167 34.0577 563.297 50.2773 578.49 65.9356C600.459 88.5811 603.265 106.039 609.459 124.001C612.594 133.001 615.517 141.595 622.02 149.472C645.537 177.808 687.073 189.421 748.525 186.809C813.133 184.06 893.534 170.57 957.135 150.208C963.096 148.285 968.813 146.35 974.284 144.401C1059.87 114.943 1076.59 96.0135 1116.14 90.865C1122.97 90.0061 1129.85 89.5022 1136.73 89.3553C1166.94 88.5037 1192.86 92.9167 1222.05 100.968C1263.37 112.427 1301.19 129.711 1345.79 146.182C1358.81 151.06 1373.02 155.995 1388.66 160.756C1438.69 176.066 1513.38 193.351 1611.36 199.118" stroke="url(#paint13_linear_379_3615)" stroke-miterlimit="10"/>
<path d="M-304.394 386.437C-235.761 396.115 -115.372 407.089 17.8692 361.992C107.774 331.372 171.026 284.823 213.491 255.132C228.976 244.371 243.356 233.183 257.37 222.228C334.597 162.227 386.236 106.097 425.604 67.3872C462.786 30.9995 489.167 10.1346 524.819 19.3864C547.813 25.3865 570.845 42.3803 585.652 59.0838C606.807 82.9294 608.259 101.975 613.001 120.246C615.44 129.575 617.975 138.324 624.382 146.376C646.64 174.324 691.621 181.215 752.958 177.189C818.417 172.95 897.966 154.118 960.174 133.911C965.98 131.975 971.787 130.04 977.187 128.104C1064.73 98.2006 1081.7 81.1874 1118.61 76.2131C1125.39 75.3308 1132.21 74.801 1139.03 74.626C1169.65 73.6195 1195.47 77.897 1223.73 85.7939C1262.89 96.6909 1299.88 113.549 1346.42 130.814C1359.41 135.653 1373.52 140.492 1389.01 145.427C1438.54 160.911 1512.88 179.628 1609.65 188.415" stroke="url(#paint14_linear_379_3615)" stroke-miterlimit="10"/>
<path d="M-305.148 394.876C-240.676 406.044 -118.1 420.173 20.5017 373.953C113.406 342.888 178.246 294.597 219.86 264.384C235.498 253.042 250.17 241.429 264.183 229.932C341.003 167.376 392.314 106.446 432.572 64.4063C470.354 25.096 498.477 2.2182 533.219 11.0441C555.303 16.6765 578.278 34.4445 592.678 52.1738C613.04 77.3355 613.098 97.852 616.388 116.472C618.072 126.149 620.259 135.033 626.55 143.24C647.685 170.802 696.228 174.75 757.332 167.531C823.585 159.788 902.38 137.627 963.174 117.556C968.981 115.62 974.652 113.685 980.052 111.904C1069.57 81.555 1086.74 66.3999 1121.03 61.5804C1127.8 60.7107 1134.61 60.1938 1141.43 60.032C1169.83 58.9627 1198.21 62.5589 1225.44 70.6774C1262.33 81.1098 1298.56 97.6391 1347.08 115.601C1360.01 120.381 1373.99 125.278 1389.22 130.233C1460.43 153.021 1533.65 168.971 1607.89 177.866" stroke="url(#paint15_linear_379_3615)" stroke-miterlimit="10"/>
<path d="M-306 403.257C-245.67 415.877 -120.888 433.2 23.0372 385.837C118.787 354.327 185.349 304.41 226.266 273.578C407.875 136.601 465.36 -16.3819 541.755 2.60546C562.929 7.87006 585.846 26.4123 599.82 45.1868C629.666 85.252 610.853 115.64 628.853 140.027C672.983 199.834 871.489 133.04 983.052 95.5102C1091.83 58.9096 1095.85 47.1223 1143.7 45.1868C1227.22 41.7609 1270.63 75.3034 1389.51 114.865C1460.19 138.275 1532.7 155.755 1606.29 167.124" stroke="url(#paint16_linear_379_3615)" stroke-miterlimit="10"/>
<path d="M-306 408.793C-244.064 422.593 -123.152 438.406 14.4436 393.076C109.419 361.702 173.156 311.301 217.072 278.881C392.507 149.531 447.224 9.43795 525.051 21.9414C555.458 26.8189 586.33 36.5932 606.711 51.5741C646.756 81.0327 631.872 107.375 655.098 130.93C705.944 182.531 891.096 124.601 997.317 90.1683C1100.79 56.5097 1104.97 46.9869 1155.54 48.9225C1239.58 52.1354 1281.02 81.8262 1393.01 119.801C1462.88 143.481 1534.83 160.531 1607.89 170.724" stroke="url(#paint17_linear_379_3615)" stroke-miterlimit="10"/>
<path d="M-306 414.561C-202.709 438.338 -94.8882 433.486 5.84989 400.528C100.051 369.308 160.846 318.385 207.879 284.397C376.907 162.344 429.824 33.0511 508.367 41.49C548.219 45.7868 585.691 46.8707 613.601 58.1935C661.486 77.5486 652.156 99.0328 681.344 122.065C737.106 166.021 910.702 116.375 1011.6 85.0391C1109.6 54.3224 1113.95 46.8707 1167.41 52.8708C1251.76 62.3161 1291.42 88.7553 1396.52 124.969C1465.55 148.903 1536.91 165.523 1609.42 174.557" stroke="url(#paint18_linear_379_3615)" stroke-miterlimit="10"/>
<path d="M-306 424.819C-205.717 448.882 -100.72 444.606 -2.72442 412.47C90.6834 381.386 148.555 329.94 198.685 294.404C360.959 179.396 412.985 74.568 491.664 65.5292C540.884 59.8775 584.413 62.2001 620.511 69.2841C675.054 79.9681 671.879 95.2006 707.609 117.672C766.758 154.873 930.348 112.833 1025.87 84.4004C1118.54 56.8194 1122.85 51.0709 1179.25 61.2904C1263.88 76.6197 1301.79 100.136 1400.04 134.608C1468.25 158.824 1539.05 175.024 1611.01 182.879" stroke="url(#paint19_linear_379_3615)" stroke-miterlimit="10"/>
<path d="M-306 440.438C-208.732 464.773 -106.56 461.055 -11.3181 429.715C81.3155 398.747 136.245 346.779 189.491 309.713C344.894 201.538 396.378 106.717 474.98 94.8713C533.374 86.084 584.936 72.6516 627.401 85.6776C685.834 103.6 688.021 104.839 733.854 118.581C788.997 160.408 949.974 114.536 1040.15 89.0647C1127.44 64.4837 1131.74 60.4191 1191.12 75.0322C1275.95 95.9165 1312.15 116.897 1403.54 149.55C1470.94 174.041 1541.18 189.814 1612.58 196.486" stroke="url(#paint20_linear_379_3615)" stroke-miterlimit="10"/>
<path d="M-306 456.426C-211.752 481.049 -112.4 477.944 -19.8731 447.484C71.9864 416.67 123.955 364.121 180.336 325.546C328.713 224.009 379.617 138.324 458.199 124.736C525.942 113.046 582.304 94.5037 634.33 102.613C701.415 113.065 707.357 108.962 760.139 120.033C817.991 157.253 969.581 116.607 1054.34 94.2521C1136.25 72.6711 1140.54 70.0968 1202.89 89.2971C1288.05 115.465 1322.41 134.22 1406.97 165.014C1473.54 189.783 1543.25 205.131 1614.07 210.615" stroke="url(#paint21_linear_379_3615)" stroke-miterlimit="10"/>
<path d="M-306 472.723C-214.793 497.585 -118.288 495.06 -28.5055 465.465C62.5798 434.787 111.548 381.657 171.104 341.592C312.396 246.538 362.72 169.524 441.592 154.814C518.49 140.472 580.678 128.704 641.182 119.743C715.893 108.672 726.616 113.259 786.346 121.678C847.005 154.408 989.187 118.969 1068.7 99.6522C1145.23 81.0713 1149.53 79.8712 1214.83 103.775C1300.15 135.014 1332.8 151.834 1410.47 180.712C1476.23 205.747 1545.4 220.671 1615.64 224.977" stroke="url(#paint22_linear_379_3615)" stroke-miterlimit="10"/>
<path d="M-306 489.233C-233.941 510.078 -136.643 517.104 -37.0798 483.678C53.2893 453.329 99.1803 399.386 161.91 357.869C295.983 269.145 345.784 200.512 424.888 185.125C511.135 168.363 579.729 151.969 648.092 137.105C729.964 119.278 747.771 106.833 812.61 123.556C879.792 140.879 1008.79 121.62 1082.96 105.285C1154.11 89.6844 1158.45 89.8005 1226.67 118.465C1312.42 154.602 1343.12 169.718 1414.07 196.622C1458.18 213.344 1524.72 235.216 1617.3 239.551" stroke="url(#paint23_linear_379_3615)" stroke-miterlimit="10"/>
<path d="M-306 506.033C-232.257 528.02 -138.907 533.575 -45.6735 502.162C43.9215 471.968 86.7737 417.328 152.717 374.418C279.473 291.907 328.558 231.461 408.204 215.706C503.819 196.776 578.955 175.621 654.982 154.737C744.229 130.214 766.507 111.556 838.856 125.704C907.819 139.253 1028.38 124.388 1097.25 111.188C1163.05 98.5682 1167.55 99.7295 1238.54 133.446C1324.71 174.344 1353.39 187.95 1417.57 212.802C1461.05 229.641 1526.6 251.513 1618.87 254.416" stroke="url(#paint24_linear_379_3615)" stroke-miterlimit="10"/>
<path d="M-306 523.027C-230.515 546.253 -141.172 550.24 -54.2672 520.859C34.5535 490.82 74.3283 435.464 143.523 391.18C262.905 314.765 311.332 262.429 391.501 246.5C496.58 225.616 578.278 199.544 661.873 172.583C758.648 141.382 785.262 116.936 865.102 128.066C935.941 137.937 1047.97 127.466 1111.51 117.304C1171.86 107.627 1176.64 109.852 1250.38 148.64C1337.1 194.222 1363.65 206.454 1421.08 229.196C1463.93 246.171 1528.46 268.12 1620.44 269.474" stroke="url(#paint25_linear_379_3615)" stroke-miterlimit="10"/>
<path d="M-306 540.272C-228.908 564.602 -143.417 567.137 -62.8608 539.788C25.1857 509.885 61.8443 453.755 134.329 408.173C246.26 337.759 292.712 284.087 374.817 277.526C491.219 268.216 577.659 223.719 668.763 190.66C773.145 152.801 808.12 103.562 891.347 130.659C960.871 153.363 1067.48 130.659 1125.8 123.653C1180.73 116.975 1185.8 120.13 1262.25 164.047C1349.56 214.235 1373.87 225.267 1424.58 245.822C1466.79 262.952 1530.34 284.92 1622 284.784" stroke="url(#paint26_linear_379_3615)" stroke-miterlimit="10"/>
<path d="M-306 558.079C-227.225 583.589 -145.681 584.557 -71.4351 559.395C15.8178 529.627 49.3215 472.645 125.136 425.845C229.653 361.334 275.467 317.127 358.113 309.23C483.922 297.172 577.117 248.59 675.673 209.415C787.739 164.898 825.424 112.427 917.612 133.93C990.736 151.001 1087.12 134.666 1140.06 130.678C1189.59 126.943 1195.11 131.008 1274.09 180.15C1362.1 234.887 1384.09 244.816 1428.1 263.126C1469.66 280.429 1532.22 302.378 1623.59 300.752" stroke="url(#paint27_linear_379_3615)" stroke-miterlimit="10"/>
<path d="M-306 577.008C-225.56 603.699 -147.965 603.177 -80.0288 579.912C6.44993 550.279 36.7407 492.368 115.942 444.426C212.834 385.76 258.202 351.076 341.429 341.843C476.683 326.843 576.613 274.391 682.563 229.1C802.41 177.866 843.211 123.266 943.858 138.13C1020.39 149.434 1106.67 139.485 1154.34 138.614C1198.44 137.801 1204.46 142.756 1285.96 197.164C1374.7 256.41 1394.35 265.352 1431.61 281.358C1472.5 298.894 1534.19 320.766 1625.16 317.649" stroke="url(#paint28_linear_379_3615)" stroke-miterlimit="10"/>
<path d="M-306 596.266C-223.876 624.138 -150.23 622.086 -88.6225 600.873C-2.91795 571.356 24.1018 512.401 106.748 463.451C196.072 410.534 240.879 385.431 324.726 374.902C469.347 356.747 576.149 300.617 689.454 249.209C817.198 191.279 861.444 135.343 970.103 142.756C1049.85 148.195 1126.24 144.691 1168.61 146.995C1207.24 149.066 1213.86 154.872 1297.81 214.622C1387.4 278.358 1404.41 286.487 1435.11 300.036C1475.31 317.862 1535.95 339.617 1626.73 334.991" stroke="url(#paint29_linear_379_3615)" stroke-miterlimit="10"/>
<path d="M-306 617.228C-222.192 646.261 -152.553 642.584 -97.2162 623.519C-12.3439 593.944 11.3661 533.962 97.5545 484.162C179.272 436.935 223.537 421.451 308.042 409.644C461.954 388.141 575.723 328.546 696.267 271.003C831.753 206.377 880.508 157.892 996.271 149.066C1078.76 142.795 1145.71 151.582 1182.82 157.06C1216.05 161.976 1223.27 168.673 1309.59 233.745C1400.06 301.991 1414.46 309.23 1438.54 320.359C1477.98 338.611 1537.75 360.115 1628.22 353.998" stroke="url(#paint30_linear_379_3615)" stroke-miterlimit="10"/>
<path d="M-306 637.977C-220.528 668.19 -154.817 663.003 -105.791 645.971C-21.7118 616.532 -1.48571 555.118 88.3608 504.678C162.452 463.084 206.156 457.258 291.338 444.193C454.521 419.167 575.317 356.263 703.254 292.623C846.656 221.261 899.999 168.75 1022.61 155.201C1107.78 145.834 1165.4 158.163 1197.16 166.931C1225.01 174.673 1232.89 182.221 1321.51 252.693C1412.95 325.391 1424.6 331.914 1442.14 340.527C1480.69 359.456 1539.71 380.418 1629.88 372.811" stroke="url(#paint31_linear_379_3615)" stroke-miterlimit="10"/>
<path d="M-306 658.745C-218.902 690.12 -156.965 683.442 -114.384 668.423C-31.1571 639.119 -14.473 575.963 79.1671 525.195C145.633 489.155 188.756 493.065 274.654 478.742C447.011 450 574.929 383.902 710.144 314.223C861.463 236.145 919.548 179.531 1048.86 161.318C1137.02 148.911 1185.06 164.647 1211.44 176.802C1233.95 187.176 1242.41 195.751 1333.38 271.642C1425.8 348.811 1434.61 354.676 1445.64 360.676C1482.94 380.979 1541.56 400.741 1631.45 391.644" stroke="url(#paint32_linear_379_3615)" stroke-miterlimit="10"/>
<defs>
<linearGradient id="paint0_linear_379_3615" x1="-292.451" y1="186.06" x2="1556.01" y2="186.06" gradientUnits="userSpaceOnUse">
<stop stop-color="#C08EFF"/>
<stop offset="0.9999" stop-color="white" stop-opacity="0.8"/>
</linearGradient>
<linearGradient id="paint1_linear_379_3615" x1="-293.303" y1="187.487" x2="1554.38" y2="187.487" gradientUnits="userSpaceOnUse">
<stop stop-color="#C08EFF"/>
<stop offset="0.9999" stop-color="white" stop-opacity="0.8"/>
</linearGradient>
<linearGradient id="paint2_linear_379_3615" x1="-294.154" y1="188.94" x2="1552.71" y2="188.94" gradientUnits="userSpaceOnUse">
<stop stop-color="#C08EFF"/>
<stop offset="0.9999" stop-color="white" stop-opacity="0.8"/>
</linearGradient>
<linearGradient id="paint3_linear_379_3615" x1="-294.987" y1="190.422" x2="1551.02" y2="190.422" gradientUnits="userSpaceOnUse">
<stop stop-color="#C08EFF"/>
<stop offset="0.9999" stop-color="white" stop-opacity="0.8"/>
</linearGradient>
<linearGradient id="paint4_linear_379_3615" x1="-295.839" y1="191.789" x2="1549.35" y2="191.789" gradientUnits="userSpaceOnUse">
<stop stop-color="#C08EFF"/>
<stop offset="0.9999" stop-color="white" stop-opacity="0.8"/>
</linearGradient>
<linearGradient id="paint5_linear_379_3615" x1="-296.651" y1="193.237" x2="1547.7" y2="193.237" gradientUnits="userSpaceOnUse">
<stop stop-color="#C08EFF"/>
<stop offset="0.9999" stop-color="white" stop-opacity="0.8"/>
</linearGradient>
<linearGradient id="paint6_linear_379_3615" x1="-297.542" y1="194.722" x2="1546.05" y2="194.722" gradientUnits="userSpaceOnUse">
<stop stop-color="#C08EFF"/>
<stop offset="0.9999" stop-color="white" stop-opacity="0.8"/>
</linearGradient>
<linearGradient id="paint7_linear_379_3615" x1="-298.374" y1="196.126" x2="1544.31" y2="196.126" gradientUnits="userSpaceOnUse">
<stop stop-color="#C08EFF"/>
<stop offset="0.9999" stop-color="white" stop-opacity="0.8"/>
</linearGradient>
<linearGradient id="paint8_linear_379_3615" x1="-299.225" y1="197.53" x2="1542.73" y2="197.53" gradientUnits="userSpaceOnUse">
<stop stop-color="#C08EFF"/>
<stop offset="0.9999" stop-color="white" stop-opacity="0.8"/>
</linearGradient>
<linearGradient id="paint9_linear_379_3615" x1="-300.078" y1="198.998" x2="1541.19" y2="198.998" gradientUnits="userSpaceOnUse">
<stop stop-color="#C08EFF"/>
<stop offset="0.9999" stop-color="white" stop-opacity="0.8"/>
</linearGradient>
<linearGradient id="paint10_linear_379_3615" x1="-300.929" y1="200.412" x2="1539.37" y2="200.412" gradientUnits="userSpaceOnUse">
<stop stop-color="#C08EFF"/>
<stop offset="0.9999" stop-color="white" stop-opacity="0.8"/>
</linearGradient>
<linearGradient id="paint11_linear_379_3615" x1="-301.761" y1="201.848" x2="1537.59" y2="201.848" gradientUnits="userSpaceOnUse">
<stop stop-color="#C08EFF"/>
<stop offset="0.9999" stop-color="white" stop-opacity="0.8"/>
</linearGradient>
<linearGradient id="paint12_linear_379_3615" x1="-302.613" y1="203.304" x2="1536.09" y2="203.304" gradientUnits="userSpaceOnUse">
<stop stop-color="#C08EFF"/>
<stop offset="0.9999" stop-color="white" stop-opacity="0.8"/>
</linearGradient>
<linearGradient id="paint13_linear_379_3615" x1="-303.465" y1="204.714" x2="1534.42" y2="204.714" gradientUnits="userSpaceOnUse">
<stop stop-color="#C08EFF"/>
<stop offset="0.9999" stop-color="white" stop-opacity="0.8"/>
</linearGradient>
<linearGradient id="paint14_linear_379_3615" x1="-304.394" y1="206.14" x2="1532.75" y2="206.14" gradientUnits="userSpaceOnUse">
<stop stop-color="#C08EFF"/>
<stop offset="0.9999" stop-color="white" stop-opacity="0.8"/>
</linearGradient>
<linearGradient id="paint15_linear_379_3615" x1="-305.148" y1="207.585" x2="1531.03" y2="207.585" gradientUnits="userSpaceOnUse">
<stop stop-color="#C08EFF"/>
<stop offset="0.9999" stop-color="white" stop-opacity="0.8"/>
</linearGradient>
<linearGradient id="paint16_linear_379_3615" x1="-306" y1="209.02" x2="1529.45" y2="209.02" gradientUnits="userSpaceOnUse">
<stop stop-color="#C08EFF"/>
<stop offset="0.9999" stop-color="white" stop-opacity="0.8"/>
</linearGradient>
<linearGradient id="paint17_linear_379_3615" x1="-306" y1="222.135" x2="1531" y2="222.135" gradientUnits="userSpaceOnUse">
<stop stop-color="#C08EFF"/>
<stop offset="0.9999" stop-color="white" stop-opacity="0.8"/>
</linearGradient>
<linearGradient id="paint18_linear_379_3615" x1="-306" y1="235.254" x2="1532.46" y2="235.254" gradientUnits="userSpaceOnUse">
<stop stop-color="#C08EFF"/>
<stop offset="0.9999" stop-color="white" stop-opacity="0.8"/>
</linearGradient>
<linearGradient id="paint19_linear_379_3615" x1="-306" y1="248.371" x2="1533.99" y2="248.371" gradientUnits="userSpaceOnUse">
<stop stop-color="#C08EFF"/>
<stop offset="0.9999" stop-color="white" stop-opacity="0.8"/>
</linearGradient>
<linearGradient id="paint20_linear_379_3615" x1="-306" y1="261.435" x2="1535.49" y2="261.435" gradientUnits="userSpaceOnUse">
<stop stop-color="#C08EFF"/>
<stop offset="0.9999" stop-color="white" stop-opacity="0.8"/>
</linearGradient>
<linearGradient id="paint21_linear_379_3615" x1="-306" y1="274.605" x2="1536.92" y2="274.605" gradientUnits="userSpaceOnUse">
<stop stop-color="#C08EFF"/>
<stop offset="0.9999" stop-color="white" stop-opacity="0.8"/>
</linearGradient>
<linearGradient id="paint22_linear_379_3615" x1="-306" y1="287.722" x2="1538.43" y2="287.722" gradientUnits="userSpaceOnUse">
<stop stop-color="#C08EFF"/>
<stop offset="0.9999" stop-color="white" stop-opacity="0.8"/>
</linearGradient>
<linearGradient id="paint23_linear_379_3615" x1="-306" y1="300.853" x2="1540.02" y2="300.853" gradientUnits="userSpaceOnUse">
<stop stop-color="#C08EFF"/>
<stop offset="0.9999" stop-color="white" stop-opacity="0.8"/>
</linearGradient>
<linearGradient id="paint24_linear_379_3615" x1="-306" y1="313.959" x2="1541.53" y2="313.959" gradientUnits="userSpaceOnUse">
<stop stop-color="#C08EFF"/>
<stop offset="0.9999" stop-color="white" stop-opacity="0.8"/>
</linearGradient>
<linearGradient id="paint25_linear_379_3615" x1="-306" y1="327.074" x2="1543.03" y2="327.073" gradientUnits="userSpaceOnUse">
<stop stop-color="#C08EFF"/>
<stop offset="0.9999" stop-color="white" stop-opacity="0.8"/>
</linearGradient>
<linearGradient id="paint26_linear_379_3615" x1="-306" y1="340.194" x2="1544.54" y2="340.194" gradientUnits="userSpaceOnUse">
<stop stop-color="#C08EFF"/>
<stop offset="0.9999" stop-color="white" stop-opacity="0.8"/>
</linearGradient>
<linearGradient id="paint27_linear_379_3615" x1="-306" y1="353.351" x2="1546.06" y2="353.351" gradientUnits="userSpaceOnUse">
<stop stop-color="#C08EFF"/>
<stop offset="0.9999" stop-color="white" stop-opacity="0.8"/>
</linearGradient>
<linearGradient id="paint28_linear_379_3615" x1="-306" y1="366.426" x2="1547.57" y2="366.426" gradientUnits="userSpaceOnUse">
<stop stop-color="#C08EFF"/>
<stop offset="0.9999" stop-color="white" stop-opacity="0.8"/>
</linearGradient>
<linearGradient id="paint29_linear_379_3615" x1="-306" y1="379.541" x2="1549.07" y2="379.541" gradientUnits="userSpaceOnUse">
<stop stop-color="#C08EFF"/>
<stop offset="0.9999" stop-color="white" stop-opacity="0.8"/>
</linearGradient>
<linearGradient id="paint30_linear_379_3615" x1="-306" y1="392.661" x2="1550.5" y2="392.661" gradientUnits="userSpaceOnUse">
<stop stop-color="#C08EFF"/>
<stop offset="0.9999" stop-color="white" stop-opacity="0.8"/>
</linearGradient>
<linearGradient id="paint31_linear_379_3615" x1="-306" y1="405.778" x2="1552.1" y2="405.778" gradientUnits="userSpaceOnUse">
<stop stop-color="#C08EFF"/>
<stop offset="0.9999" stop-color="white" stop-opacity="0.8"/>
</linearGradient>
<linearGradient id="paint32_linear_379_3615" x1="-306" y1="418.895" x2="1553.6" y2="418.895" gradientUnits="userSpaceOnUse">
<stop stop-color="#C08EFF"/>
<stop offset="0.9999" stop-color="white" stop-opacity="0.8"/>
</linearGradient>
</defs>
</svg>
