<svg width="1429" height="384" viewBox="0 0 1429 384" fill="none" xmlns="http://www.w3.org/2000/svg">
<path d="M-325.451 217.447C-198.695 206.841 -109.235 173.105 -50.6085 143.898C8.67624 114.362 51.3737 81.9614 129.394 64.5418C215.447 45.1866 271.674 53.8577 293.913 58.7352C324.746 65.5095 322.829 70.116 373.269 85.8324C470.161 116.026 488.567 102.594 531.981 122.607C603.963 155.782 582.498 206.125 657.789 261.964C712.313 302.417 802.585 334.604 884.244 312.288C961.142 291.268 969.794 238.487 1050.7 230.996C1083.93 227.919 1111.57 234.751 1166.83 248.416C1237.65 265.835 1285.21 287.32 1304.25 294.868C1360.67 317.262 1451.74 331.353 1600.38 287.126" stroke="url(#paint0_linear_379_3657)" stroke-miterlimit="10"/>
<path d="M-326.303 234.519C-203.688 225.364 -112.022 194.821 -48.0729 164.55C3.87623 139.62 43.4962 112.291 98.097 92.7616C110.039 88.5035 122.62 84.3809 136.169 80.8195C221.544 58.4062 277.558 62.1031 300.939 64.3676C332.294 67.387 332.294 70.8322 381.727 86.1035C416.566 96.8456 441.38 102.981 460.599 107.007C493.271 113.839 509.626 114.304 535.407 127.446C545.027 132.309 554.054 138.265 562.31 145.195C600.498 177.228 598.872 217.835 662.222 260.881C717.365 298.352 807.037 326.688 887.303 304.526C893.662 302.767 899.928 300.687 906.077 298.294C968.13 274.119 982.065 231.596 1053.18 224.919C1060.67 224.204 1068.2 223.991 1075.72 224.28C1101 225.17 1127.13 231.48 1168.51 241.7C1237.07 258.732 1283.89 279.81 1304.89 288.152C1320.27 294.205 1336.13 298.958 1352.31 302.359C1408.28 314.281 1487.41 315.52 1598.72 285.094" stroke="url(#paint1_linear_379_3657)" stroke-miterlimit="10"/>
<path d="M-327.154 253.1C-208.701 245.358 -114.732 218.261 -45.5371 186.557C9.41212 161.395 50.8708 132.653 104.465 112.136C116.698 107.433 129.375 102.672 142.982 98.5876C227.68 73.0969 283.403 70.0194 308.023 71.4904C339.746 73.4259 341.856 73.0581 390.205 87.8648C424.057 98.2586 448.774 105.284 467.626 110.22C499.387 118.485 514.659 120.149 538.775 133.795C547.964 139.05 556.602 145.216 564.556 152.201C601.447 184.021 603.266 222.19 666.693 261.364C722.455 295.836 811.528 320.32 890.4 298.313C897.077 296.378 903.252 294.442 909.039 292.12C973.046 267.5 987.214 226.951 1055.71 220.506C1063.15 219.774 1070.62 219.534 1078.09 219.79C1103.79 220.544 1129.88 226.68 1170.26 236.803C1236.57 253.371 1282.61 274.1 1305.59 283.042C1320.85 289.041 1336.56 293.804 1352.58 297.288C1408.05 309.481 1486.81 312.056 1597.02 284.649" stroke="url(#paint2_linear_379_3657)" stroke-miterlimit="10"/>
<path d="M-327.987 272.939C-213.695 266.687 -117.48 242.783 -42.9822 209.918C14.8896 184.37 58.2451 154.311 110.794 132.788C123.336 127.64 136.13 122.259 149.756 117.633C233.777 89.1036 289.113 83.1228 315.068 79.8712C347.179 75.8647 351.379 76.5421 398.663 90.8843C431.567 100.891 456.187 108.826 474.768 114.672C505.6 124.349 519.826 127.253 542.278 141.382C550.967 147.037 559.164 153.415 566.782 160.447C602.376 192.034 607.757 227.745 671.106 263.029C727.565 294.5 815.96 315.152 893.439 293.281C900.058 291.346 906.194 289.41 911.942 287.145C977.866 261.984 992.324 223.486 1058.17 217.08C1065.55 216.33 1072.97 216.065 1080.39 216.286C1106.52 216.886 1132.65 222.886 1171.96 232.816C1235.99 248.9 1281.3 269.261 1306.23 278.958C1321.39 284.866 1336.98 289.634 1352.85 293.223C1407.82 305.688 1486.21 309.617 1595.29 285.21" stroke="url(#paint3_linear_379_3657)" stroke-miterlimit="10"/>
<path d="M-328.839 292.817C-218.689 288.017 -120.268 267.345 -40.4471 233.3C20.3667 207.344 65.5996 175.95 117.142 153.46C129.975 147.866 142.865 141.847 156.549 136.698C239.893 105.188 294.726 94.4651 322.133 88.3102C354.514 81.0326 360.843 80.0842 407.14 93.9619C439.173 103.639 463.58 112.427 481.851 119.124C511.755 130.195 524.916 134.375 545.723 148.969C553.896 155.011 561.655 161.594 568.949 168.673C603.266 199.989 612.208 233.261 675.499 264.771C732.655 293.223 820.353 310.062 896.457 288.346C902.999 286.41 909.096 284.475 914.825 282.249C982.684 256.564 997.394 220.312 1060.61 213.828C1067.94 213.088 1075.31 212.798 1082.67 212.957C1109.19 213.422 1135.24 219.267 1173.64 229.003C1235.42 244.642 1279.98 264.655 1306.86 275.049C1321.92 280.899 1337.37 285.678 1353.1 289.352C1407.59 302.107 1485.61 307.352 1593.59 285.984" stroke="url(#paint4_linear_379_3657)" stroke-miterlimit="10"/>
<path d="M-329.651 305.63C-223.643 302.281 -122.997 284.862 -37.8728 249.635C25.8637 223.254 72.9934 190.467 123.53 167.085C136.633 161.027 149.659 154.447 163.382 148.717C246.009 114.227 300.397 98.8586 329.178 89.6649C361.849 79.2518 370.424 76.5227 415.599 89.9552C440.546 97.4 465.034 106.306 488.935 116.627C517.968 129.072 530.026 134.569 549.13 149.53C557.472 156.092 564.091 163.079 571.253 169.873C604.292 200.841 616.815 231.809 679.99 259.448C737.9 284.862 824.863 297.907 899.574 276.345C906.058 274.41 912.116 272.474 917.806 270.287C987.62 244.138 1002.58 209.802 1063.16 203.512C1070.44 202.77 1077.75 202.459 1085.05 202.583C1112 202.951 1138.01 208.583 1175.36 218.067C1234.88 233.203 1278.7 252.906 1307.52 263.997C1322.48 269.785 1337.81 274.569 1353.41 278.32C1407.39 291.365 1485.03 297.965 1591.91 279.597" stroke="url(#paint5_linear_379_3657)" stroke-miterlimit="10"/>
<path d="M-330.542 314.765C-228.695 312.83 -125.823 298.643 -35.376 262.274C31.2831 235.467 80.2709 201.247 129.839 177.112C143.233 170.57 156.356 163.408 170.137 157.137C252.144 119.724 306.107 99.7297 336.243 87.4585C369.146 74.0067 379.946 69.4002 424.076 82.3681C448.803 89.6355 472.865 98.9986 496 110.356C524.084 124.137 535.116 130.988 552.555 146.472C560.297 153.305 566.394 160.582 573.498 167.453C605.279 198.228 621.402 226.525 684.422 250.506C743.126 272.842 829.334 282.133 902.651 260.706C909.058 258.771 915.058 256.835 920.748 254.687C992.517 228.132 1007.79 195.77 1065.66 189.712C1072.88 188.95 1080.14 188.614 1087.4 188.705C1114.73 188.938 1140.74 194.396 1177.07 203.764C1234.32 218.454 1277.39 237.79 1308.18 249.616C1323.04 255.33 1338.23 260.12 1353.68 263.958C1407.18 277.294 1484.45 285.249 1590.22 269.862" stroke="url(#paint6_linear_379_3657)" stroke-miterlimit="10"/>
<path d="M-331.374 324.036C-233.689 323.591 -128.629 312.559 -32.8211 275.048C36.7413 247.796 87.5678 212.105 136.169 187.099C149.853 180.034 163.111 172.292 176.931 165.518C258.28 125.22 311.855 100.678 343.288 85.1938C376.637 68.7806 389.469 62.2385 432.534 74.742C457.082 81.9332 480.746 91.8534 503.084 104.317C530.181 119.394 540.207 127.678 556.001 143.55C563.085 150.672 568.698 158.182 575.724 165.189C606.266 195.634 626.047 221.415 688.874 241.7C748.391 260.919 833.786 266.474 905.651 245.222C912 243.287 917.961 241.351 923.613 239.222C997.337 212.125 1012.78 181.795 1068.1 175.776C1075.26 175.014 1082.46 174.652 1089.66 174.692C1117.42 174.692 1143.39 180.073 1178.69 189.286C1233.7 203.473 1275.99 222.499 1308.76 235.003C1323.52 240.668 1338.59 245.477 1353.9 249.403C1406.89 262.951 1483.79 272.261 1588.44 259.932" stroke="url(#paint7_linear_379_3657)" stroke-miterlimit="10"/>
<path d="M-332.225 333.346C-238.682 334.353 -131.416 326.514 -30.2853 287.862C42.1997 260.164 94.865 222.983 142.517 197.221C156.453 189.692 169.866 181.428 183.705 173.995C264.416 130.814 317.642 101.723 350.353 83.0259C384.108 63.6708 398.992 55.1545 441.012 67.1934C465.373 74.3016 488.642 84.7217 510.168 98.1617C536.433 114.555 545.278 124.272 559.427 140.53C565.872 147.962 571.04 155.666 577.969 162.808C607.273 192.944 630.673 216.151 693.306 232.796C753.675 248.842 838.238 250.738 908.768 229.622C915.058 227.686 920.981 225.751 926.594 223.68C1002.29 196.176 1017.95 167.782 1070.65 161.879C1077.76 161.115 1084.91 160.727 1092.06 160.717C1120.22 160.543 1146.26 165.808 1180.49 174.827C1233.22 188.55 1274.77 207.247 1309.5 220.448C1324.14 226.074 1339.08 230.914 1354.25 234.945C1406.76 248.842 1483.29 259.429 1586.84 250.119" stroke="url(#paint8_linear_379_3657)" stroke-miterlimit="10"/>
<path d="M-333.078 342.617C-243.676 345.017 -134.165 340.353 -27.7117 300.578C47.7733 272.416 102.161 233.725 148.904 207.247C163.111 199.196 176.659 190.409 190.537 182.434C270.59 136.427 323.487 102.807 357.455 80.8003C391.695 58.5999 408.572 48.032 449.528 59.6064C473.72 66.69 496.599 77.659 517.271 92.0843C542.626 109.736 550.368 120.962 562.871 137.588C568.678 145.33 573.343 153.208 580.291 160.505C608.395 190.312 635.453 210.828 697.854 223.951C759.075 236.783 842.785 235.061 911.941 214.099C918.154 212.164 924.038 210.228 929.632 208.293C1007.28 180.363 1023.18 153.905 1073.23 148.156C1080.3 147.352 1087.4 146.938 1094.52 146.917C1123.09 146.724 1149.02 151.698 1182.33 160.466C1232.79 173.724 1273.59 192.092 1310.29 205.989C1323.55 211.022 1338.24 215.996 1354.67 220.448C1406.68 234.616 1482.84 246.558 1585.27 240.248" stroke="url(#paint9_linear_379_3657)" stroke-miterlimit="10"/>
<path d="M-333.929 351.618C-248.766 355.489 -137.029 354.018 -25.2146 313.14C53.0963 284.513 109.362 244.274 155.214 217.099C169.672 208.525 183.376 199.235 197.292 190.68C276.764 141.847 329.371 103.717 364.462 78.4197C399.185 53.258 418.037 40.7546 457.948 51.8644C481.998 58.9298 504.514 70.431 524.336 85.7746C548.82 104.704 555.304 117.459 566.278 134.414C571.446 142.466 575.646 150.537 582.44 157.969C609.343 187.409 640.041 205.351 702.19 214.874C764.339 224.396 847.141 219.132 914.903 198.325C921.058 196.389 926.903 194.454 932.458 192.518C1012.09 164.163 1028.21 139.64 1075.69 134.027C1082.68 133.21 1089.72 132.777 1096.76 132.73C1125.8 132.362 1151.65 137.201 1183.86 145.853C1232.08 158.627 1272.1 176.686 1310.77 191.26C1323.97 196.254 1338.55 201.209 1354.79 205.757C1406.29 220.196 1482.09 233.474 1583.41 230.203" stroke="url(#paint10_linear_379_3657)" stroke-miterlimit="10"/>
<path d="M-334.761 360.502C-253.683 365.863 -139.836 367.508 -22.6597 325.546C58.6319 296.513 116.581 254.629 161.543 226.835C176.272 217.719 190.131 207.944 204.124 198.809C282.977 147.13 335.314 104.549 371.508 75.8454C406.792 47.9353 427.638 33.2641 466.348 43.9288C492.051 51.0128 515.394 65.6646 531.362 79.2713C554.994 99.4393 560.394 113.762 569.666 131.046C574.156 139.408 577.911 147.672 584.608 155.26C610.331 184.292 644.609 199.564 706.545 205.583C769.507 211.757 851.515 203.009 917.884 182.357C923.961 180.421 929.768 178.486 935.303 176.55C1016.89 147.75 1033.22 125.162 1078.03 119.704C1084.97 118.875 1091.96 118.416 1098.95 118.33C1128.35 117.769 1154.21 122.491 1185.51 130.969C1231.46 143.279 1270.67 161.008 1311.32 176.279C1324.46 181.215 1338.92 186.189 1354.94 190.796C1405.96 205.525 1481.39 220.138 1581.59 219.828" stroke="url(#paint11_linear_379_3657)" stroke-miterlimit="10"/>
<path d="M-335.613 369.27C-258.676 376.102 -142.72 380.651 -20.1241 337.818C63.9353 308.088 123.781 264.849 167.892 236.377C182.853 226.7 196.924 216.461 210.879 206.745C289.19 152.337 341.275 105.149 378.572 73.1939C414.437 42.458 437.064 25.7351 474.883 35.9159C499.677 42.6515 522.904 58.0776 538.504 72.6907C561.285 94.0975 565.388 109.969 573.149 127.601C577.021 136.272 580.291 144.692 586.911 152.434C611.453 181.157 649.37 193.622 711.074 196.312C774.946 199.08 856.064 186.905 921.039 166.389C927.065 164.466 932.826 162.531 938.323 160.582C1021.9 131.395 1038.45 110.704 1080.62 105.401C1087.51 104.549 1094.43 104.064 1101.37 103.949C1131.18 103.233 1157.04 107.82 1187.33 116.104C1230.99 127.93 1269.49 145.427 1312.13 161.318C1325.21 166.234 1339.54 171.17 1355.39 175.854C1405.9 190.873 1480.96 206.822 1580.06 209.57" stroke="url(#paint12_linear_379_3657)" stroke-miterlimit="10"/>
<path d="M-336.465 377.902C-263.69 386.167 -145.507 393.909 -17.589 349.953C69.3929 319.778 131 274.874 174.24 245.842C189.433 235.642 203.659 224.899 217.673 214.603C295.422 157.427 347.352 105.71 385.617 70.3873C422.101 36.8061 446.586 17.9542 483.264 27.6898C507.167 34.0577 530.297 50.2773 545.49 65.9356C567.459 88.5811 570.265 106.039 576.459 124.001C579.594 133.001 582.517 141.595 589.02 149.472C612.537 177.808 654.073 189.421 715.525 186.809C780.133 184.06 860.534 170.57 924.135 150.208C930.096 148.285 935.813 146.35 941.284 144.401C1026.87 114.943 1043.59 96.0135 1083.14 90.865C1089.97 90.0061 1096.85 89.5022 1103.73 89.3553C1133.94 88.5037 1159.86 92.9167 1189.05 100.968C1230.37 112.427 1268.19 129.711 1312.79 146.182C1325.81 151.06 1340.02 155.995 1355.66 160.756C1405.69 176.066 1480.38 193.351 1578.36 199.118" stroke="url(#paint13_linear_379_3657)" stroke-miterlimit="10"/>
<path d="M-337.394 386.437C-268.761 396.115 -148.372 407.089 -15.1308 361.992C74.7738 331.372 138.026 284.823 180.491 255.132C195.976 244.371 210.356 233.183 224.37 222.228C301.597 162.227 353.236 106.097 392.604 67.3872C429.786 30.9995 456.167 10.1346 491.819 19.3864C514.813 25.3865 537.845 42.3803 552.652 59.0838C573.807 82.9294 575.259 101.975 580.001 120.246C582.44 129.575 584.975 138.324 591.382 146.376C613.64 174.324 658.621 181.215 719.958 177.189C785.417 172.95 864.966 154.118 927.174 133.911C932.98 131.975 938.787 130.04 944.187 128.104C1031.73 98.2006 1048.7 81.1874 1085.61 76.2131C1092.39 75.3308 1099.21 74.801 1106.03 74.626C1136.65 73.6195 1162.47 77.897 1190.73 85.7939C1229.89 96.6909 1266.88 113.549 1313.42 130.814C1326.41 135.653 1340.52 140.492 1356.01 145.427C1405.54 160.911 1479.88 179.628 1576.65 188.415" stroke="url(#paint14_linear_379_3657)" stroke-miterlimit="10"/>
<path d="M-338.148 394.876C-273.676 406.044 -151.1 420.173 -12.4983 373.953C80.4063 342.888 145.246 294.597 186.86 264.384C202.498 253.042 217.17 241.429 231.183 229.932C308.003 167.376 359.314 106.446 399.572 64.4063C437.354 25.096 465.477 2.2182 500.219 11.0441C522.303 16.6765 545.278 34.4445 559.678 52.1738C580.04 77.3355 580.098 97.852 583.388 116.472C585.072 126.149 587.259 135.033 593.55 143.24C614.685 170.802 663.228 174.75 724.332 167.531C790.585 159.788 869.38 137.627 930.174 117.556C935.981 115.62 941.652 113.685 947.052 111.904C1036.57 81.555 1053.74 66.3999 1088.03 61.5804C1094.8 60.7107 1101.61 60.1938 1108.43 60.032C1136.83 58.9627 1165.21 62.5589 1192.44 70.6774C1229.33 81.1098 1265.56 97.6391 1314.08 115.601C1327.01 120.381 1340.99 125.278 1356.22 130.233C1427.43 153.021 1500.65 168.971 1574.89 177.866" stroke="url(#paint15_linear_379_3657)" stroke-miterlimit="10"/>
<path d="M-339 403.257C-278.67 415.877 -153.888 433.2 -9.96277 385.837C85.7871 354.327 152.349 304.41 193.266 273.578C374.875 136.601 432.36 -16.3819 508.755 2.60546C529.929 7.87006 552.846 26.4123 566.82 45.1868C596.666 85.252 577.853 115.64 595.853 140.027C639.983 199.834 838.489 133.04 950.052 95.5102C1058.83 58.9096 1062.85 47.1223 1110.7 45.1868C1194.22 41.7609 1237.63 75.3034 1356.51 114.865C1427.19 138.275 1499.7 155.755 1573.29 167.124" stroke="url(#paint16_linear_379_3657)" stroke-miterlimit="10"/>
<path d="M-339 408.793C-277.064 422.593 -156.152 438.406 -18.5564 393.076C76.4192 361.702 140.156 311.301 184.072 278.881C359.507 149.531 414.224 9.43795 492.051 21.9414C522.458 26.8189 553.33 36.5932 573.711 51.5741C613.756 81.0327 598.872 107.375 622.098 130.93C672.944 182.531 858.096 124.601 964.317 90.1683C1067.79 56.5097 1071.97 46.9869 1122.54 48.9225C1206.58 52.1354 1248.02 81.8262 1360.01 119.801C1429.88 143.481 1501.83 160.531 1574.89 170.724" stroke="url(#paint17_linear_379_3657)" stroke-miterlimit="10"/>
<path d="M-339 414.561C-235.709 438.338 -127.888 433.486 -27.1501 400.528C67.0513 369.308 127.846 318.385 174.879 284.397C343.907 162.344 396.824 33.0511 475.367 41.49C515.219 45.7868 552.691 46.8707 580.601 58.1935C628.486 77.5486 619.156 99.0328 648.344 122.065C704.106 166.021 877.702 116.375 978.601 85.0391C1076.6 54.3224 1080.95 46.8707 1134.41 52.8708C1218.76 62.3161 1258.42 88.7553 1363.52 124.969C1432.55 148.903 1503.91 165.523 1576.42 174.557" stroke="url(#paint18_linear_379_3657)" stroke-miterlimit="10"/>
<path d="M-339 424.819C-238.717 448.882 -133.72 444.606 -35.7244 412.47C57.6834 381.386 115.555 329.94 165.685 294.404C327.959 179.396 379.985 74.568 458.664 65.5292C507.884 59.8775 551.413 62.2001 587.511 69.2841C642.054 79.9681 638.879 95.2006 674.609 117.672C733.758 154.873 897.348 112.833 992.865 84.4004C1085.54 56.8194 1089.85 51.0709 1146.25 61.2904C1230.88 76.6197 1268.79 100.136 1367.04 134.608C1435.25 158.824 1506.05 175.024 1578.01 182.879" stroke="url(#paint19_linear_379_3657)" stroke-miterlimit="10"/>
<path d="M-339 440.438C-241.732 464.773 -139.56 461.055 -44.3181 429.715C48.3155 398.747 103.245 346.779 156.491 309.713C311.894 201.538 363.378 106.717 441.98 94.8713C500.374 86.084 551.936 72.6516 594.401 85.6776C652.834 103.6 655.021 104.839 700.854 118.581C755.997 160.408 916.974 114.536 1007.15 89.0647C1094.44 64.4837 1098.74 60.4191 1158.12 75.0322C1242.95 95.9165 1279.15 116.897 1370.54 149.55C1437.94 174.041 1508.18 189.814 1579.58 196.486" stroke="url(#paint20_linear_379_3657)" stroke-miterlimit="10"/>
<path d="M-339 456.426C-244.752 481.049 -145.4 477.944 -52.8731 447.484C38.9864 416.67 90.955 364.121 147.336 325.546C295.713 224.009 346.617 138.324 425.199 124.736C492.942 113.046 549.304 94.5037 601.33 102.613C668.415 113.065 674.357 108.962 727.139 120.033C784.991 157.253 936.581 116.607 1021.34 94.2521C1103.25 72.6711 1107.54 70.0968 1169.89 89.2971C1255.05 115.465 1289.41 134.22 1373.97 165.014C1440.54 189.783 1510.25 205.131 1581.07 210.615" stroke="url(#paint21_linear_379_3657)" stroke-miterlimit="10"/>
<path d="M-339 472.723C-247.793 497.585 -151.288 495.06 -61.5055 465.465C29.5798 434.787 78.5482 381.657 138.104 341.592C279.396 246.538 329.72 169.524 408.592 154.814C485.49 140.472 547.678 128.704 608.182 119.743C682.893 108.672 693.616 113.259 753.346 121.678C814.005 154.408 956.187 118.969 1035.7 99.6522C1112.23 81.0713 1116.53 79.8712 1181.83 103.775C1267.15 135.014 1299.8 151.834 1377.47 180.712C1443.23 205.747 1512.4 220.671 1582.64 224.977" stroke="url(#paint22_linear_379_3657)" stroke-miterlimit="10"/>
<path d="M-339 489.233C-266.941 510.078 -169.643 517.104 -70.0798 483.678C20.2893 453.329 66.1803 399.386 128.91 357.869C262.983 269.145 312.784 200.512 391.888 185.125C478.135 168.363 546.729 151.969 615.092 137.105C696.964 119.278 714.771 106.833 779.61 123.556C846.792 140.879 975.794 121.62 1049.96 105.285C1121.11 89.6844 1125.45 89.8005 1193.67 118.465C1279.42 154.602 1310.12 169.718 1381.07 196.622C1425.18 213.344 1491.72 235.216 1584.3 239.551" stroke="url(#paint23_linear_379_3657)" stroke-miterlimit="10"/>
<path d="M-339 506.033C-265.257 528.02 -171.907 533.575 -78.6735 502.162C10.9215 471.968 53.7737 417.328 119.717 374.418C246.473 291.907 295.558 231.461 375.204 215.706C470.819 196.776 545.955 175.621 621.982 154.737C711.229 130.214 733.507 111.556 805.856 125.704C874.819 139.253 995.382 124.388 1064.25 111.188C1130.05 98.5682 1134.55 99.7295 1205.54 133.446C1291.71 174.344 1320.39 187.95 1384.57 212.802C1428.05 229.641 1493.6 251.513 1585.87 254.416" stroke="url(#paint24_linear_379_3657)" stroke-miterlimit="10"/>
<path d="M-339 523.027C-263.515 546.253 -174.172 550.24 -87.2672 520.859C1.55353 490.82 41.3283 435.464 110.523 391.18C229.905 314.765 278.332 262.429 358.501 246.5C463.58 225.616 545.278 199.544 628.873 172.583C725.648 141.382 752.262 116.936 832.102 128.066C902.941 137.937 1014.97 127.466 1078.51 117.304C1138.86 107.627 1143.64 109.852 1217.38 148.64C1304.1 194.222 1330.65 206.454 1388.08 229.196C1430.93 246.171 1495.46 268.12 1587.44 269.474" stroke="url(#paint25_linear_379_3657)" stroke-miterlimit="10"/>
<path d="M-339 540.272C-261.908 564.602 -176.417 567.137 -95.8608 539.789C-7.8143 509.885 28.8443 453.755 101.329 408.173C213.26 337.759 259.712 284.088 341.817 277.526C458.219 268.216 544.659 223.719 635.763 190.66C740.145 152.802 775.12 103.562 858.347 130.659C927.871 153.363 1034.48 130.659 1092.8 123.653C1147.73 116.975 1152.8 120.13 1229.25 164.047C1316.56 214.235 1340.87 225.267 1391.58 245.822C1433.79 262.952 1497.34 284.92 1589 284.784" stroke="url(#paint26_linear_379_3657)" stroke-miterlimit="10"/>
<path d="M-339 558.079C-260.225 583.589 -178.681 584.557 -104.435 559.395C-17.1822 529.627 16.3215 472.645 92.1356 425.845C196.653 361.334 242.467 317.127 325.113 309.23C450.922 297.172 544.117 248.59 642.673 209.415C754.739 164.898 792.424 112.427 884.612 133.93C957.736 151.001 1054.12 134.666 1107.06 130.678C1156.59 126.943 1162.11 131.008 1241.09 180.15C1329.1 234.887 1351.09 244.816 1395.1 263.126C1436.66 280.429 1499.22 302.378 1590.59 300.752" stroke="url(#paint27_linear_379_3657)" stroke-miterlimit="10"/>
<path d="M-339 577.008C-258.56 603.699 -180.965 603.177 -113.029 579.912C-26.5501 550.279 3.74071 492.368 82.9419 444.426C179.834 385.76 225.202 351.076 308.429 341.843C443.683 326.843 543.613 274.391 649.563 229.1C769.41 177.866 810.211 123.266 910.858 138.13C987.388 149.434 1073.67 139.485 1121.34 138.614C1165.44 137.801 1171.46 142.756 1252.96 197.164C1341.7 256.41 1361.35 265.352 1398.61 281.358C1439.5 298.894 1501.19 320.766 1592.16 317.649" stroke="url(#paint28_linear_379_3657)" stroke-miterlimit="10"/>
<path d="M-339 596.267C-256.876 624.138 -183.23 622.087 -121.622 600.873C-35.918 571.357 -8.89819 512.401 73.7482 463.452C163.072 410.535 207.879 385.431 291.726 374.902C436.347 356.747 543.149 300.617 656.454 249.21C784.198 191.28 828.444 135.343 937.103 142.756C1016.85 148.195 1093.24 144.692 1135.61 146.995C1174.24 149.066 1180.86 154.873 1264.81 214.622C1354.4 278.358 1371.41 286.488 1402.11 300.036C1442.31 317.862 1502.95 339.617 1593.73 334.992" stroke="url(#paint29_linear_379_3657)" stroke-miterlimit="10"/>
<path d="M-339 617.229C-255.192 646.261 -185.553 642.584 -130.216 623.519C-45.3439 593.944 -21.6339 533.963 64.5545 484.162C146.272 436.935 190.537 421.451 275.042 409.645C428.954 388.141 542.723 328.546 663.267 271.004C798.753 206.377 847.508 157.892 963.271 149.066C1045.76 142.795 1112.71 151.582 1149.82 157.06C1183.05 161.976 1190.27 168.673 1276.59 233.745C1367.06 301.991 1381.46 309.23 1405.54 320.359C1444.98 338.611 1504.75 360.115 1595.22 353.999" stroke="url(#paint30_linear_379_3657)" stroke-miterlimit="10"/>
<path d="M-339 637.977C-253.528 668.19 -187.817 663.003 -138.791 645.971C-54.7118 616.532 -34.4857 555.118 55.3608 504.678C129.452 463.084 173.156 457.258 258.338 444.193C421.521 419.167 542.317 356.263 670.254 292.623C813.656 221.261 866.999 168.75 989.614 155.201C1074.78 145.834 1132.4 158.163 1164.16 166.931C1192.01 174.673 1199.89 182.221 1288.51 252.693C1379.95 325.391 1391.6 331.914 1409.14 340.527C1447.69 359.456 1506.71 380.418 1596.88 372.811" stroke="url(#paint31_linear_379_3657)" stroke-miterlimit="10"/>
<path d="M-339 658.745C-251.902 690.12 -189.965 683.442 -147.384 668.423C-64.1571 639.119 -47.473 575.963 46.1671 525.195C112.633 489.155 155.756 493.065 241.654 478.742C414.011 450 541.929 383.902 677.144 314.223C828.463 236.145 886.548 179.531 1015.86 161.318C1104.02 148.911 1152.06 164.647 1178.44 176.802C1200.95 187.176 1209.41 195.751 1300.38 271.642C1392.8 348.811 1401.61 354.676 1412.64 360.676C1449.94 380.979 1508.56 400.741 1598.45 391.644" stroke="url(#paint32_linear_379_3657)" stroke-miterlimit="10"/>
<defs>
<linearGradient id="paint0_linear_379_3657" x1="-325.451" y1="186.06" x2="1523.01" y2="186.06" gradientUnits="userSpaceOnUse">
<stop stop-color="white"/>
<stop offset="0.9999" stop-color="#DDB44B"/>
</linearGradient>
<linearGradient id="paint1_linear_379_3657" x1="-326.303" y1="187.487" x2="1521.38" y2="187.487" gradientUnits="userSpaceOnUse">
<stop stop-color="white"/>
<stop offset="0.9999" stop-color="#DDB44B"/>
</linearGradient>
<linearGradient id="paint2_linear_379_3657" x1="-327.154" y1="188.94" x2="1519.71" y2="188.94" gradientUnits="userSpaceOnUse">
<stop stop-color="white"/>
<stop offset="0.9999" stop-color="#DDB44B"/>
</linearGradient>
<linearGradient id="paint3_linear_379_3657" x1="-327.987" y1="190.422" x2="1518.02" y2="190.422" gradientUnits="userSpaceOnUse">
<stop stop-color="white"/>
<stop offset="0.9999" stop-color="#DDB44B"/>
</linearGradient>
<linearGradient id="paint4_linear_379_3657" x1="-328.839" y1="191.789" x2="1516.35" y2="191.789" gradientUnits="userSpaceOnUse">
<stop stop-color="white"/>
<stop offset="0.9999" stop-color="#DDB44B"/>
</linearGradient>
<linearGradient id="paint5_linear_379_3657" x1="-329.651" y1="193.237" x2="1514.7" y2="193.237" gradientUnits="userSpaceOnUse">
<stop stop-color="white"/>
<stop offset="0.9999" stop-color="#DDB44B"/>
</linearGradient>
<linearGradient id="paint6_linear_379_3657" x1="-330.542" y1="194.722" x2="1513.05" y2="194.722" gradientUnits="userSpaceOnUse">
<stop stop-color="white"/>
<stop offset="0.9999" stop-color="#DDB44B"/>
</linearGradient>
<linearGradient id="paint7_linear_379_3657" x1="-331.374" y1="196.126" x2="1511.31" y2="196.126" gradientUnits="userSpaceOnUse">
<stop stop-color="white"/>
<stop offset="0.9999" stop-color="#DDB44B"/>
</linearGradient>
<linearGradient id="paint8_linear_379_3657" x1="-332.225" y1="197.53" x2="1509.73" y2="197.53" gradientUnits="userSpaceOnUse">
<stop stop-color="white"/>
<stop offset="0.9999" stop-color="#DDB44B"/>
</linearGradient>
<linearGradient id="paint9_linear_379_3657" x1="-333.078" y1="198.998" x2="1508.19" y2="198.998" gradientUnits="userSpaceOnUse">
<stop stop-color="white"/>
<stop offset="0.9999" stop-color="#DDB44B"/>
</linearGradient>
<linearGradient id="paint10_linear_379_3657" x1="-333.929" y1="200.412" x2="1506.37" y2="200.412" gradientUnits="userSpaceOnUse">
<stop stop-color="white"/>
<stop offset="0.9999" stop-color="#DDB44B"/>
</linearGradient>
<linearGradient id="paint11_linear_379_3657" x1="-334.761" y1="201.848" x2="1504.59" y2="201.848" gradientUnits="userSpaceOnUse">
<stop stop-color="white"/>
<stop offset="0.9999" stop-color="#DDB44B"/>
</linearGradient>
<linearGradient id="paint12_linear_379_3657" x1="-335.613" y1="203.304" x2="1503.09" y2="203.304" gradientUnits="userSpaceOnUse">
<stop stop-color="white"/>
<stop offset="0.9999" stop-color="#DDB44B"/>
</linearGradient>
<linearGradient id="paint13_linear_379_3657" x1="-336.465" y1="204.714" x2="1501.42" y2="204.714" gradientUnits="userSpaceOnUse">
<stop stop-color="white"/>
<stop offset="0.9999" stop-color="#DDB44B"/>
</linearGradient>
<linearGradient id="paint14_linear_379_3657" x1="-337.394" y1="206.14" x2="1499.75" y2="206.14" gradientUnits="userSpaceOnUse">
<stop stop-color="white"/>
<stop offset="0.9999" stop-color="#DDB44B"/>
</linearGradient>
<linearGradient id="paint15_linear_379_3657" x1="-338.148" y1="207.585" x2="1498.03" y2="207.585" gradientUnits="userSpaceOnUse">
<stop stop-color="white"/>
<stop offset="0.9999" stop-color="#DDB44B"/>
</linearGradient>
<linearGradient id="paint16_linear_379_3657" x1="-339" y1="209.02" x2="1496.45" y2="209.02" gradientUnits="userSpaceOnUse">
<stop stop-color="white"/>
<stop offset="0.9999" stop-color="#DDB44B"/>
</linearGradient>
<linearGradient id="paint17_linear_379_3657" x1="-339" y1="222.135" x2="1498" y2="222.135" gradientUnits="userSpaceOnUse">
<stop stop-color="white"/>
<stop offset="0.9999" stop-color="#DDB44B"/>
</linearGradient>
<linearGradient id="paint18_linear_379_3657" x1="-339" y1="235.254" x2="1499.46" y2="235.254" gradientUnits="userSpaceOnUse">
<stop stop-color="white"/>
<stop offset="0.9999" stop-color="#DDB44B"/>
</linearGradient>
<linearGradient id="paint19_linear_379_3657" x1="-339" y1="248.371" x2="1500.99" y2="248.371" gradientUnits="userSpaceOnUse">
<stop stop-color="white"/>
<stop offset="0.9999" stop-color="#DDB44B"/>
</linearGradient>
<linearGradient id="paint20_linear_379_3657" x1="-339" y1="261.435" x2="1502.49" y2="261.435" gradientUnits="userSpaceOnUse">
<stop stop-color="white"/>
<stop offset="0.9999" stop-color="#DDB44B"/>
</linearGradient>
<linearGradient id="paint21_linear_379_3657" x1="-339" y1="274.605" x2="1503.92" y2="274.605" gradientUnits="userSpaceOnUse">
<stop stop-color="white"/>
<stop offset="0.9999" stop-color="#DDB44B"/>
</linearGradient>
<linearGradient id="paint22_linear_379_3657" x1="-339" y1="287.722" x2="1505.43" y2="287.722" gradientUnits="userSpaceOnUse">
<stop stop-color="white"/>
<stop offset="0.9999" stop-color="#DDB44B"/>
</linearGradient>
<linearGradient id="paint23_linear_379_3657" x1="-339" y1="300.853" x2="1507.02" y2="300.853" gradientUnits="userSpaceOnUse">
<stop stop-color="white"/>
<stop offset="0.9999" stop-color="#DDB44B"/>
</linearGradient>
<linearGradient id="paint24_linear_379_3657" x1="-339" y1="313.959" x2="1508.53" y2="313.959" gradientUnits="userSpaceOnUse">
<stop stop-color="white"/>
<stop offset="0.9999" stop-color="#DDB44B"/>
</linearGradient>
<linearGradient id="paint25_linear_379_3657" x1="-339" y1="327.074" x2="1510.03" y2="327.073" gradientUnits="userSpaceOnUse">
<stop stop-color="white"/>
<stop offset="0.9999" stop-color="#DDB44B"/>
</linearGradient>
<linearGradient id="paint26_linear_379_3657" x1="-339" y1="340.194" x2="1511.54" y2="340.194" gradientUnits="userSpaceOnUse">
<stop stop-color="white"/>
<stop offset="0.9999" stop-color="#DDB44B"/>
</linearGradient>
<linearGradient id="paint27_linear_379_3657" x1="-339" y1="353.351" x2="1513.06" y2="353.351" gradientUnits="userSpaceOnUse">
<stop stop-color="white"/>
<stop offset="0.9999" stop-color="#DDB44B"/>
</linearGradient>
<linearGradient id="paint28_linear_379_3657" x1="-339" y1="366.426" x2="1514.57" y2="366.426" gradientUnits="userSpaceOnUse">
<stop stop-color="white"/>
<stop offset="0.9999" stop-color="#DDB44B"/>
</linearGradient>
<linearGradient id="paint29_linear_379_3657" x1="-339" y1="379.541" x2="1516.07" y2="379.541" gradientUnits="userSpaceOnUse">
<stop stop-color="white"/>
<stop offset="0.9999" stop-color="#DDB44B"/>
</linearGradient>
<linearGradient id="paint30_linear_379_3657" x1="-339" y1="392.661" x2="1517.5" y2="392.661" gradientUnits="userSpaceOnUse">
<stop stop-color="white"/>
<stop offset="0.9999" stop-color="#DDB44B"/>
</linearGradient>
<linearGradient id="paint31_linear_379_3657" x1="-339" y1="405.778" x2="1519.1" y2="405.778" gradientUnits="userSpaceOnUse">
<stop stop-color="white"/>
<stop offset="0.9999" stop-color="#DDB44B"/>
</linearGradient>
<linearGradient id="paint32_linear_379_3657" x1="-339" y1="418.895" x2="1520.6" y2="418.895" gradientUnits="userSpaceOnUse">
<stop stop-color="white"/>
<stop offset="0.9999" stop-color="#DDB44B"/>
</linearGradient>
</defs>
</svg>
