<svg width="636" height="637" viewBox="0 0 636 637" fill="none" xmlns="http://www.w3.org/2000/svg">
<path d="M264.896 202.884C259.737 202.216 213.936 202.216 205.719 202.884C205.578 202.915 205.454 202.998 205.372 203.116C205.289 203.234 205.254 203.379 205.273 203.521C205.302 203.628 205.359 203.725 205.437 203.803C205.515 203.882 205.612 203.938 205.719 203.967C213.108 204.604 259.641 204.891 264.737 204.222C265.47 204.158 265.693 202.98 264.896 202.884ZM480.043 282.573C479.406 282.573 471.221 285.472 473.386 286.65L475.68 288.561C475.17 289.708 480.17 294.931 476.731 307.225C475.297 306.238 475.266 307.225 475.457 307.544C480.776 313.022 518.773 343.439 527.245 348.949C528.009 350.063 532.85 347.675 533.615 347.42C550.442 340.245 566.869 332.165 582.823 323.214C588.652 320.029 588.588 308.595 581.517 304.104C574.08 299.158 566.335 294.69 558.33 290.727L568.204 282.987C568.905 282.446 568.522 280.439 565.847 282.605C560.086 273.296 557.754 262.268 559.254 251.424C559.636 251.201 563.904 248.653 562.025 247.825C552.47 243.844 520.811 232.218 511.065 231.613C507.88 231.39 482.4 251.774 480.011 255.883C474.915 264.387 476.476 274.101 480.202 282.669L480.043 282.573ZM477.495 307.703C480.68 304.231 479.693 294.708 478.164 290.504C482.527 294.007 517.594 320.443 528.742 327.514C534.761 340.254 528.041 346.432 528.264 347.388C509.6 334.425 494.407 319.615 477.495 307.703ZM581.294 306.27C586.613 309.009 585.403 320.411 581.581 321.749C564.464 330.918 546.997 339.418 529.219 347.229C531.57 344.057 532.853 340.22 532.882 336.272L557.407 326.208C557.853 325.985 557.407 325.38 557.056 325.475C548.822 328.228 540.76 331.472 532.914 335.189C532.852 332.094 531.889 329.083 530.143 326.526C537.628 323.564 575.88 303.722 581.294 306.27ZM528.2 273.91C537.571 266.151 547.376 258.93 557.566 252.284C556.823 256.157 556.683 260.121 557.152 264.036C555.591 264.546 536.29 278.687 535.303 279.452C534.889 279.77 535.303 280.439 535.812 280.184L557.375 265.533C558.044 270.024 560.751 280.248 564.923 283.019C560.687 286.459 539.73 303.053 534.634 303.053C530.813 299.367 528.169 294.632 527.036 289.446C525.902 284.26 526.329 278.854 528.264 273.91H528.2ZM524.028 246.423C526.257 248.334 517.021 253.717 516.671 253.813C515.62 254.131 514.919 253.048 517.18 250.882C518.327 249.895 522.531 245.245 524.028 246.455V246.423ZM506.67 251.742C508.262 248.557 514.887 243.27 517.69 241.359C517.969 241.165 518.313 241.089 518.648 241.149C518.982 241.209 519.279 241.399 519.473 241.678C519.668 241.957 519.743 242.301 519.684 242.636C519.624 242.97 519.434 243.267 519.155 243.461C516.671 245.372 509.918 251.711 508.039 253.016C507.898 253.094 507.739 253.135 507.577 253.135C507.416 253.135 507.257 253.094 507.116 253.016C507.004 252.965 506.904 252.892 506.82 252.801C506.737 252.711 506.673 252.605 506.632 252.489C506.59 252.373 506.572 252.251 506.579 252.128C506.585 252.005 506.616 251.885 506.67 251.774V251.742ZM483.292 257.252C496.955 260.96 510.379 265.502 523.486 270.852C524.315 271.266 524.028 272.668 523.041 272.477C509.386 268.672 495.974 264.045 482.878 258.622C482.732 258.54 482.619 258.412 482.556 258.257C482.494 258.102 482.486 257.931 482.534 257.771C482.583 257.611 482.684 257.473 482.822 257.378C482.96 257.284 483.125 257.24 483.292 257.252ZM480.935 284.102C496.127 292.67 524.41 303.562 535.08 305.155C537.214 305.473 554.54 293.307 557.375 291.236C559.222 293.052 574.606 301.747 578.523 304.167C572.854 304.454 531.704 323.628 528.742 325.507C511.065 312.289 492.719 298.88 474.597 286.3L480.967 284.102H480.935ZM316.621 142.178C316.427 142.099 316.209 142.099 316.016 142.178C314.136 143.325 303.276 158.103 301.078 160.874C298.976 158.008 296.842 155.173 294.708 152.402C294.294 151.893 293.434 152.402 293.752 153.071C295.886 156.479 298.18 159.76 300.505 163.04C300.887 163.55 301.619 163.295 301.938 162.881C303.944 160.333 316.716 144.917 317.258 143.166C317.281 143.059 317.283 142.949 317.264 142.841C317.244 142.734 317.204 142.631 317.145 142.54C317.085 142.448 317.009 142.369 316.919 142.307C316.829 142.245 316.728 142.201 316.621 142.178ZM255.883 209.063C236.773 209.446 215.593 209.063 207.375 209.764C207.206 209.764 207.044 209.831 206.925 209.951C206.805 210.07 206.738 210.232 206.738 210.401C206.738 210.57 206.805 210.732 206.925 210.852C207.044 210.971 207.206 211.038 207.375 211.038C217.249 211.038 247.984 212.057 255.883 210.369C256.552 210.21 256.424 209.254 255.883 209.063ZM256.583 177.054C257.22 177.054 257.412 175.971 256.583 175.876C250.213 174.92 211.993 176.799 202.725 178.233C202.556 178.233 202.394 178.3 202.275 178.419C202.155 178.539 202.088 178.701 202.088 178.87C202.088 179.039 202.155 179.201 202.275 179.32C202.394 179.439 202.556 179.507 202.725 179.507C215.21 179.507 243.589 177.564 256.424 177.118L256.583 177.054ZM243.907 183.424C244.449 183.424 244.735 182.341 243.907 182.15C240.722 181.354 208.872 182.15 204.063 182.692C203.987 182.703 203.914 182.73 203.849 182.77C203.784 182.81 203.727 182.863 203.683 182.925C203.638 182.987 203.607 183.058 203.59 183.133C203.573 183.208 203.571 183.285 203.585 183.36C203.602 183.484 203.657 183.6 203.743 183.691C203.829 183.782 203.94 183.845 204.063 183.87C210.21 184.22 240.149 184.443 243.907 183.424ZM311.811 200.942C313.563 198.394 294.358 199.317 293.53 200.177C292.701 201.037 293.53 214.128 293.53 215.338C293.53 217.217 311.334 217.185 312.034 216.644C312.829 211.461 312.829 206.188 312.034 201.005L311.811 200.942ZM310.442 215.21C308.754 215.21 296.237 215.433 295.218 214.637C295.218 210.146 294.931 205.687 294.772 201.228H310.697C310.123 205.867 310.038 210.554 310.442 215.21Z" fill="url(#paint0_linear_380_3830)"/>
<path d="M536.354 289.453C540.813 286.809 545.367 284.229 549.667 281.363C550.272 280.949 549.667 279.866 548.966 280.248L535.876 288.72C535.802 288.792 535.756 288.888 535.745 288.99C535.734 289.093 535.758 289.196 535.815 289.282C535.871 289.369 535.955 289.433 536.054 289.464C536.152 289.495 536.258 289.491 536.354 289.453ZM504.249 324.424C503.867 324.169 503.357 324.774 503.739 325.093C506.924 327.864 522.595 338.82 526.034 341.241C526.48 341.559 526.863 340.827 526.449 340.508C519.76 335.412 511.352 328.692 504.249 324.424ZM297.925 189.858C299.581 189.858 312.544 191.355 312.417 189.221C312.289 187.087 312.098 174.825 311.27 174.442C311.047 172.308 294.899 173.869 293.402 174.156C292.478 174.156 292.861 186.577 292.924 188.074C293.02 190.24 296.492 189.794 297.925 189.858ZM310.442 175.175V188.584C305.077 188.032 299.676 187.925 294.294 188.265C294.505 183.901 294.42 179.528 294.039 175.175C296.683 175.175 308.754 175.589 310.442 175.175ZM525.334 335.126C525.414 335.193 525.516 335.23 525.62 335.23C525.725 335.23 525.827 335.193 525.907 335.126C525.97 335.056 526.004 334.965 526.004 334.871C526.004 334.777 525.97 334.686 525.907 334.616C511.32 324.265 496.828 311.811 482.496 302.097C482.081 301.779 481.444 302.384 481.859 302.798C489.885 310.442 514.951 328.278 525.461 335.285L525.334 335.126ZM312.353 153.485C312.309 153.343 312.211 153.223 312.08 153.152C311.949 153.081 311.796 153.063 311.652 153.103C311.556 153.126 311.467 153.173 311.395 153.24C311.322 153.307 311.268 153.391 311.238 153.485V164.633H293.593C293.284 159.5 292.71 154.386 291.873 149.313C296.855 149.544 301.847 149.416 306.811 148.93C306.923 148.894 307.019 148.821 307.083 148.722C307.146 148.624 307.174 148.506 307.161 148.389C307.143 148.321 307.111 148.258 307.067 148.203C307.023 148.148 306.969 148.103 306.906 148.071C305.728 147.688 290.981 146.414 291.427 148.962C289.962 148.962 292.096 164.887 292.096 164.887C292.861 166.83 296.077 166.161 297.766 166.161C299.454 166.161 311.174 166.448 312.13 166.161C313.659 165.556 312.799 155.364 312.448 153.421L312.353 153.485Z" fill="url(#paint1_linear_380_3830)"/>
<path d="M620.12 442.428C579.543 444.913 538.955 447.036 498.357 448.798C497.827 442.99 496.76 437.243 495.172 431.631C535.515 430.569 575.859 429.327 616.202 427.905C616.408 427.88 616.6 427.789 616.749 427.645C616.898 427.501 616.997 427.313 617.03 427.108C617.057 426.86 616.986 426.61 616.831 426.414C616.676 426.217 616.45 426.089 616.202 426.057C575.689 427.565 535.186 428.807 494.694 429.784C485.139 396.469 464.978 364.778 441.473 339.68C440.74 331.208 440.709 326.94 437.078 318.436C430.071 302.352 422.331 299.008 422.522 302.83C422.52 303.836 422.681 304.837 423 305.792C421.726 304.199 412.362 294.453 410.451 299.708C409.042 298.822 407.451 298.264 405.797 298.077C404.143 297.889 402.468 298.077 400.896 298.626C394.94 289.071 384.971 289.071 378.601 285.886C366.434 279.516 372.04 259.195 380.99 251.615C380.99 251.615 419.433 250.882 419.465 250.405C420.165 241.391 427.841 104.213 427.841 104.213C333.119 102.334 231.199 104.213 137.178 106.124C136.541 106.124 136 106.538 136.063 107.111C141.733 155.364 155.651 254.131 155.651 254.131C157.944 255.055 366.148 251.806 378.601 251.615C373.275 257.424 370.36 265.042 370.447 272.923C371.084 292.988 387.041 284.452 400.1 299.135C391.628 302.766 390.545 313.499 393.73 321.175C394.309 322.647 395.091 324.03 396.055 325.284C396.188 328.277 397.041 331.194 398.539 333.788C402.616 341.527 409.878 344.203 410.26 345.349C410.26 363.377 414.05 385.353 417.649 402.934C405.514 396.564 369.524 381.372 332.514 380.289C334.616 362.039 350.382 359.746 348.216 347.547C354.809 347.292 361.402 347.038 367.995 346.719C369.651 346.719 367.836 341.623 367.645 340.763C364.969 328.979 362.283 317.215 359.587 305.473C359.173 303.881 357.325 293.179 355.765 293.179L335.221 293.561C330.699 289.262 320.093 287.669 315.761 292.67C309.391 280.407 289.708 282.191 289.071 294.103C283.688 290.44 275.694 289.708 270.821 294.676C270.311 294.899 173.965 296.205 159.632 296.778H159.377C159.223 296.877 159.113 297.032 159.071 297.21C159.029 297.389 159.059 297.577 159.155 297.734C159.409 299.39 151.096 338.693 150.109 348.152C150.109 349.49 164.537 349.299 166.034 349.299C145.459 373.409 126.954 400.609 121.444 432.427C86.7276 431.886 52.0111 431.026 17.2946 431.153C17.1257 431.153 16.9637 431.22 16.8442 431.34C16.7247 431.459 16.6576 431.621 16.6576 431.79C16.6576 431.959 16.7247 432.121 16.8442 432.241C16.9637 432.36 17.1257 432.427 17.2946 432.427C51.8519 433.924 86.5047 434.084 121.094 434.338C120.063 440.654 119.637 447.052 119.82 453.448C85.4218 452.748 51.0238 451.665 16.6576 451.091C15.8932 451.091 15.7658 452.302 16.6576 452.302C51.0556 454.054 85.5173 454.691 119.979 455.2C120.871 472.495 127.687 493.707 144.631 501.478C151.606 515.174 166.384 527.5 182.851 523.964C182.373 526.449 181.927 528.997 181.45 531.545C181.258 532.691 182.978 533.169 183.169 532.022C187.851 506.797 192.724 481.445 200.91 457.111C201.165 456.347 200.018 456.06 199.731 456.793C191.769 477.941 187.278 500.172 183.138 522.308C166.289 524.761 152.848 514.027 145.873 499.503C142.12 491.829 139.95 483.479 139.49 474.948C139.03 466.418 140.291 457.882 143.198 449.849C151.893 427.554 175.048 411.629 197.789 400.737C220.911 389.779 245.743 382.873 271.203 380.321C273.018 397.329 292.574 403.094 307.48 402.202C322.386 401.31 331.208 396.755 332.482 381.722C332.673 381.722 386.277 382.901 432.555 413.827C446.155 422.904 458.513 434.561 465.743 449.372C472.813 463.672 475.298 481.222 468.928 496.127C459.819 517.849 443.193 521.002 432.173 522.945C428.277 499.623 420.754 477.055 409.878 456.06C409.591 455.519 408.699 455.869 408.986 456.442C420.328 480.9 428.063 506.873 431.95 533.551C431.95 534.379 433.606 534.602 433.606 533.551C433.477 530.635 433.093 527.737 432.459 524.888C444.471 523.855 455.592 518.134 463.418 508.963C488.898 502.593 500.013 475.043 498.453 450.773C539.136 449.117 579.776 446.993 620.374 444.403C621.489 443.989 621.075 442.428 620.12 442.428ZM155.778 234.002C149.408 193.489 144.344 153.167 138.579 112.622C234.129 110.965 332.164 111.666 426.408 110.074L419.051 229.543C379.27 230.753 160.906 231.995 155.778 234.002ZM347.834 345.764C347.251 344.065 346.133 342.601 344.649 341.591C346.3 338.965 347.193 335.934 347.229 332.832H348.949L351.337 345.572L347.834 345.764ZM345.159 322.417C345.704 321.978 346.205 321.488 346.655 320.952C347.42 324.36 348.057 327.768 348.694 331.176H347.165C347.321 328.127 346.626 325.095 345.159 322.417ZM366.944 344.935L352.293 345.572C351.911 341.273 351.083 337.037 350.318 332.832C354.897 332.985 359.481 332.868 364.046 332.482C365.001 336.591 365.988 340.795 366.944 344.935ZM363.759 331.017H350.063L347.77 319.073L360.988 318.691L363.759 331.017ZM360.574 317.321L348.121 317.704C348.36 316.193 348.252 314.648 347.805 313.186C347.358 311.723 346.584 310.382 345.541 309.263C345.35 308.308 345.159 307.321 344.904 306.333L358.026 306.047L360.574 317.321ZM355.701 294.581C356.402 297.766 357.039 301.174 357.676 304.486L344.585 304.709C343.917 301.36 343.055 298.053 342.005 294.804L355.701 294.581ZM343.662 308.085C342.111 307.38 340.359 307.256 338.725 307.735C338.871 307.34 338.988 306.936 339.075 306.524H343.279L343.662 308.085ZM340.477 294.835C341.074 298.179 341.861 301.486 342.833 304.741H339.298C339.663 301.212 338.685 297.675 336.559 294.835H340.477ZM263.368 296.205H269.515C268.217 298.212 267.759 300.648 268.241 302.989L262.826 304.55C263.081 301.811 263.368 298.753 263.368 296.205ZM261.648 296.205V305.091C261.108 305.412 260.587 305.763 260.087 306.142L245.022 306.397C245.161 303.092 245.066 299.782 244.736 296.492L261.648 296.205ZM254.959 319.296H244.927V308.149L257.985 307.926C256.604 309.438 255.608 311.261 255.081 313.241C254.554 315.22 254.513 317.297 254.959 319.296ZM244.99 334.043H253.685C253.808 336.822 254.837 339.484 256.616 341.623C255.565 342.35 254.719 343.336 254.161 344.485C253.603 345.635 253.352 346.909 253.431 348.184H244.831C244.927 343.407 244.99 338.725 244.99 334.043ZM254.545 330.189C254.266 330.854 254.063 331.548 253.94 332.259H245.15V320.761H255.437C256.129 322.662 257.371 324.314 259.004 325.507C257.014 326.537 255.407 328.178 254.418 330.189H254.545ZM243.876 348.152H204.413C204.827 342.674 204.413 339.234 207.949 334.52L243.525 334.106C243.493 338.788 243.589 343.47 243.748 348.152H243.876ZM209.255 332.769C212.569 329.418 215.074 325.355 216.58 320.889H224.543V332.578L209.255 332.769ZM226.581 296.842L243.27 296.555C243.091 299.855 243.091 303.161 243.27 306.461L226.485 306.747C226.485 303.467 226.517 300.154 226.581 296.842ZM226.358 308.499L243.207 308.212V319.36H226.135C226.135 315.729 226.135 312.13 226.358 308.499ZM226.135 320.857H243.366V332.355L225.434 332.578C225.689 328.66 225.88 324.87 226.135 320.857ZM210.21 297.129L225.466 296.874L225.116 306.779L209.573 307.034C209.951 303.747 210.068 300.434 209.923 297.129H210.21ZM209.446 308.754L225.084 308.499L224.797 319.328H216.994C217.376 317.576 218.077 314.71 216.007 313.754C213.937 312.799 211.962 317.576 208.14 319.296C208.49 315.793 208.809 312.289 209.159 308.786L209.446 308.754ZM195.814 297.383L208.968 297.16C208.513 300.445 208.226 303.751 208.108 307.066H207.025C208.395 303.722 201.005 301.556 194.635 307.066C194.731 305.441 195.623 298.466 195.527 297.383H195.814ZM207.694 308.945C207.471 312.417 207.28 315.856 207.057 319.328H202.088C201.133 316.525 202.088 309.932 204.636 308.945H207.63H207.694ZM193.903 297.479L193.393 307.352H187.437C185.08 302.448 186.577 298.721 184.252 297.543L193.903 297.479ZM192.629 309.136C191.895 310.056 191.274 311.061 190.782 312.13L188.425 309.232L192.629 309.136ZM172.277 297.893L182.501 297.702C179.316 299.231 178.838 304.645 178.838 307.607H174.028C172.404 306.206 171.703 307.607 170.493 307.607L172.213 297.702L172.277 297.893ZM179.347 314.073C177.58 312.894 176.144 311.282 175.175 309.391H178.774C178.812 310.96 178.961 312.525 179.22 314.073H179.347ZM168.805 318.85L170.334 309.486C170.015 312.719 170.417 315.983 171.512 319.041L168.805 318.85ZM171.99 320.411C173.296 324.774 175.175 328.756 176.067 333.151L166.512 333.342L168.423 320.379L171.99 320.411ZM160.429 297.925H170.875C170.27 301.11 169.697 304.55 169.124 307.894C165.652 307.894 162.148 308.085 158.677 308.244C159.427 304.841 159.969 301.394 160.301 297.925H160.429ZM158.454 309.55H168.805C168.327 312.735 167.818 315.92 167.308 318.882H156.638C157.18 315.697 157.753 312.608 158.326 309.55H158.454ZM156.511 319.997C160.014 320.188 163.518 320.284 167.021 320.347C166.416 324.647 165.716 329.01 165.142 333.342C161.416 333.342 157.689 333.597 153.963 333.756C154.823 329.17 155.651 324.583 156.511 319.997ZM163.677 347.611H151.383C152.179 343.343 153.007 339.107 153.867 334.871L164.919 335.157C164.247 339.282 163.79 343.439 163.55 347.611H163.677ZM164.569 347.611L166.448 334.871H176.354C176.449 335.717 176.449 336.572 176.354 337.419L167.404 347.643L164.569 347.611ZM142.879 445.486C139.154 453.974 137.292 463.162 137.418 472.431C137.544 481.7 139.656 490.833 143.612 499.217C112.781 478.387 119.342 432.332 132.464 402.902C143.198 378.792 160.206 358.312 177.628 338.661C180.176 335.763 171.926 316.366 171.64 311.62C171.449 308.085 172.914 307.352 174.22 309.869C175.525 312.385 177.405 315.251 179.984 315.856C181.004 318.85 181.8 317.895 181.672 317.417C180.59 312.162 178.71 304.677 182.214 299.836C184.762 296.46 184.666 302.67 184.921 303.881C185.526 306.779 188.106 312.385 190.431 313.436C189.635 315.697 190.973 314.901 191.068 314.614C195.591 302.734 209.414 304.422 204.955 307.352C203.779 308.054 202.78 309.016 202.035 310.165C201.289 311.313 200.817 312.618 200.655 313.977C199.031 325.22 207.885 323.532 214.319 315.697C216.994 312.512 217.122 319.36 212.885 326.271C209.286 332.132 204.413 334.234 203.84 341.91C202.248 360.669 198.394 383.06 195.814 399.558C174.665 409.782 153.039 423.605 142.752 445.518L142.879 445.486ZM197.47 398.698C200.58 382.503 202.802 366.15 204.127 349.713H253.526C255.373 360.383 268.623 361.816 270.757 378.378C245.337 380.863 220.54 387.738 197.47 398.698ZM331.941 372.995C331.148 375.5 330.635 378.085 330.412 380.703C329.138 394.207 323.405 398.698 308.404 399.813C292.479 401.119 275.216 396.087 272.795 378.919C270.661 363.631 265.756 364.969 257.89 354.267C255.533 351.082 253.431 345.158 257.89 342.674C260.08 345.08 262.824 346.917 265.884 348.025C272.763 363.472 275.089 381.276 295.09 383.251C333.756 386.85 325.093 365.797 337.355 347.42C339.739 346.318 341.899 344.784 343.725 342.897C345.116 344.059 346.076 345.655 346.451 347.428C346.826 349.201 346.596 351.049 345.796 352.675C342.674 360.223 335.158 363.09 331.941 372.995ZM410.865 301.556C411.948 303.976 413.063 306.365 414.05 308.786C412.489 306.779 404.845 298.434 402.297 302.893C400.992 305.218 403.731 308.69 404.845 310.76C400.57 311.517 396.75 313.889 394.176 317.385C390.099 302.575 404.495 295.186 410.865 301.556ZM396.469 323.246C395.864 321.749 395.227 320.22 394.59 318.723C397.385 315.45 401.141 313.143 405.323 312.13C407.115 315.829 408.278 319.801 408.763 323.883C409.623 332.036 403.38 326.208 400.355 323.405C399.176 322.195 397.201 321.685 396.31 323.246H396.469ZM465.424 506.096C475.966 491.318 476.412 472.24 470.297 455.55C461.634 431.95 441.027 415.419 419.337 403.858C415.167 384.598 412.463 365.05 411.247 345.381C411.247 342.387 401.119 340.349 397.966 328.596C397.393 326.462 396.214 320.857 400.068 324.87C403.922 328.883 410.483 332.578 410.196 323.787C409.814 313.372 402.743 306.429 403.38 304.072C404.177 301.11 410.069 306.684 411.024 307.639C413.514 310.378 415.772 313.318 417.777 316.43C418.127 316.939 418.987 316.43 418.668 315.952C417.925 314.678 417.161 313.404 416.375 312.13C416.885 311.047 411.152 300.919 412.171 299.963C413.19 299.008 417.777 302.32 418.796 303.148C424.115 307.766 424.369 310.856 426.185 313.245C426.267 313.274 426.357 313.274 426.44 313.245C426.553 313.254 426.666 313.219 426.754 313.148C426.843 313.077 426.902 312.975 426.918 312.862C426.726 310.824 425.548 309.677 424.975 308.276C424.401 306.875 423.223 303.722 424.019 302.607C424.401 302.288 426.599 303.913 426.854 304.167C428.955 306.18 430.709 308.526 432.045 311.111C441.791 327.768 438.861 338.502 440.517 340.126C464.692 367.358 490.522 407.234 495.745 443.225C499.281 468.195 491.414 497.306 465.265 506.096H465.424Z" fill="url(#paint2_linear_380_3830)"/>
<path d="M234.416 159.25C235.148 159.027 234.862 157.976 234.193 157.88C222.6 158.103 210.274 157.88 198.839 158.199C197.948 158.199 198.075 159.568 198.839 159.696C204.7 160.651 229.32 160.811 234.416 159.25ZM538.488 329.584C542.819 327.704 563.968 319.169 566.484 317.735C566.531 317.694 566.569 317.642 566.595 317.584C566.621 317.527 566.635 317.464 566.635 317.401C566.635 317.338 566.621 317.275 566.595 317.218C566.569 317.16 566.531 317.108 566.484 317.067C566.432 316.989 566.36 316.928 566.276 316.889C566.192 316.849 566.099 316.834 566.006 316.844C560.655 317.958 543.329 326.208 537.946 328.883C537.66 329.106 538.042 329.775 538.488 329.584ZM324.87 254.8L257.348 255.819C260.246 288.561 325.73 289.07 324.87 254.8ZM324.87 184.73C324.87 184.868 324.922 185.001 325.017 185.102C325.112 185.203 325.241 185.263 325.379 185.271C336.177 185.526 359.013 186.195 367.644 185.017C368.345 185.017 368.122 183.838 367.644 183.838C355.446 183.838 337.833 183.838 325.539 184.188C325.458 184.169 325.374 184.168 325.292 184.186C325.211 184.205 325.135 184.241 325.07 184.294C325.006 184.346 324.954 184.413 324.919 184.488C324.884 184.564 324.868 184.647 324.87 184.73ZM232.505 136.955C233.397 136.955 233.015 135.681 232.282 135.553C210.337 136.19 186.45 136.668 165.047 137.146C164.975 137.157 164.906 137.183 164.845 137.222C164.783 137.26 164.73 137.311 164.689 137.37C164.647 137.429 164.618 137.497 164.603 137.568C164.588 137.638 164.587 137.712 164.601 137.783C164.619 137.895 164.672 137.998 164.752 138.078C164.832 138.157 164.935 138.21 165.047 138.229C180.621 139.344 212.28 137.656 232.505 136.955ZM244.767 129.661C245.5 129.661 245.723 128.387 244.767 128.292C237.633 127.432 167.276 128.578 162.371 129.661C161.893 129.661 161.925 130.617 162.371 130.617C180.43 130.585 223.714 129.343 244.767 129.661ZM107.653 357.707C110.107 353.169 111.99 348.344 113.258 343.343C113.852 341.624 113.987 339.781 113.652 337.994C113.317 336.207 112.523 334.538 111.347 333.151C112.504 330.242 113.098 327.14 113.099 324.01C112.462 318.818 106.952 319.137 103.99 323.118C92.0464 339.043 78.8605 364.523 79.2427 384.111C79.0197 385.035 79.4975 386.086 80.3256 385.321C94.466 371.311 104.926 354.025 110.774 334.998C114.755 340.922 108.608 351.146 106.315 357.134C106.029 357.93 107.239 358.408 107.653 357.707ZM80.453 382.805C80.6866 379.271 81.1763 375.758 81.9181 372.295L86.823 375.83C84.7527 378.123 82.6188 380.512 80.453 382.805ZM110.042 331.845C107.885 330.035 105.295 328.817 102.525 328.31C103.589 326.366 104.872 324.549 106.347 322.895C107.78 321.557 110.519 321.016 111.347 323.277C111.629 326.177 111.18 329.1 110.042 331.781V331.845ZM191.1 169.601C189.698 170.174 181.545 182.341 180.048 184.475C178.195 182.013 176.057 179.778 173.678 177.818C173.545 177.757 173.394 177.745 173.254 177.786C173.113 177.827 172.992 177.918 172.914 178.041C172.867 178.165 172.867 178.3 172.914 178.424C174.73 181.397 176.866 184.164 179.284 186.673C179.37 186.768 179.476 186.845 179.594 186.897C179.712 186.949 179.839 186.977 179.968 186.977C180.097 186.977 180.225 186.949 180.343 186.897C180.461 186.845 180.566 186.768 180.653 186.673V186.513L191.1 172.245C192.565 170.174 192.151 169.06 191.1 169.601ZM382.2 152.88C382.869 152.88 382.996 151.606 382.2 151.51C362.328 150.522 342.412 150.809 322.577 152.37C321.908 152.37 321.972 153.549 322.577 153.517C337.61 153.389 365.797 153.867 382.2 152.88Z" fill="url(#paint3_linear_380_3830)"/>
<path d="M191.1 188.902C192.374 188.393 189.826 178.901 189.476 177.404C189.451 177.272 189.376 177.155 189.267 177.077C189.157 176.999 189.021 176.967 188.889 176.988C188.756 177.009 188.636 177.08 188.556 177.188C188.475 177.295 188.439 177.43 188.456 177.564C188.839 180.972 189.221 184.411 189.858 187.756C184.539 188.17 179.73 188.138 174.538 188.361C173.583 184.22 172.754 178.806 171.353 174.697C175.359 175.034 179.386 175.034 183.392 174.697C186.036 174.697 185.845 173.041 183.583 173.073C182.246 173.073 170.843 172.85 170.843 174.219C169.346 174.219 172.5 187.565 172.691 188.456C172.724 188.615 172.806 188.759 172.926 188.868C173.047 188.977 173.198 189.045 173.36 189.061C173.742 190.718 190.495 190.463 191.1 188.902ZM383.984 177.723C383.955 177.599 383.887 177.488 383.789 177.407C383.691 177.327 383.569 177.281 383.442 177.277C364.141 176.767 343.502 177.691 323.946 177.659C323.373 177.659 323.341 178.615 323.946 178.678C341.082 179.825 367.581 180.526 383.57 178.424C383.713 178.379 383.835 178.283 383.912 178.153C383.989 178.024 384.014 177.87 383.984 177.723ZM173.805 165.875C178.273 165.999 182.744 165.797 187.182 165.27C189.953 165.97 185.717 148.58 185.208 147.784C185.141 147.634 185.027 147.509 184.884 147.429C184.74 147.349 184.575 147.317 184.412 147.338C181.545 147.338 168.232 147.338 166.353 147.752C164.059 145.905 167.404 161.607 167.881 163.486C168.805 166.639 170.843 165.875 173.805 165.875ZM166.735 148.835C172.612 149.553 178.548 149.638 184.443 149.09L186.482 163.804L169.792 164.664C169.92 163.581 167.117 150.937 166.735 148.835ZM368.887 159.568C369.056 159.568 369.218 159.501 369.337 159.382C369.457 159.262 369.524 159.1 369.524 158.931C369.524 158.762 369.457 158.6 369.337 158.481C369.218 158.361 369.056 158.294 368.887 158.294C364.937 157.498 330.985 158.708 323.946 159.314C323.405 159.314 323.405 160.237 323.946 160.269C327.768 160.428 365.097 160.524 368.887 159.568ZM101.442 260.597C102.047 260.597 106.538 258.049 107.589 262.189C109.054 267.858 114.787 264.45 115.711 260.119C116.89 254.768 111.794 250.564 105.774 250.564C93.5435 250.564 96.3463 261.17 101.442 260.597ZM105.774 251.806C112.653 252.029 116.89 258.526 112.717 262.348C109.15 265.533 109.532 260.947 107.812 259.163C104.372 255.978 101.633 259.832 99.6905 258.208C95.7093 255.023 103.321 251.615 105.774 251.806ZM180.367 199.922C175.366 199.922 175.175 199.094 175.812 203.967C176.003 205.337 176.99 215.019 178.647 215.115C178.997 216.644 193.298 216.102 195.113 215.561C197.566 215.561 195.113 208.012 195.113 207.152C193.011 196.068 195.623 199.508 180.367 199.922ZM179.443 214.382C178.647 210.369 178.042 205.05 176.895 201.228C182.11 201.738 187.37 201.545 192.533 200.655C192.857 205.089 193.55 209.489 194.604 213.809C189.635 214.032 184.475 214.287 179.443 214.382ZM388.984 127.782C383.124 127.241 298.721 127.782 288.02 128.61C287.881 128.634 287.758 128.71 287.675 128.823C287.591 128.936 287.555 129.076 287.574 129.215C287.596 129.325 287.651 129.426 287.73 129.505C287.809 129.584 287.91 129.639 288.02 129.661C297.097 130.139 382.487 129.916 388.984 129.183C389.17 129.183 389.348 129.11 389.48 128.978C389.611 128.847 389.685 128.669 389.685 128.483C389.685 128.297 389.611 128.119 389.48 127.987C389.348 127.856 389.17 127.782 388.984 127.782ZM245.245 151.192C245.978 151.033 245.723 150.045 245.086 149.918L196.706 151.128C196.635 151.136 196.567 151.158 196.506 151.193C196.445 151.228 196.391 151.276 196.349 151.333C196.308 151.389 196.278 151.454 196.262 151.523C196.247 151.592 196.246 151.664 196.26 151.733C196.278 151.845 196.331 151.948 196.411 152.028C196.491 152.108 196.594 152.161 196.706 152.179C208.84 153.071 234.703 153.326 245.245 151.192ZM437.078 240.722C437.301 243.143 439.721 267.285 440.613 269.037C446.983 281.458 470.425 281.777 470.934 263.399C471.826 255.755 474.915 233.811 473.705 228.364C474.055 226.581 475.903 218.809 476.253 214.701C476.253 214.032 477.527 195.846 474.979 198.616C471.578 203.144 468.563 207.949 465.966 212.981C465.52 214.924 465.074 216.835 464.596 218.746C463.187 218.214 461.724 217.84 460.233 217.631C460.233 216.325 459.277 209.955 458.831 207.407C456.633 203.139 454.372 199.317 452.461 194.89C449.754 188.233 449.69 188.106 448.926 195.431C447.65 202.894 447.65 210.519 448.926 217.981C434.498 220.975 435.995 229.479 437.046 240.722H437.078ZM471.921 205.687C472.311 206.064 472.777 206.353 473.288 206.534C473.799 206.716 474.343 206.785 474.884 206.738V214.764C473.542 214.895 472.187 214.753 470.901 214.348C469.615 213.943 468.424 213.283 467.399 212.408C468.959 210.21 470.584 207.949 471.921 205.687ZM467.335 214.064C469.445 215.564 471.976 216.355 474.565 216.325C473.514 222.249 472.463 228.141 471.635 234.097C470.552 237.983 465.265 239.384 461.825 239.862C463.927 231.454 465.52 222.408 467.335 213.968V214.064ZM460.965 237.569C460.81 238.369 460.704 239.177 460.647 239.99L452.875 240.181L449.69 210.178C451.13 210.613 452.655 210.689 454.132 210.401C455.608 210.112 456.992 209.467 458.162 208.522C458.162 208.522 460.233 237.091 460.965 237.473V237.569ZM450.072 199.986C450.56 200.113 451.069 200.14 451.568 200.063C452.066 199.986 452.544 199.808 452.971 199.54L457.334 207.375C456.19 208.227 454.865 208.803 453.461 209.057C452.058 209.312 450.614 209.237 449.244 208.84C449.189 205.836 449.467 202.834 450.072 199.89V199.986ZM472.144 236.677C471.571 244.703 470.552 261.648 468.482 269.228C464.819 279.07 448.862 279.229 441.823 269.228C440.486 258.176 439.148 246.933 437.842 236.04C443.798 244.672 466.953 243.621 472.144 236.582V236.677Z" fill="url(#paint4_linear_380_3830)"/>
<path d="M43.9848 271.776C48.8325 274.308 53.9502 276.284 59.241 277.668C49.0808 291.65 78.1599 311.589 104.755 300.951C116.953 296.078 129.152 280.598 117.208 269.865C129.948 259.577 134.439 244.735 133.897 228.46C133.069 203.362 121.985 184.889 96.601 178.933C84.095 176.007 70.9899 177.019 59.0817 181.832L54.145 173.296C55.7056 172.468 57.33 171.671 58.9225 170.971C63.1267 169.537 61.8527 166.448 59.3684 167.372C10.5742 185.176 -0.70071 249.354 43.9848 271.776ZM59.6232 275.439C58.7314 272.254 61.1201 269.069 60.0054 265.597C57.4574 257.348 46.7876 262.125 44.0804 256.552C41.1183 250.468 49.0171 249.417 50.6096 245.054C50.8913 244.29 50.963 243.465 50.8174 242.664C50.6717 241.862 50.3141 241.115 49.7815 240.499C45.1951 234.766 34.5891 240.818 37.6148 227.441C39.908 217.344 49.6541 212.567 56.7248 217.026C63.7955 221.485 68.0316 224.479 76.9814 219.255C91.8872 210.497 90.0399 228.81 85.4854 234.352C83.0648 237.346 78.6695 237.187 75.2934 238.461C64.2733 242.601 64.337 250.022 73.0639 251.838C76.44 252.539 80.7716 252.22 83.4151 254.768C90.5814 261.743 75.7711 276.649 71.0892 279.102C68.573 278.592 60.8972 277.095 59.6232 275.439ZM100.041 181.736C118.8 187.565 128.706 201.133 131.381 220.529C132.653 228.9 132.34 237.436 130.458 245.691C129.693 246.742 118.928 249.704 115.456 245.245C114.116 243.443 113.221 241.349 112.845 239.135C112.468 236.921 112.621 234.649 113.29 232.505C115.361 227.154 122.4 222.44 120.234 216.962C117.24 209.382 108.481 219.733 104.786 217.599C99.2446 214.414 109.628 208.299 97.7795 206.101C93.416 205.305 89.8488 207.089 86.632 202.279C79.2746 191.259 98.4165 181.704 100.041 181.64V181.736ZM63.7 195.846C63.8374 196.063 64.0456 196.226 64.2894 196.307C64.5331 196.388 64.7975 196.383 65.0377 196.291C65.3136 196.178 65.5344 195.962 65.6533 195.688C65.7723 195.415 65.7799 195.105 65.6747 194.826L59.878 183.52C71.6914 178.783 84.6976 177.891 97.0469 180.972C81.1219 186.227 79.2428 204.19 90.6769 207.28C93.0975 207.949 103.927 206.993 102.047 211.611C101.666 212.361 101.452 213.184 101.421 214.024C101.389 214.864 101.541 215.701 101.865 216.477C102.189 217.252 102.678 217.948 103.298 218.516C103.918 219.084 104.654 219.51 105.455 219.765C109.914 220.561 114.692 213.841 117.972 216.58C123.705 221.357 108.736 228.747 111.284 239.385C113.195 247.538 116.571 250.118 124.852 248.94C126.666 248.783 128.425 248.24 130.012 247.347C123.164 271.33 97.5565 282.382 74.1468 279.484C78.8606 275.152 86.1861 266.553 86.8868 260.374C87.9697 249.417 75.3889 251.615 70.7707 249.194C64.4007 246.009 73.5098 240.467 79.3383 239.193C81.2482 238.879 83.0969 238.266 84.8165 237.378C94.3715 231.518 91.728 207.949 77.8732 216.644C66.025 224.065 62.3623 217.758 56.8522 214.924C48.0298 210.433 35.9268 217.504 35.3216 230.849C34.9713 239.926 42.456 237.983 46.8195 240.404C47.6015 240.697 48.2544 241.258 48.6625 241.987C49.0706 242.715 49.2075 243.565 49.049 244.385C48.0298 247.57 43.4115 248.207 42.1375 252.061C41.6338 253.564 41.6522 255.193 42.1898 256.685C42.7273 258.176 43.7526 259.442 45.0996 260.278C49.2719 262.699 56.6611 260.597 58.4129 266.361C59.2728 269.164 57.5848 272.031 57.7759 274.865C49.6498 271.945 42.4943 266.825 37.1069 260.077C31.7195 253.328 28.3118 245.217 27.2636 236.645C24.3971 214.987 37.6148 193.935 57.0433 184.73C59.0499 188.425 61.566 192.247 63.7 195.846ZM35.035 187.342C39.8163 182.384 45.326 178.184 51.374 174.888C53.1493 177.612 54.776 180.429 56.2471 183.329C46.251 187.972 37.9318 195.588 32.4253 205.136C26.9187 214.685 24.4933 225.699 25.48 236.677C26.1439 242.969 28.1162 249.053 31.27 254.538C34.4239 260.023 38.6897 264.788 43.7937 268.527C13.3451 251.615 12.0711 211.739 35.035 187.342ZM374.97 209.796C372.231 209.191 331.272 209 325.475 209.796C325.332 209.796 325.194 209.853 325.092 209.954C324.991 210.056 324.934 210.194 324.934 210.337C324.934 210.481 324.991 210.619 325.092 210.72C325.194 210.822 325.332 210.879 325.475 210.879C327.673 211.197 370.479 211.93 374.97 210.879C375.119 210.846 375.251 210.763 375.347 210.644C375.442 210.526 375.494 210.378 375.494 210.226C375.494 210.074 375.442 209.926 375.347 209.807C375.251 209.689 375.119 209.606 374.97 209.573V209.796ZM388.57 136.541C357.835 136.891 318.118 135.84 290.408 136.541C289.644 136.541 289.708 137.624 290.408 137.688C302.034 138.962 379.206 138.866 388.57 137.688C388.661 137.68 388.749 137.654 388.83 137.61C388.91 137.567 388.981 137.508 389.038 137.436C389.095 137.365 389.136 137.282 389.16 137.194C389.183 137.106 389.189 137.013 389.175 136.923C389.124 136.806 389.039 136.707 388.931 136.639C388.823 136.571 388.698 136.537 388.57 136.541ZM385.162 202.884C366.53 202.47 343.247 203.617 323.405 203.107C322.832 203.107 322.704 203.935 323.405 203.999C335.603 205.209 373.792 206.42 385.289 204.19C385.895 204.031 385.958 202.884 385.162 202.884Z" fill="url(#paint5_linear_380_3830)"/>
<defs>
<linearGradient id="paint0_linear_380_3830" x1="202.088" y1="245.681" x2="571.555" y2="245.681" gradientUnits="userSpaceOnUse">
<stop stop-color="white"/>
<stop offset="0.9999" stop-color="#DDB44B"/>
</linearGradient>
<linearGradient id="paint1_linear_380_3830" x1="290.914" y1="244.366" x2="555.137" y2="244.366" gradientUnits="userSpaceOnUse">
<stop stop-color="white"/>
<stop offset="0.9999" stop-color="#DDB44B"/>
</linearGradient>
<linearGradient id="paint2_linear_380_3830" x1="16.0356" y1="318.847" x2="596.735" y2="318.847" gradientUnits="userSpaceOnUse">
<stop stop-color="white"/>
<stop offset="0.9999" stop-color="#DDB44B"/>
</linearGradient>
<linearGradient id="paint3_linear_380_3830" x1="79.188" y1="256.788" x2="547.05" y2="256.788" gradientUnits="userSpaceOnUse">
<stop stop-color="white"/>
<stop offset="0.9999" stop-color="#DDB44B"/>
</linearGradient>
<linearGradient id="paint4_linear_380_3830" x1="97.0979" y1="202.709" x2="461.325" y2="202.709" gradientUnits="userSpaceOnUse">
<stop stop-color="white"/>
<stop offset="0.9999" stop-color="#DDB44B"/>
</linearGradient>
<linearGradient id="paint5_linear_380_3830" x1="15.9155" y1="220.126" x2="374.185" y2="220.126" gradientUnits="userSpaceOnUse">
<stop stop-color="white"/>
<stop offset="0.9999" stop-color="#DDB44B"/>
</linearGradient>
</defs>
</svg>
