<svg width="355" height="281" viewBox="0 0 355 281" fill="none" xmlns="http://www.w3.org/2000/svg">
<mask id="mask0_411_898" style="mask-type:alpha" maskUnits="userSpaceOnUse" x="5" y="42" width="341" height="230">
<path d="M186.66 201.896C215.935 200.411 242.755 199.739 247.079 202.163C249.306 203.415 252.772 219.875 254.364 230.883C263.356 229.809 274.655 228.822 285.945 228.052C284.268 219.583 283.234 214.277 279.431 206.093C278.854 204.853 280.432 204.353 281.075 205.485C284.886 212.462 287.445 220.053 288.637 227.913C303.921 226.909 319.001 226.303 328.453 226.303C327.379 217.053 321.434 195.738 310.777 184.809C302.561 176.384 286.624 168.886 272.519 167.111C272.3 169.066 271.546 170.923 270.34 172.477C269.134 174.031 267.524 175.223 265.685 175.922C258.15 178.883 244.395 179.662 232.126 172.922C219.182 176.615 195.461 190.702 186.66 201.896Z" fill="#F8B6B2"/>
<path d="M344.452 267.73C267.267 269.181 190.43 268.895 113.285 268.982C111.725 268.982 111.373 271.421 112.986 271.449C189.957 272.872 267.846 271.197 344.805 270.254C346.449 270.24 346.088 267.7 344.452 267.73Z" fill="#F8B6B2"/>
<path d="M154.405 115.225C162.329 115.373 200.946 114.654 205.052 114.477C206.29 114.423 206.258 112.287 205.052 112.287C199.54 112.287 163.275 112.986 154.405 113.452C154.191 113.481 153.994 113.586 153.851 113.749C153.709 113.912 153.63 114.122 153.63 114.338C153.63 114.555 153.709 114.764 153.851 114.927C153.994 115.09 154.191 115.196 154.405 115.225Z" fill="#F8B6B2"/>
<path d="M122.776 105.333C122.2 105.633 112.237 117.609 116.827 116.185C117.479 115.983 123.984 107.741 124.304 106.263C124.342 106.072 124.321 105.873 124.243 105.694C124.164 105.515 124.033 105.365 123.866 105.263C123.699 105.162 123.505 105.114 123.31 105.126C123.115 105.139 122.929 105.211 122.776 105.333Z" fill="#F8B6B2"/>
<path d="M101.066 78.1266C104.27 78.2769 169.516 78.1141 173.405 77.7312C173.957 77.658 174.463 77.3823 174.824 76.9577C175.184 76.533 175.374 75.9895 175.357 75.4326C175.34 74.8757 175.117 74.345 174.731 73.9433C174.345 73.5417 173.823 73.2976 173.267 73.2585C155.11 73.484 117.364 73.577 101.168 73.9312C98.7382 73.9867 98.5343 78.0121 101.066 78.1266Z" fill="#F8B6B2"/>
<path d="M192.396 146.977C188.197 146.977 156.271 146.619 154.01 147.265C153.24 147.487 152.936 148.732 153.859 148.995C156.271 149.687 188.031 149.337 192.416 149.337C196.801 149.337 201.057 149.494 205.351 149.337C206.664 149.289 206.567 147.088 205.265 147.031C200.992 146.841 196.677 146.977 192.396 146.977Z" fill="#F8B6B2"/>
<path d="M153.507 163.692C153.236 163.773 153.008 163.957 152.872 164.205C152.736 164.453 152.703 164.744 152.781 165.016C153.149 166.269 151.494 165.839 205.905 166.746C206.205 166.716 206.484 166.575 206.686 166.351C206.888 166.127 207 165.836 207 165.534C207 165.232 206.888 164.941 206.686 164.717C206.484 164.493 206.205 164.353 205.905 164.322C153.707 163.479 156.947 163.426 153.507 163.692Z" fill="#F8B6B2"/>
<path d="M204.742 132.675C205.033 132.655 205.307 132.528 205.509 132.318C205.712 132.109 205.829 131.831 205.838 131.539C205.848 131.248 205.748 130.963 205.559 130.741C205.37 130.518 205.105 130.374 204.816 130.337C197.051 130.122 160.919 129.821 154.364 131.127C153.29 131.34 153.53 132.904 154.555 132.995C160.1 133.494 168.576 131.632 204.742 132.675Z" fill="#F8B6B2"/>
<path d="M252.462 100.891C252.559 85.4795 253.274 66.2542 251.981 51.3012C251.945 51.0766 251.828 50.8732 251.651 50.7302C251.474 50.5872 251.251 50.5147 251.024 50.5267C250.797 50.5387 250.582 50.6344 250.422 50.7952C250.261 50.9561 250.166 51.1708 250.154 51.3978C249.734 58.572 250.129 91.9059 250.154 101.062C250.158 102.567 252.453 102.397 252.462 100.891Z" fill="#F8B6B2"/>
<path d="M117.45 172.289C119.667 174.717 122.024 177.014 124.51 179.168C125.583 180.178 127.236 178.566 126.156 177.557C123.839 175.227 121.404 173.018 118.86 170.938C118.085 170.442 116.853 171.457 117.45 172.289Z" fill="#F8B6B2"/>
<path d="M18.2946 51.3012C18.2946 49.9559 16.1763 49.7108 16.1584 51.0883C15.4535 108.081 16.3946 174.371 19.1176 231.069C19.1927 232.639 21.6223 232.255 21.5417 230.695C18.6649 170.72 18.2123 111.326 18.2946 51.3012Z" fill="#F8B6B2"/>
<path d="M45.2075 178.473C44.6064 179.368 46.0001 180.506 46.7032 179.67C47.6103 178.597 52.8701 172.501 52.6071 171.19C51.8826 167.716 46.2345 176.954 45.2075 178.473Z" fill="#F8B6B2"/>
<path d="M84.5652 149.562C83.6474 149.392 77.8258 154.559 76.6504 155.681C65.6602 148.494 66.7533 150.263 66.8892 154.607C66.9306 157.579 67.1373 160.545 67.5083 163.494C67.6424 164.426 69.0594 164.263 69.1184 163.356C69.342 160.033 68.9145 156.722 68.8608 153.401C78.5379 159.305 75.5465 159.126 84.5831 151.723C85.6566 152.909 90.7679 157.883 92.3155 157.695C93.5678 157.54 97.7847 151.874 98.7883 150.666C98.7883 153.23 98.8706 160.547 99.631 162.619C100.025 163.692 101.062 163.313 101.116 162.245C101.248 159.969 100.973 154.575 100.978 151.949C100.978 148.957 100.969 148.192 99.7168 146.403C96.9975 142.517 90.1095 132.997 85.907 127.83C82.2054 123.277 82.0426 123.179 79.4449 127.2C75.4428 133.407 68.7248 145.449 67.6979 147.739C67.2632 148.703 68.7499 149.158 69.2669 148.444C70.988 146.066 74.8846 139.076 76.679 136.001C80.7134 136.162 84.7536 136.094 88.7803 135.797C92.0894 139.734 95.2523 143.792 98.2623 147.963L92.1008 155.439C91.2617 154.774 85.4938 149.734 84.5652 149.562Z" fill="#F8B6B2"/>
<path d="M115.389 229.661C105.776 229.124 27.4993 229.544 24.4454 230.018C24.2195 230.091 24.0242 230.237 23.89 230.433C23.7557 230.628 23.6901 230.863 23.7034 231.1C23.7167 231.337 23.8081 231.563 23.9634 231.742C24.1187 231.922 24.3291 232.045 24.5617 232.092C54.1582 232.176 85.5689 231.942 115.217 231.974C116.659 231.974 116.906 229.75 115.389 229.661Z" fill="#F8B6B2"/>
<path d="M48.9789 118.887C50.038 120.07 51.6625 118.588 50.7823 117.585C48.6461 115.16 44.0697 109.655 41.9604 107.802C41.1249 107.067 39.9924 108.217 40.5828 109.094C42.0999 111.357 46.8875 116.554 48.9789 118.887Z" fill="#F8B6B2"/>
<path d="M83.4166 108.362C83.5508 103.718 83.276 99.0722 82.5955 94.4769C82.5012 94.3117 82.361 94.1773 82.192 94.09C82.0229 94.0028 81.8321 93.9664 81.6428 93.9854C81.4535 94.0043 81.2737 94.0777 81.1253 94.1967C80.9768 94.3157 80.8661 94.4752 80.8064 94.6558C80.6616 99.2941 80.8865 103.936 81.4791 108.539C81.533 108.77 81.6686 108.973 81.8608 109.112C82.053 109.251 82.2889 109.315 82.5249 109.294C82.761 109.272 82.9813 109.166 83.1452 108.995C83.3091 108.823 83.4055 108.599 83.4166 108.362Z" fill="#F8B6B2"/>
<path d="M84.9821 177.629C84.9821 179.114 84.5867 188.972 85.1198 190.265C85.2141 190.428 85.3496 190.564 85.5127 190.658C85.6759 190.752 85.8609 190.802 86.0493 190.802C86.2376 190.802 86.4227 190.752 86.5858 190.658C86.7489 190.564 86.8844 190.428 86.9787 190.265C87.5351 188.845 86.9035 179.585 86.8302 177.629C86.7336 176.583 84.9821 176.561 84.9821 177.629Z" fill="#F8B6B2"/>
<path d="M40.2196 145.29C61.9478 104.426 111.476 108.72 129.691 141.978C108.172 174.82 66.0144 179.792 40.1212 148.215C39.3125 147.231 38.3125 148.489 39.0478 149.519C61.8119 181.186 110.451 177.053 130.535 145.047C131.19 144.233 131.572 143.235 131.627 142.192C131.683 141.15 131.409 140.116 130.845 139.238C108.759 101.413 53.4444 108.217 38.7239 144.322C38.2856 145.395 39.6954 146.278 40.2196 145.29Z" fill="#F8B6B2"/>
<path d="M238.268 103.785C232.671 104.859 227.735 117.084 233.909 122.807C237.69 126.312 255.099 126.46 265.653 126.011C265.729 127.303 266.006 128.574 266.474 129.781C266.894 130.854 268.154 131.194 267.841 129.258C267.67 128.156 267.591 127.041 267.607 125.925C269.247 125.854 270.886 125.735 272.519 125.567C272.235 127.951 271.825 130.318 271.292 132.659C270.997 133.942 272.437 134.182 272.925 132.958C274.423 129.087 275.029 124.929 274.698 120.792C274.061 111.673 248.49 101.821 238.268 103.785ZM240.03 108.602C237.455 109.19 236.847 113.101 236.613 115.192C236.21 118.771 233.929 116.266 234.477 113.119C234.895 110.747 236.922 106.882 239.88 107.267C240.051 107.258 240.219 107.314 240.35 107.425C240.481 107.536 240.565 107.693 240.584 107.863C240.603 108.034 240.557 108.205 240.454 108.343C240.351 108.48 240.199 108.572 240.03 108.602Z" fill="#043F6D"/>
<path d="M259.191 140.601C260.617 138.186 261.597 135.534 262.086 132.772C264.489 133.207 266.78 134.12 268.825 135.455C270.041 135.98 270.503 134.382 269.898 133.886C267.703 132.097 265.019 131.01 262.196 130.768C260.894 128.301 250.993 127.727 249.465 130.33C249.091 130.12 248.677 129.991 248.25 129.953C247.823 129.914 247.393 129.967 246.988 130.106C246.209 127.97 237.429 127.435 235.241 129.902C232.72 129.625 231.673 131.952 235.004 131.931C235.128 134.243 235.555 136.529 236.276 138.729C237.139 140.493 243.34 140.467 244.574 139.574C246.043 138.513 246.71 133.881 247.127 132.097C247.732 131.907 248.386 131.946 248.964 132.205C248.951 134.596 249.224 136.98 249.775 139.307C250.723 141.193 257.815 142.225 259.191 140.601ZM243.896 137.524C243.604 138.227 243.341 138.395 240.991 138.302C237.019 138.146 237.851 139.007 236.634 131.008C239.432 130.058 242.465 130.058 245.263 131.008C245.224 133.247 244.761 135.458 243.896 137.524ZM251.373 138.334C250.929 136.135 250.771 133.888 250.902 131.648C253.97 130.553 257.338 130.656 260.334 131.936C260.166 133.696 259.715 135.416 258.998 137.032C257.981 139.255 257.813 139.547 254.609 139.286C253.07 139.161 251.589 138.817 251.373 138.334Z" fill="#043F6D"/>
<path d="M252.89 136.905C253.224 138.11 255.573 138.252 255.026 134.768C254.713 132.786 251.918 133.409 252.89 136.905Z" fill="#043F6D"/>
<path d="M273.181 135.463C267.052 135.976 264.027 147.204 260.771 148.279C258.495 149.033 253.391 145.759 248.233 145.406C243.075 145.054 240.137 147.233 239.175 146.773C238.212 146.313 238.876 142.288 238.876 141.349C238.876 140.409 238.364 139.896 237.455 141.968C236.547 144.039 227.684 163.927 231.539 169.278C237.049 176.924 259.536 178.543 266.517 173.284C275.269 166.689 267.821 145.51 269.977 139.993C270.382 139.204 271.029 138.565 271.822 138.169C272.616 137.774 273.515 137.641 274.389 137.792C277.337 139.069 276.527 147.811 271.814 146.442C270.63 146.1 270.362 147.589 271.457 148.163C274.657 149.847 277.799 147.222 278.218 142.823C278.531 139.492 277.4 135.11 273.181 135.463ZM248.777 155.321C244.334 155.321 243.436 153.559 243.062 150.67C246.908 151.496 250.891 151.427 254.706 150.468C254.299 153.108 253.736 155.321 248.777 155.321Z" fill="#043F6D"/>
<path d="M246.651 136.552C245.829 138.448 245.213 140.428 244.814 142.456C244.372 144.862 247.573 144.869 249.376 144.592C250.449 144.427 250.646 143.204 249.471 143.118C248.607 143.053 246.909 143.011 246.748 142.712C246.896 140.716 247.279 138.744 247.891 136.838C248.14 136.051 246.991 135.743 246.651 136.552Z" fill="#043F6D"/>
<path d="M241.57 136.987C242.565 136.608 242.644 133.929 241.794 133.43C239.649 132.157 239.35 137.824 241.57 136.987Z" fill="#043F6D"/>
<path d="M259.073 42.7566C176.332 42.821 88.4958 42.6296 7.01451 43.3237C5.62619 43.3345 5.59399 46.9019 6.92863 46.9108C89.4136 47.4278 176.289 46.7838 258.987 46.7194C260.472 46.7176 260.504 42.7566 259.073 42.7566Z" fill="#043F6D"/>
<path d="M164.807 233.21C150.673 232.369 128.78 229.603 115.591 223.941C113.895 223.211 105.517 224.58 96.0045 220.184C95.0098 219.726 94.6144 221.127 95.5447 221.701C100.406 224.696 106.546 225.494 112.153 225.675C113.66 225.636 115.153 225.969 116.5 226.646C132.04 232.219 148.406 235.143 164.914 235.296C166.27 235.316 166.227 233.296 164.807 233.21Z" fill="#043F6D"/>
<path d="M325.495 229.153C325.22 227.646 323.189 228.178 323.443 229.675C324.318 235.05 323.971 240.554 322.429 245.777C318.777 258.502 308.032 256.461 297.276 255.965C285.987 255.447 270.44 254.364 260.686 253.915C260.471 253.887 260.253 253.943 260.079 254.073C259.905 254.203 259.788 254.395 259.754 254.61C259.719 254.825 259.77 255.044 259.895 255.222C260.02 255.399 260.21 255.521 260.423 255.561C269.807 257.051 289.852 257.933 297.661 258.304C308.342 258.812 320.257 260.236 324.234 247.87C326.191 241.83 326.624 235.4 325.495 229.153Z" fill="#043F6D"/>
<path d="M255.484 235.529C269.306 233.331 283.23 231.83 297.203 231.033C297.429 231.013 297.638 230.906 297.787 230.735C297.936 230.563 298.013 230.341 298.002 230.115C297.99 229.889 297.892 229.675 297.727 229.519C297.563 229.364 297.344 229.278 297.117 229.28C283.049 229.857 269.028 231.284 255.131 233.552C254.871 233.601 254.641 233.752 254.491 233.97C254.341 234.188 254.284 234.457 254.331 234.718C254.378 234.978 254.526 235.21 254.743 235.362C254.96 235.514 255.223 235.574 255.484 235.529Z" fill="#043F6D"/>
<path d="M108.329 220.053C108.478 220.052 108.625 220.021 108.762 219.962C108.898 219.903 109.022 219.817 109.124 219.709C109.227 219.601 109.306 219.473 109.359 219.334C109.411 219.195 109.434 219.046 109.428 218.898C109.421 218.749 109.385 218.603 109.321 218.469C109.257 218.334 109.166 218.214 109.055 218.116C108.943 218.017 108.813 217.942 108.672 217.895C108.53 217.848 108.381 217.83 108.233 217.842C101.592 218.055 98.2409 216.169 93.8576 213.056C93.1635 212.564 92.4264 213.432 92.9631 214.13C96.0832 218.253 103.363 220.246 108.329 220.053Z" fill="#043F6D"/>
<path d="M119.377 208.729C120.186 210.131 121.882 210.321 123.392 210.663C132.31 212.69 152.718 212.013 162.184 211.903C163.529 211.886 163.257 210.147 161.874 210.16C154.963 210.23 134.105 210.427 123.755 208.516C121.844 208.158 121.942 208.441 120.967 206.906C119.125 203.997 116.377 200.438 113.044 200.379C112.049 200.361 111.97 201.32 112.818 201.746C115.763 203.223 118.087 205.698 119.377 208.729Z" fill="#043F6D"/>
<path d="M113.473 209.126C108.854 207.77 102.325 205.594 98.7347 200.955C97.6612 199.563 96.7488 200.645 97.2819 201.767C99.5183 206.476 107.705 210.713 112.405 210.891C115.004 211.001 114.282 209.362 113.473 209.126Z" fill="#043F6D"/>
<path d="M94.7647 205.474C94.6172 205.295 94.4064 205.178 94.1759 205.149C93.9453 205.12 93.7124 205.181 93.525 205.318C93.3377 205.456 93.2101 205.66 93.1684 205.888C93.1268 206.117 93.1743 206.353 93.3012 206.548C95.0066 208.994 97.2212 211.043 99.7931 212.553C102.365 214.062 105.233 214.998 108.201 215.294C108.434 215.302 108.664 215.234 108.856 215.099C109.047 214.965 109.189 214.771 109.26 214.549C109.332 214.326 109.328 214.086 109.251 213.865C109.173 213.645 109.025 213.455 108.83 213.326C107.261 212.65 100.592 212.215 94.7647 205.474Z" fill="#043F6D"/>
<path d="M300.728 260.211C297.523 259.794 260.355 260.617 258.634 259.912C256.913 259.207 248.011 208.507 245.685 205.175C243.359 201.844 170.099 203.957 166.768 205.88C163.436 207.804 174.437 265.716 177.287 266.887C179.83 267.93 296.908 266.481 300.733 266.279C304.558 266.077 303.932 260.628 300.728 260.211ZM208.426 243.549C198.43 244.381 195.298 227.984 205.286 226.354C210.027 225.58 214.205 229.784 215.09 234.962C215.274 235.971 215.244 237.007 215 238.004C214.757 239 214.306 239.934 213.677 240.744C213.048 241.555 212.255 242.223 211.35 242.707C210.446 243.19 209.449 243.477 208.426 243.549Z" fill="#043F6D"/>
</mask>
<g mask="url(#mask0_411_898)">
<rect y="-21" width="346" height="337" fill="url(#paint0_linear_411_898)"/>
</g>
<defs>
<linearGradient id="paint0_linear_411_898" x1="173" y1="-21" x2="173" y2="316" gradientUnits="userSpaceOnUse">
<stop stop-color="#4A83D9"/>
<stop offset="1" stop-color="#F1F1F1"/>
</linearGradient>
</defs>
</svg>
