<svg width="510" height="388" viewBox="0 0 510 388" fill="none" xmlns="http://www.w3.org/2000/svg">
<path fill-rule="evenodd" clip-rule="evenodd" d="M134.561 134.638C135.049 134.867 135.577 134.996 136.115 135.019C136.653 135.042 137.191 134.958 137.696 134.772C137.795 134.748 137.883 134.691 137.946 134.611C138.008 134.53 138.042 134.432 138.042 134.33C138.042 134.228 138.008 134.129 137.946 134.049C137.883 133.969 137.795 133.912 137.696 133.888C135.613 132.992 133.842 131.5 132.604 129.6C132.572 129.502 132.508 129.418 132.422 129.361C132.336 129.304 132.233 129.278 132.13 129.288C132.028 129.297 131.931 129.341 131.857 129.412C131.782 129.483 131.734 129.578 131.72 129.68C131.59 130.703 131.798 131.74 132.31 132.635C132.823 133.529 133.613 134.233 134.561 134.638ZM336.231 69.2193C312.111 72.3549 296.245 74.5793 296.245 74.5793C295.816 74.5793 295.977 75.0081 295.977 75.4369V194.536C295.977 194.75 296.647 194.938 296.888 194.965C316.747 197.216 346.013 199.467 376.002 201.477C396.37 202.817 494.86 208.124 494.86 208.124C495.138 208.124 495.407 208.019 495.61 207.829C495.719 207.736 495.807 207.621 495.867 207.492C495.927 207.362 495.958 207.221 495.959 207.078C496.12 197.028 498.049 53.7557 498.049 53.7557C498.048 53.6052 498.016 53.4565 497.956 53.3184C497.897 53.1803 497.81 53.0556 497.701 52.9517C497.591 52.8456 497.46 52.7626 497.318 52.7073C497.175 52.6521 497.023 52.6259 496.87 52.6301C465.219 54.6133 429.12 58.1509 396.343 61.8493C373.938 64.4489 353.061 67.0217 336.231 69.2193ZM495.825 55.0153L493.842 206.033C488.642 205.819 396.477 201.263 376.082 200.057C346.308 198.288 317.122 196.278 297.317 194.214V76.2945C301.712 75.6781 395.244 64.1005 416.658 61.8761C443.216 59.0889 470.847 56.5697 495.825 55.0153Z" fill="url(#paint0_linear_380_3813)"/>
<path fill-rule="evenodd" clip-rule="evenodd" d="M339.581 132.012C339.524 145.558 344.833 158.576 354.348 168.219C359.057 173.01 364.673 176.816 370.869 179.413C377.065 182.011 383.716 183.349 390.434 183.349C397.152 183.349 403.803 182.011 409.999 179.413C416.195 176.816 421.811 173.01 426.52 168.219C433.693 160.961 438.534 151.726 440.42 141.697C442.306 131.669 441.152 121.306 437.106 111.939C440.748 111.951 444.319 110.923 447.396 108.974C450.473 107.025 452.929 104.238 454.475 100.94C456.021 97.642 456.592 93.9709 456.121 90.3592C455.65 86.7474 454.156 83.3456 451.816 80.5544C449.476 77.7631 446.387 75.6988 442.913 74.6046C439.439 73.5104 435.725 73.4319 432.208 74.3783C428.69 75.3247 425.517 77.2566 423.061 79.9465C420.605 82.6363 418.969 85.972 418.346 89.5606C410.679 84.5595 401.805 81.7178 392.659 81.3345C383.513 80.9512 374.433 83.0405 366.374 87.3826C358.316 91.7247 351.576 98.1589 346.866 106.008C342.156 113.857 339.648 122.831 339.608 131.985L339.581 132.012ZM432.095 88.7834L435.284 96.0194L441.823 79.5106L445.468 81.7886L437.91 102.21L432.55 102.719L428.048 92.8838L432.095 88.7834ZM390.421 82.2442C400.343 82.2718 410.014 85.3706 418.105 91.115V92.8838C418.105 97.5964 419.849 102.142 423.001 105.645C426.153 109.149 430.49 111.362 435.177 111.858C439.17 120.962 440.34 131.055 438.534 140.831C436.728 150.606 432.029 159.615 425.046 166.691C420.532 171.262 415.155 174.891 409.227 177.368C403.299 179.845 396.939 181.12 390.514 181.12C384.09 181.12 377.73 179.845 371.802 177.368C365.874 174.891 360.497 171.262 355.983 166.691C346.851 157.435 341.711 144.969 341.666 131.967C341.621 118.965 346.674 106.464 355.741 97.145C360.234 92.4711 365.617 88.7446 371.573 86.1853C377.529 83.6261 383.938 82.286 390.421 82.2442Z" fill="url(#paint1_linear_380_3813)"/>
<path fill-rule="evenodd" clip-rule="evenodd" d="M361.744 112.474L370.722 112.716C370.883 113.975 376.082 148.44 376.082 148.44C376.121 148.698 376.249 148.934 376.446 149.106C376.642 149.278 376.893 149.374 377.154 149.378L408.296 148.708C408.395 148.684 408.483 148.627 408.545 148.547C408.608 148.466 408.642 148.368 408.642 148.266C408.642 148.164 408.608 148.065 408.545 147.985C408.483 147.905 408.395 147.848 408.296 147.824C408.296 147.824 392.725 147.314 389.536 147.261H378.012C377.851 146.162 377.53 144.152 377.128 141.606C379.808 141.606 405.643 140.963 405.643 140.963C405.901 140.958 406.148 140.861 406.34 140.689C406.532 140.516 406.656 140.281 406.688 140.025L409.368 121.05C409.385 120.897 409.369 120.741 409.323 120.594C409.277 120.446 409.201 120.31 409.1 120.193C408.996 120.074 408.869 119.98 408.725 119.915C408.582 119.85 408.427 119.817 408.269 119.818C408.269 119.818 376.109 120.541 373.67 120.648C372.036 111.563 372.143 111.322 371.285 111.322L361.637 111.67C361.516 111.67 361.4 111.718 361.315 111.804C361.23 111.889 361.182 112.005 361.182 112.126C361.182 112.247 361.23 112.363 361.315 112.448C361.4 112.534 361.516 112.582 361.637 112.582L361.744 112.474ZM396.397 138.176V139.194C395.539 139.194 388.116 139.73 385.462 139.944C385.469 137.187 385.236 134.434 384.766 131.717L396.692 131.449C396.406 133.679 396.308 135.929 396.397 138.176ZM399.452 123.436V121.908H407.144L406.072 129.68H403.82C402.534 129.68 400.926 129.546 399.157 129.519C399.385 127.5 399.483 125.468 399.452 123.436ZM398.943 131.476C400.819 131.342 402.507 131.181 403.847 131.047L405.911 130.832L404.812 138.872L397.603 139.248C397.603 139.006 397.603 138.738 397.79 138.444C398.359 136.11 398.744 133.735 398.943 131.342V131.476ZM398.246 122.042C397.621 124.471 397.182 126.943 396.933 129.439L384.471 129.787C384.101 127.066 383.519 124.377 382.729 121.747C388.491 121.828 392.484 121.881 398.246 121.908V122.042ZM384.39 140.159L377.128 140.695C376.672 138.015 376.163 134.826 375.627 131.583L378.548 131.744H382.568C382.938 134.551 383.547 137.322 384.39 140.025V140.159ZM381.71 121.801C381.73 124.494 381.954 127.182 382.38 129.841L378.628 130.162L375.546 130.457C375.332 129.09 374.314 123.114 374.046 121.56C375.386 121.64 378.28 121.64 381.603 121.64L381.71 121.801Z" fill="url(#paint2_linear_380_3813)"/>
<path fill-rule="evenodd" clip-rule="evenodd" d="M509.252 41.7493C509.14 41.6468 509.009 41.5679 508.866 41.5172C508.724 41.4665 508.572 41.4452 508.421 41.4545C473.206 43.7325 433.032 47.7793 396.558 52.0137C371.607 54.9081 285.15 66.5661 285.15 66.5661C284.721 66.5661 284.936 66.9949 284.936 67.4237V203.916C284.936 204.131 285.632 204.318 285.874 204.345C307.662 206.864 339.688 209.41 372.598 211.661C373.295 214.341 376.216 225.061 377.637 233.316C378.137 235.822 378.379 238.372 378.36 240.927C378.382 241.387 378.27 241.843 378.039 242.24C375.359 244.92 360.11 249.61 359.654 249.798C359.428 249.865 359.232 250.009 359.1 250.204C358.968 250.4 358.908 250.635 358.93 250.87L359.359 256.069C359.372 256.309 359.471 256.537 359.638 256.709C359.806 256.882 360.031 256.988 360.27 257.007C422.956 265.369 419.23 265.235 419.793 265.047C425.264 262.743 430.566 260.056 435.659 257.007C437.234 256.037 438.684 254.876 439.974 253.55C440.702 252.837 441.15 251.886 441.233 250.87C440.638 247.053 439.741 243.289 438.553 239.614C435.873 230.582 432.148 218.978 430.969 215.494L506.17 219.487C506.313 219.499 506.457 219.479 506.592 219.428C506.726 219.377 506.847 219.296 506.947 219.192C507.052 219.098 507.135 218.982 507.191 218.853C507.247 218.723 507.273 218.583 507.268 218.442C507.456 206.918 509.6 42.7409 509.6 42.7409C509.623 42.5599 509.603 42.3762 509.542 42.2042C509.482 42.0321 509.382 41.8764 509.252 41.7493ZM390.018 258.829L361.369 254.97L361.074 251.459H361.316C363.54 251.781 380.21 253.925 383.533 254.3C390.742 255.104 416.631 257.704 418.373 257.865C417.983 259.485 417.983 261.175 418.373 262.796L390.018 258.829ZM436.972 239.909C438.05 243.411 438.839 246.997 439.33 250.629C439.234 251.144 438.959 251.609 438.553 251.942C437.347 253.113 436.006 254.139 434.56 254.997C429.965 257.733 425.193 260.159 420.276 262.26C420.496 260.661 420.368 259.034 419.9 257.489C421.294 256.9 426.091 254.809 430.379 252.746C432.821 251.639 435.162 250.321 437.374 248.806C437.415 248.766 437.448 248.718 437.471 248.665C437.493 248.612 437.505 248.555 437.505 248.498C437.505 248.44 437.493 248.383 437.471 248.331C437.448 248.278 437.415 248.23 437.374 248.19C437.289 248.105 437.173 248.057 437.052 248.057C436.932 248.057 436.816 248.105 436.731 248.19C435.068 249.23 433.32 250.127 431.505 250.87C426.6 252.987 420.222 255.372 418.909 255.855C417.73 255.855 366.193 250.763 363.647 250.495C379.727 244.893 379.727 243.339 379.968 240.927C379.941 238.221 379.626 235.526 379.03 232.887C377.476 224.847 374.394 214.663 373.456 211.447L430.942 215.44H430.004C430.942 218.415 434.56 230.582 436.972 239.962V239.909ZM505.178 217.102C499.63 216.861 396.692 211.742 373.992 210.214C340.84 208.151 308.359 205.846 286.276 203.461V68.2009C290.966 67.5309 395.298 54.2113 419.123 51.6385C448.603 48.4493 479.557 45.5281 507.376 43.7593L505.178 217.102Z" fill="url(#paint3_linear_380_3813)"/>
<path fill-rule="evenodd" clip-rule="evenodd" d="M419.204 242.83C417.756 242.83 398.273 241.865 396.477 241.838C394.682 241.811 385.087 241.838 385.087 241.838C385.027 241.835 384.967 241.843 384.911 241.862C384.854 241.882 384.802 241.913 384.757 241.952C384.712 241.992 384.676 242.04 384.65 242.094C384.624 242.148 384.608 242.207 384.605 242.267C384.605 242.383 384.649 242.495 384.729 242.58C384.808 242.665 384.918 242.716 385.034 242.723C386.186 242.723 400.98 244.572 419.123 244.813H430.513C430.57 244.821 430.628 244.816 430.684 244.799C430.739 244.782 430.79 244.754 430.833 244.716C430.876 244.678 430.911 244.631 430.934 244.578C430.958 244.526 430.969 244.469 430.969 244.411C430.973 244.351 430.964 244.291 430.945 244.234C430.925 244.178 430.894 244.126 430.855 244.081C430.815 244.036 430.767 243.999 430.713 243.973C430.659 243.947 430.6 243.932 430.54 243.929C430.54 243.929 421.83 243.044 419.204 242.83ZM467.337 141.74L470.258 147.1L472.589 145.412L469.775 140.561L474.144 138.444L462.459 128.126L463.129 143.777L467.337 141.74ZM454.258 157.713C454.231 157.765 454.216 157.823 454.212 157.881C454.208 157.94 454.217 157.999 454.237 158.054C454.257 158.11 454.288 158.16 454.329 158.203C454.369 158.246 454.418 158.28 454.473 158.303C455.404 158.977 456.37 159.604 457.367 160.179C458.492 160.822 461.065 161.974 462.271 162.457C462.995 162.751 467.149 164.279 467.47 163.582C467.497 163.53 467.513 163.472 467.517 163.414C467.52 163.355 467.512 163.296 467.492 163.241C467.471 163.185 467.44 163.135 467.4 163.092C467.359 163.049 467.31 163.016 467.256 162.993L466.104 162.189C463.142 160.297 459.918 158.853 456.536 157.901C455.491 157.606 454.848 157.499 454.848 157.499C454.741 157.452 454.62 157.448 454.51 157.488C454.4 157.528 454.31 157.608 454.258 157.713ZM443.752 181.029C442.207 178.522 440.025 176.469 437.428 175.079C437.387 175.039 437.339 175.007 437.286 174.985C437.233 174.963 437.177 174.952 437.12 174.952C437.062 174.952 437.006 174.963 436.953 174.985C436.9 175.007 436.852 175.039 436.811 175.079C436.771 175.12 436.739 175.168 436.717 175.221C436.695 175.274 436.684 175.33 436.684 175.388C436.684 175.445 436.695 175.501 436.717 175.554C436.739 175.607 436.771 175.655 436.811 175.696C436.991 176.076 437.197 176.443 437.428 176.795C438.97 179.202 441.101 181.176 443.619 182.53C443.656 182.575 443.703 182.611 443.757 182.636C443.81 182.661 443.868 182.674 443.927 182.674C443.985 182.674 444.044 182.661 444.097 182.636C444.15 182.611 444.197 182.575 444.235 182.53C444.312 182.446 444.355 182.336 444.355 182.222C444.355 182.107 444.312 181.997 444.235 181.913L443.752 181.029ZM330.764 147.127C330.698 147.03 330.599 146.96 330.486 146.93C330.372 146.901 330.252 146.913 330.147 146.966C324.565 149.047 319.36 152.025 314.737 155.783C314.64 155.849 314.57 155.948 314.541 156.061C314.511 156.175 314.524 156.295 314.576 156.4C314.638 156.502 314.737 156.576 314.852 156.606C314.967 156.636 315.09 156.62 315.193 156.561C320.762 154.452 325.963 151.476 330.603 147.743C330.7 147.678 330.77 147.579 330.8 147.465C330.829 147.352 330.816 147.232 330.764 147.127ZM343.44 169.183C340.867 170.704 338.467 172.502 336.284 174.543C328.003 181.753 330.147 181.913 330.603 181.485C330.603 181.485 331.353 181.056 332.506 180.279C336.782 177.317 340.663 173.823 344.057 169.88C344.145 169.805 344.201 169.699 344.211 169.583C344.221 169.467 344.185 169.353 344.11 169.264C344.035 169.175 343.929 169.119 343.813 169.109C343.697 169.099 343.583 169.135 343.494 169.21L343.44 169.183ZM385.275 291.123C383.13 289.659 380.77 288.538 378.28 287.8C378.187 287.349 378.005 286.92 377.744 286.541C377.268 285.899 376.666 285.36 375.975 284.959C373.617 283.623 371.007 282.792 368.311 282.521C364.952 282.102 361.542 282.535 358.395 283.78C353.356 285.871 341.001 293.455 327.226 298.386C320.161 301.126 312.666 302.596 305.089 302.728C294.757 302.78 284.458 303.885 274.35 306.024C261.191 308.704 249.426 312.242 245.218 314.841L236.83 302.621H237.071C238.938 301.899 240.733 301.002 242.431 299.941C243.668 299.278 244.754 298.365 245.62 297.261C245.679 297.164 245.711 297.052 245.711 296.939C245.711 296.825 245.679 296.714 245.62 296.617C245.529 296.449 245.375 296.324 245.191 296.269C244.906 296.089 244.6 295.945 244.28 295.84C240.974 295.711 237.664 295.764 234.364 296.001C227.223 277.935 218.09 260.722 207.135 244.679C200.661 235.169 193.495 226.149 185.695 217.691C188.804 211.849 192.315 204.908 198.265 191.588C200.447 190.523 202.327 188.927 203.731 186.946C205.136 184.965 206.021 182.663 206.304 180.252C209.52 181.485 211.664 176.875 212.334 173.177C216.462 174.785 223.912 177.625 228.12 178.965C228.805 179.216 229.515 179.395 230.237 179.501C233.104 179.501 243.637 164.091 245.513 160.741C246.061 159.853 246.408 158.856 246.531 157.82C246.502 157.473 246.392 157.137 246.211 156.839C246.029 156.542 245.781 156.29 245.486 156.105C241.359 152.943 223.135 148.762 216.194 147.717C210.19 146.832 210.378 147.046 206.706 151.71C205.313 153.478 203.785 155.569 202.472 157.391C200.038 157.476 197.621 157.826 195.263 158.437C187.062 160.581 184.543 163.529 183.149 168.54C181.989 172.452 181.456 176.522 181.568 180.6C174.922 187.166 169.991 192.365 164.711 198.074C150.941 186.589 135.854 176.783 119.767 168.862L121.375 158.142C130.595 158.142 143.325 155.462 146.594 146.805C148.113 142.535 149.261 138.141 150.025 133.673C151.07 127.804 151.499 122.685 151.633 120.917L156.832 118.478C157.057 118.373 157.237 118.191 157.34 117.965C157.443 117.739 157.462 117.484 157.395 117.245C157.395 117.245 150.936 93.1249 150.534 91.4633C153.884 90.7129 156.376 90.0161 156.376 90.0161C156.376 47.1361 116.176 38.1581 116.176 38.1581C116.176 38.1581 128.879 22.0781 130.38 11.6797C131.881 1.2813 119.124 -2.2027 102.374 2.2729C85.6241 6.7485 96.5585 36.2821 96.5585 36.2821C88.9205 34.5937 74.5021 43.2233 74.5021 43.2233C63.7821 -12.6547 34.4361 10.7953 31.6221 27.3309C28.8081 43.8665 66.0601 47.6453 66.0601 47.6453C41.1093 58.0973 32.3457 142.41 32.3457 142.41C38.0809 146.832 49.4977 149.539 61.8257 151.174C38.568 167.574 20.7426 190.551 10.6377 217.155C6.20843 228.628 3.19355 240.597 1.6597 252.799C-1.18896 277.209 0.630013 301.938 7.0197 325.669C11.0748 341.45 16.4538 356.861 23.0997 371.738C23.1219 371.791 23.1546 371.84 23.1959 371.881C23.2372 371.922 23.2862 371.954 23.3401 371.976C23.394 371.998 23.4517 372.009 23.5099 372.008C23.568 372.008 23.6254 371.995 23.6788 371.972C23.7321 371.949 23.7804 371.916 23.8206 371.874C23.8609 371.832 23.8924 371.782 23.9134 371.728C23.9343 371.674 23.9442 371.616 23.9426 371.558C23.9409 371.499 23.9277 371.442 23.9037 371.389C17.4947 356.483 12.3227 341.075 8.4401 325.32C2.33196 301.712 0.713761 277.166 3.6697 252.96C5.24255 240.931 8.25688 229.135 12.6477 217.825C22.7519 191.386 40.6257 168.625 63.9161 152.541C107.413 158.651 166.748 190.061 205.768 245.617C216.835 261.515 226.102 278.593 233.399 296.537C223.606 305.559 212.816 313.435 201.239 320.014C195.433 323.331 189.417 326.268 183.23 328.804C177.069 331.355 170.704 333.381 164.202 334.861C159.378 328 136.089 287.8 135.901 287.586C135.875 287.534 135.84 287.488 135.796 287.45C135.752 287.412 135.701 287.384 135.646 287.366C135.591 287.349 135.533 287.343 135.475 287.348C135.418 287.353 135.362 287.371 135.311 287.398C135.256 287.423 135.206 287.46 135.166 287.506C135.126 287.552 135.096 287.606 135.078 287.664C135.06 287.722 135.055 287.784 135.063 287.844C135.071 287.905 135.092 287.963 135.124 288.015C135.124 288.015 136.196 290.373 138.018 294.098C144.182 306.667 154.313 324.731 163.398 335.397C160.718 339.712 156.054 349.333 161.146 348.931C164.336 348.69 168.329 344.616 169.187 344.107C181.357 357.035 195.308 368.162 210.619 377.151C221.5 383.208 233.426 387.63 245.084 387.871H245.245C260.869 385.191 277.405 376.401 292.734 365.493C318.757 346.975 341.484 322.613 351.292 312.724C352.913 311.1 354.641 309.587 356.465 308.195C359.395 308.708 362.361 308.986 365.336 309.026C367.568 309.064 369.8 308.921 372.009 308.597C375.812 308.156 379.472 306.884 382.729 304.872C384.47 303.807 386.005 302.436 387.258 300.825C388.214 299.632 388.725 298.145 388.705 296.617C388.665 295.671 388.389 294.75 387.901 293.937C387.234 292.824 386.339 291.865 385.275 291.123ZM75.4401 152.567C94.6289 154.041 112.397 153.613 112.397 153.613C111.433 147.234 102.803 116.736 102.803 116.736C96.0761 117.272 90.1801 112.448 94.3341 103.095C98.4881 93.7413 108.19 100.415 108.19 100.415C116.254 97.6751 123.523 93.0005 129.362 86.8001C130.167 89.0475 131.446 91.095 133.114 92.8033C134.829 94.5453 143.298 93.0445 149.515 91.6777C149.944 94.0361 150.668 97.5469 151.472 101.192C152.061 104.006 154.768 115.557 155.09 116.897L150.051 118.96C148.819 119.523 150.051 120.461 147.747 133.03C147.017 137.367 145.924 141.634 144.477 145.787C143.779 147.413 142.766 148.885 141.497 150.118C140.227 151.351 138.726 152.32 137.08 152.969C131.854 155.1 126.292 156.289 120.652 156.48C120.464 156.473 120.281 156.538 120.141 156.663C120.001 156.788 119.915 156.963 119.901 157.15L117.087 167.575C103.827 160.99 89.8528 155.954 75.4401 152.567ZM206.76 178.456C205.42 178.456 207.376 171.971 207.457 171.569L210.914 172.909C210.405 174.758 208.85 178.429 206.76 178.456ZM210.86 149.137C217.373 149.432 240.876 155.328 243.798 158.088C243.235 160.902 234.605 172.265 231.309 175.83C229.165 178.108 233.989 179.287 201.373 168.165C203.035 165.646 205.581 161.143 202.74 160.125C202.337 160.013 201.911 160.013 201.507 160.125C204.37 156.221 207.533 152.548 210.968 149.137H210.86ZM205.313 170.577C204.857 172.104 204.161 176.607 202.794 175.937C201.427 175.267 201.99 171.327 202.606 169.532L205.313 170.577ZM168.141 201.049L165.461 198.771C167.016 197.377 176.181 188.989 177.012 188.051C180.55 184.647 183.471 181.779 183.471 181.779C183.587 181.665 183.676 181.526 183.731 181.373C183.787 181.22 183.808 181.057 183.792 180.895C183.548 176.95 183.91 172.992 184.864 169.157C185.372 166.714 186.754 164.541 188.75 163.046C192.608 160.672 196.915 159.121 201.4 158.49L199.926 160.581C194.566 163.475 187.92 173.043 187.705 173.311C187.631 173.399 187.594 173.514 187.604 173.63C187.614 173.745 187.67 173.852 187.759 173.927C187.848 174.002 187.963 174.038 188.078 174.028C188.194 174.018 188.301 173.962 188.375 173.873C189.394 172.909 200.542 161.518 202.016 162.108C203.49 162.698 193.977 175.026 194.861 175.749C195.745 176.473 200.462 169.719 200.971 168.942L201.856 169.291C200.355 172.212 199.176 176.205 202.07 177.84C202.423 178.034 202.819 178.137 203.222 178.137C203.626 178.137 204.022 178.034 204.375 177.84C204.455 178.424 204.666 178.983 204.991 179.475C204.464 182.569 202.848 185.373 200.435 187.381C195.075 192.124 198.399 184.272 188.804 206.784C187.946 208.767 187.169 210.697 186.499 212.358C185.829 214.02 185.106 215.869 184.73 216.861C179.469 211.316 173.932 206.038 168.141 201.049ZM162.004 346.439C161.682 346.589 161.338 346.689 160.986 346.733C161.815 343.226 163.19 339.871 165.059 336.791C171.522 335.271 177.85 333.228 183.98 330.68C190.221 328.042 196.274 324.979 202.097 321.515C213.699 314.649 224.449 306.436 234.123 297.046C237.407 296.847 240.701 296.847 243.985 297.046C243.227 297.684 242.41 298.249 241.546 298.735C239.919 299.688 238.205 300.486 236.428 301.12C235.926 301.227 235.456 301.446 235.052 301.762C234.648 302.078 234.321 302.481 234.096 302.942C233.48 304.523 234.739 305.917 233.158 308.302C231.014 311.438 228.039 309.723 224.287 310.607C219.812 311.652 221.607 318.647 218.927 320.952C216.247 323.257 210.727 319.183 208.207 322.935C206.814 325.052 207.511 328.509 206.278 330.439C205.045 332.369 198.64 327.009 194.861 330.868C193.617 332.758 192.498 334.728 191.511 336.764C189.662 339.605 186.955 336.121 183.471 335.933C177.039 335.611 182.158 350.834 173.528 343.973C172.702 343.272 171.804 342.661 170.848 342.151C167.739 340.409 166.801 344.429 162.004 346.439ZM349.604 311.036C339.849 320.791 317.23 345.152 291.394 363.698C276.36 374.418 260.226 383.289 244.87 385.995C233.506 385.995 221.848 381.654 211.209 375.865C196.277 367.273 182.604 356.658 170.58 344.321C171.262 344.752 171.916 345.227 172.537 345.742C182.801 353.782 181.595 337.997 183.739 338.104C187.652 338.291 190.895 344.402 195.611 334.271C195.888 333.57 196.277 332.918 196.764 332.342C199.631 329.394 205.715 335.826 208.422 331.538C210.244 328.617 208.984 323.819 211.102 323.498C213.219 323.176 215.148 324.248 217.4 323.9C224.528 322.855 221.232 313.18 224.77 312.349C226.1 312.069 227.458 311.952 228.816 312.001C229.867 312.028 230.913 311.855 231.898 311.491C233.004 311.024 233.939 310.229 234.578 309.213C236.374 306.533 235.222 304.55 235.57 303.559C235.623 303.425 235.717 303.313 235.838 303.237L244.602 316.503C244.636 316.56 244.683 316.609 244.739 316.646C244.794 316.683 244.857 316.707 244.923 316.717C245.052 316.769 245.196 316.769 245.325 316.717C249.05 314.198 261.084 310.312 274.564 307.793C284.576 305.673 294.775 304.56 305.009 304.47C312.804 304.42 320.528 302.976 327.816 300.209C341.644 295.358 354.08 287.854 359.145 285.79C361.963 284.688 365.013 284.31 368.016 284.691C370.106 284.93 372.143 285.509 374.046 286.407C374.75 286.704 375.374 287.163 375.868 287.747C375.963 287.896 376.035 288.058 376.083 288.229H375.547C374.693 287.832 373.792 287.544 372.866 287.371C369.217 286.698 365.475 286.698 361.825 287.371C361.543 287.417 361.291 287.572 361.122 287.802C360.954 288.033 360.883 288.32 360.926 288.602C360.968 288.885 361.12 289.139 361.348 289.31C361.577 289.481 361.864 289.555 362.146 289.515C364.729 289.154 367.341 289.037 369.945 289.167H371.339C371.883 289.255 372.42 289.38 372.947 289.542C374.341 289.85 375.577 290.649 376.431 291.793C372.086 291.124 367.65 291.37 363.406 292.517H363.084C362.831 292.615 362.622 292.801 362.495 293.041C362.368 293.282 362.332 293.559 362.394 293.824C362.456 294.088 362.612 294.322 362.832 294.48C363.053 294.639 363.323 294.713 363.594 294.688H363.969C366.71 294.092 369.5 293.751 372.304 293.669H374.26C375.097 293.742 375.923 293.904 376.726 294.152C377.009 294.253 377.279 294.388 377.53 294.554C377.661 294.635 377.806 294.689 377.958 294.715C378.232 294.859 378.472 295.061 378.662 295.306C378.851 295.551 378.986 295.833 379.057 296.135L378.709 296.296C378.23 296.48 377.737 296.623 377.235 296.725C372.628 297.543 368.132 298.892 363.835 300.745C358.53 303.284 353.735 306.771 349.684 311.036H349.604ZM385.463 299.244C384.33 300.717 382.93 301.962 381.335 302.915C378.351 304.741 375.02 305.928 371.553 306.399C369.435 306.768 367.296 307.001 365.148 307.096C362.64 307.23 360.126 307.23 357.617 307.096C359.065 306.078 360.458 305.22 361.825 304.416C367.319 301.677 373.176 299.737 379.218 298.654C380.853 298.118 381.442 297.234 381.335 296.189C381.249 295.527 381.01 294.895 380.638 294.342C380.266 293.789 379.771 293.329 379.191 292.999C378.977 291.714 378.357 290.531 377.422 289.623L377.744 289.301C377.892 289.105 378.009 288.888 378.093 288.658C379.486 289.289 380.829 290.023 382.113 290.855C383.682 291.812 385.004 293.125 385.972 294.688C386.372 295.401 386.545 296.219 386.469 297.033C386.392 297.847 386.069 298.618 385.543 299.244H385.463Z" fill="url(#paint4_linear_380_3813)"/>
<path fill-rule="evenodd" clip-rule="evenodd" d="M205.393 163.823C213.186 167.196 221.256 169.886 229.513 171.863C237.124 173.659 231.63 170.416 216.113 165.565C210.512 163.823 206.278 162.885 205.876 162.885C205.817 162.855 205.752 162.839 205.685 162.836C205.619 162.834 205.553 162.846 205.492 162.872C205.431 162.898 205.377 162.936 205.332 162.985C205.287 163.034 205.254 163.092 205.234 163.156C205.215 163.219 205.209 163.286 205.218 163.351C205.226 163.417 205.249 163.48 205.285 163.536C205.32 163.592 205.368 163.639 205.423 163.675C205.479 163.711 205.542 163.734 205.608 163.743L205.393 163.823ZM217.239 153.345L211.638 152.005L209.252 154.551L215.443 156.185L217.239 153.345ZM380.96 153.8C379.566 153.8 378.441 155.355 378.441 157.284C378.441 159.214 379.566 160.741 380.96 160.741C382.354 160.741 383.452 159.187 383.452 157.284C383.452 155.381 382.434 153.8 380.96 153.8ZM405.294 153.8C403.901 153.8 402.775 155.355 402.775 157.284C402.775 159.214 403.901 160.741 405.294 160.741C406.688 160.741 407.787 159.187 407.787 157.284C407.787 155.381 406.661 153.8 405.294 153.8ZM140.778 110.357C141.016 110.361 141.253 110.316 141.472 110.226C141.692 110.135 141.891 110 142.057 109.829C142.223 109.658 142.352 109.455 142.436 109.233C142.52 109.01 142.558 108.773 142.547 108.535C142.547 107.302 142.547 106.096 142.681 104.863C142.729 104.373 142.59 103.882 142.292 103.49C141.994 103.097 141.559 102.832 141.073 102.746C138.715 102.425 139.01 105.721 139.01 108.374C139.001 108.867 139.178 109.345 139.506 109.712C139.834 110.08 140.288 110.31 140.778 110.357Z" fill="url(#paint5_linear_380_3813)"/>
<defs>
<linearGradient id="paint0_linear_380_3813" x1="131.682" y1="130.377" x2="483.329" y2="130.377" gradientUnits="userSpaceOnUse">
<stop stop-color="#C08EFF"/>
<stop offset="0.9999" stop-color="white" stop-opacity="0.8"/>
</linearGradient>
<linearGradient id="paint1_linear_380_3813" x1="339.581" y1="128.535" x2="451.592" y2="128.535" gradientUnits="userSpaceOnUse">
<stop stop-color="#C08EFF"/>
<stop offset="0.9999" stop-color="white" stop-opacity="0.8"/>
</linearGradient>
<linearGradient id="paint2_linear_380_3813" x1="361.182" y1="130.35" x2="407.438" y2="130.35" gradientUnits="userSpaceOnUse">
<stop stop-color="#C08EFF"/>
<stop offset="0.9999" stop-color="white" stop-opacity="0.8"/>
</linearGradient>
<linearGradient id="paint3_linear_380_3813" x1="284.882" y1="153.276" x2="500.58" y2="153.276" gradientUnits="userSpaceOnUse">
<stop stop-color="#C08EFF"/>
<stop offset="0.9999" stop-color="white" stop-opacity="0.8"/>
</linearGradient>
<linearGradient id="paint4_linear_380_3813" x1="0.353027" y1="194.117" x2="455.107" y2="194.117" gradientUnits="userSpaceOnUse">
<stop stop-color="#C08EFF"/>
<stop offset="0.9999" stop-color="white" stop-opacity="0.8"/>
</linearGradient>
<linearGradient id="paint5_linear_380_3813" x1="138.998" y1="137.545" x2="396.987" y2="137.545" gradientUnits="userSpaceOnUse">
<stop stop-color="#C08EFF"/>
<stop offset="0.9999" stop-color="white" stop-opacity="0.8"/>
</linearGradient>
</defs>
</svg>
